{
.appVersion = "983";
copyright = "Copyright 2016 Google Inc. All Rights Reserved.";
customParameters = (
{
name = description;
value = "Designed by Monotype design team.";
},
{
name = license;
value = "This Font Software is licensed under the SIL Open Font License, Version 1.1. This Font Software is distributed on an \"AS IS\" BASIS, WITHOUT WARRANTIES OR CONDITIONS OF ANY KIND, either express or implied. See the SIL Open Font License for the specific language, permissions and limitations governing your use of this Font Software.";
},
{
name = licenseURL;
value = "http://scripts.sil.org/OFL";
},
{
name = vendorID;
value = GOOG;
},
{
name = trademark;
value = "Noto is a trademark of Google Inc.";
},
{
name = fsType;
value = (
);
},
{
name = panose;
value = (
2,
4,
5,
3,
5,
3,
6,
2,
2,
3
);
},
{
name = unicodeRanges;
value = (
71
);
},
{
name = codePageRanges;
value = (
1252,
1255,
1256,
1258,
932,
936,
949,
950,
1361,
869,
866,
865,
864,
863,
862,
861,
860,
857,
855,
852,
737,
850,
437
);
},
{
name = glyphOrder;
value = (
.notdef,
uni0000,
uni000D,
space,
afii61664,
afii301,
afii299,
afii300,
uni0710,
g9,
g10,
g11,
g12,
uni0711,
uni0712,
g15,
g16,
g17,
uni0713,
g19,
g20,
g21,
uni0714,
g23,
g24,
g25,
uni0715,
g27,
uni0716,
g29,
uni0717,
g31,
uni0718,
g33,
uni0719,
g35,
uni071A,
g37,
g38,
g39,
uni071B,
g41,
g42,
g43,
uni071C,
g45,
g46,
g47,
uni071D,
g49,
g50,
g51,
uni071E,
uni071F,
g54,
g55,
g56,
uni0720,
g58,
g59,
g60,
uni0721,
g62,
g63,
g64,
uni0722,
g66,
g67,
g68,
uni0723,
g70,
g71,
g72,
uni0724,
g74,
g75,
g76,
uni0725,
g78,
g79,
g80,
uni0726,
g82,
g83,
g84,
uni0727,
g86,
g87,
g88,
uni0728,
g90,
uni0729,
g92,
g93,
g94,
uni072A,
g96,
uni072B,
g98,
g99,
g100,
uni072C,
g102,
uni072D,
g104,
g105,
g106,
uni072E,
g108,
g109,
g110,
uni072F,
g112,
uni074D,
g114,
uni074E,
g116,
g117,
g118,
uni074F,
g120,
g121,
g122,
afii57409,
afii57440,
uni0700,
uni0701,
uni0702,
uni0703,
uni0704,
uni0705,
uni0706,
uni0707,
uni0708,
uni0709,
uni070A,
uni070B,
uni070C,
uni070D,
uni070F,

glyphs = (
{
glyphname = .notdef;
lastChange = "2016-11-30 01:18:20 +0000";
layers = (
{
layerId = "1C6E6581-F718-4B48-B828-7898AD953AFB";
paths = (
{
closed = 1;
nodes = (
"1034 0 LINE",
"1034 1462 LINE",
"193 1462 LINE",
"193 0 LINE"
);
},
{
closed = 1;
nodes = (
"297 1358 LINE",
"930 1358 LINE",
"930 104 LINE",
"297 104 LINE"
);
}
);
width = 1229;
}
);
note = .notdef;
},
{
glyphname = afii61664;
lastChange = "2016-11-30 01:18:20 +0000";
layers = (
{
layerId = "1C6E6581-F718-4B48-B828-7898AD953AFB";
paths = (
{
closed = 1;
nodes = (
"36 0 LINE",
"36 1462 LINE",
"-36 1462 LINE",
"-36 0 LINE"
);
}
);
width = 0;
}
);
note = afii61664;
unicode = 200C;
},
{
glyphname = afii301;
lastChange = "2016-11-30 01:18:20 +0000";
layers = (
{
layerId = "1C6E6581-F718-4B48-B828-7898AD953AFB";
paths = (
{
closed = 1;
nodes = (
"36 0 LINE",
"36 1185 LINE",
"170 1049 LINE",
"219 1098 LINE",
"48 1267 LINE",
"219 1435 LINE",
"170 1484 LINE",
"0 1313 LINE",
"-170 1484 LINE",
"-219 1435 LINE",
"-48 1267 LINE",
"-219 1098 LINE",
"-170 1049 LINE",
"-36 1185 LINE",
"-36 0 LINE"
);
}
);
width = 0;
}
);
note = afii301;
unicode = 200D;
},
{
glyphname = afii299;
lastChange = "2016-11-30 01:18:20 +0000";
layers = (
{
layerId = "1C6E6581-F718-4B48-B828-7898AD953AFB";
paths = (
{
closed = 1;
nodes = (
"35 0 LINE",
"35 1234 LINE",
"301 1234 LINE",
"164 1104 LINE",
"213 1055 LINE",
"430 1269 LINE",
"213 1484 LINE",
"164 1435 LINE",
"301 1305 LINE",
"-36 1305 LINE",
"-36 0 LINE"
);
}
);
width = 0;
}
);
note = afii299;
unicode = 200E;
},
{
glyphname = afii300;
lastChange = "2016-11-30 01:18:20 +0000";
layers = (
{
layerId = "1C6E6581-F718-4B48-B828-7898AD953AFB";
paths = (
{
closed = 1;
nodes = (
"35 0 LINE",
"35 1305 LINE",
"-302 1305 LINE",
"-165 1435 LINE",
"-214 1484 LINE",
"-431 1269 LINE",
"-214 1055 LINE",
"-165 1104 LINE",
"-302 1234 LINE",
"-36 1234 LINE",
"-36 0 LINE"
);
}
);
width = 0;
}
);
note = afii300;
unicode = 200F;
},
{
glyphname = uni0710;
lastChange = "2016-11-30 01:18:20 +0000";
layers = (
{
layerId = "1C6E6581-F718-4B48-B828-7898AD953AFB";
paths = (
{
closed = 1;
nodes = (
"1598 119 LINE",
"1450 163 OFFCURVE",
"1319 242 OFFCURVE",
"1096 429 CURVE SMOOTH",
"985 522 OFFCURVE",
"886 585 OFFCURVE",
"799 618 CURVE",
"799 628 LINE",
"1175 644 OFFCURVE",
"1674 873 OFFCURVE",
"1889 1120 CURVE",
"1780 1219 LINE",
"1500 956 OFFCURVE",
"1000 749 OFFCURVE",
"635 749 CURVE SMOOTH",
"558 750 LINE SMOOTH",
"451 750 OFFCURVE",
"297 759 OFFCURVE",
"209 772 CURVE",
"166 759 OFFCURVE",
"149 728 OFFCURVE",
"149 668 CURVE SMOOTH",
"149 649 OFFCURVE",
"164 573 OFFCURVE",
"194 438 CURVE SMOOTH",
"224 303 OFFCURVE",
"251 157 OFFCURVE",
"275 0 CURVE",
"426 0 LINE",
"395 213 OFFCURVE",
"339 495 OFFCURVE",
"304 620 CURVE",
"319 620 LINE SMOOTH",
"542 620 OFFCURVE",
"766 520 OFFCURVE",
"991 319 CURVE SMOOTH",
"1216 118 OFFCURVE",
"1395 7 OFFCURVE",
"1528 -16 CURVE"
);
}
);
width = 1904;
}
);
note = uni0710;
unicode = 0710;
},
{
glyphname = g9;
lastChange = "2016-11-30 01:18:20 +0000";
layers = (
{
layerId = "1C6E6581-F718-4B48-B828-7898AD953AFB";
paths = (
{
closed = 1;
nodes = (
"1598 119 LINE",
"1450 163 OFFCURVE",
"1319 242 OFFCURVE",
"1096 429 CURVE SMOOTH",
"985 522 OFFCURVE",
"886 585 OFFCURVE",
"799 618 CURVE",
"799 628 LINE",
"1175 644 OFFCURVE",
"1674 873 OFFCURVE",
"1889 1120 CURVE",
"1780 1219 LINE",
"1500 956 OFFCURVE",
"1000 749 OFFCURVE",
"635 749 CURVE SMOOTH",
"558 750 LINE SMOOTH",
"451 750 OFFCURVE",
"297 759 OFFCURVE",
"209 772 CURVE",
"166 759 OFFCURVE",
"149 728 OFFCURVE",
"149 668 CURVE SMOOTH",
"149 649 OFFCURVE",
"164 573 OFFCURVE",
"194 438 CURVE SMOOTH",
"224 303 OFFCURVE",
"251 157 OFFCURVE",
"275 0 CURVE",
"426 0 LINE",
"395 213 OFFCURVE",
"339 495 OFFCURVE",
"304 620 CURVE",
"319 620 LINE SMOOTH",
"542 620 OFFCURVE",
"766 520 OFFCURVE",
"991 319 CURVE SMOOTH",
"1216 118 OFFCURVE",
"1395 7 OFFCURVE",
"1528 -16 CURVE"
);
}
);
width = 1904;
}
);
note = g9;
},
{
glyphname = g10;
lastChange = "2016-11-30 01:18:20 +0000";
layers = (
{
layerId = "1C6E6581-F718-4B48-B828-7898AD953AFB";
paths = (
{
closed = 1;
nodes = (
"1598 119 LINE",
"1450 163 OFFCURVE",
"1319 242 OFFCURVE",
"1096 429 CURVE SMOOTH",
"985 522 OFFCURVE",
"886 585 OFFCURVE",
"799 618 CURVE",
"799 628 LINE",
"1175 644 OFFCURVE",
"1674 873 OFFCURVE",
"1889 1120 CURVE",
"1780 1219 LINE",
"1500 956 OFFCURVE",
"1000 749 OFFCURVE",
"635 749 CURVE SMOOTH",
"558 750 LINE SMOOTH",
"451 750 OFFCURVE",
"297 759 OFFCURVE",
"209 772 CURVE",
"166 759 OFFCURVE",
"149 728 OFFCURVE",
"149 668 CURVE SMOOTH",
"149 649 OFFCURVE",
"164 573 OFFCURVE",
"194 438 CURVE SMOOTH",
"224 303 OFFCURVE",
"251 157 OFFCURVE",
"275 0 CURVE",
"426 0 LINE",
"395 213 OFFCURVE",
"339 495 OFFCURVE",
"304 620 CURVE",
"319 620 LINE SMOOTH",
"542 620 OFFCURVE",
"766 520 OFFCURVE",
"991 319 CURVE SMOOTH",
"1216 118 OFFCURVE",
"1395 7 OFFCURVE",
"1528 -16 CURVE"
);
}
);
width = 1904;
}
);
note = g10;
},
{
glyphname = g11;
lastChange = "2016-11-30 01:18:20 +0000";
layers = (
{
layerId = "1C6E6581-F718-4B48-B828-7898AD953AFB";
paths = (
{
closed = 1;
nodes = (
"426 0 LINE",
"398 195 OFFCURVE",
"344 473 OFFCURVE",
"305 620 CURVE",
"320 620 LINE SMOOTH",
"577 620 OFFCURVE",
"755 523 OFFCURVE",
"1008 298 CURVE SMOOTH",
"1260 73 OFFCURVE",
"1442 0 OFFCURVE",
"1690 0 CURVE SMOOTH",
"1781 0 LINE",
"1781 155 LINE",
"1714 155 LINE SMOOTH",
"1482 155 OFFCURVE",
"1321 237 OFFCURVE",
"1090 429 CURVE SMOOTH",
"974 524 OFFCURVE",
"876 587 OFFCURVE",
"795 618 CURVE",
"795 627 LINE",
"1178 642 OFFCURVE",
"1674 872 OFFCURVE",
"1889 1120 CURVE",
"1780 1219 LINE",
"1500 956 OFFCURVE",
"1000 749 OFFCURVE",
"635 749 CURVE SMOOTH",
"558 750 LINE SMOOTH",
"451 750 OFFCURVE",
"297 759 OFFCURVE",
"209 772 CURVE",
"166 759 OFFCURVE",
"149 729 OFFCURVE",
"149 669 CURVE SMOOTH",
"149 650 OFFCURVE",
"164 573 OFFCURVE",
"194 438 CURVE SMOOTH",
"224 303 OFFCURVE",
"251 157 OFFCURVE",
"275 0 CURVE"
);
}
);
width = 1781;
}
);
note = g11;
},
{
glyphname = g12;
lastChange = "2016-11-30 01:18:20 +0000";
layers = (
{
layerId = "1C6E6581-F718-4B48-B828-7898AD953AFB";
paths = (
{
closed = 1;
nodes = (
"426 0 LINE",
"398 195 OFFCURVE",
"344 473 OFFCURVE",
"305 620 CURVE",
"320 620 LINE SMOOTH",
"577 620 OFFCURVE",
"755 523 OFFCURVE",
"1008 298 CURVE SMOOTH",
"1260 73 OFFCURVE",
"1442 0 OFFCURVE",
"1690 0 CURVE SMOOTH",
"1781 0 LINE",
"1781 155 LINE",
"1714 155 LINE SMOOTH",
"1482 155 OFFCURVE",
"1321 237 OFFCURVE",
"1090 429 CURVE SMOOTH",
"974 524 OFFCURVE",
"876 587 OFFCURVE",
"795 618 CURVE",
"795 627 LINE",
"1178 642 OFFCURVE",
"1674 872 OFFCURVE",
"1889 1120 CURVE",
"1780 1219 LINE",
"1500 956 OFFCURVE",
"1000 749 OFFCURVE",
"635 749 CURVE SMOOTH",
"558 750 LINE SMOOTH",
"451 750 OFFCURVE",
"297 759 OFFCURVE",
"209 772 CURVE",
"166 759 OFFCURVE",
"149 729 OFFCURVE",
"149 669 CURVE SMOOTH",
"149 650 OFFCURVE",
"164 573 OFFCURVE",
"194 438 CURVE SMOOTH",
"224 303 OFFCURVE",
"251 157 OFFCURVE",
"275 0 CURVE"
);
}
);
width = 1781;
}
);
note = g12;
},
{
glyphname = uni0711;
lastChange = "2016-11-30 01:18:20 +0000";
layers = (
{
layerId = "1C6E6581-F718-4B48-B828-7898AD953AFB";
paths = (
{
closed = 1;
nodes = (
"212 1184 LINE",
"172 1197 OFFCURVE",
"130 1223 OFFCURVE",
"87 1260 CURVE SMOOTH",
"43 1297 OFFCURVE",
"8 1322 OFFCURVE",
"-17 1335 CURVE",
"-17 1340 LINE",
"112 1361 OFFCURVE",
"211 1416 OFFCURVE",
"271 1495 CURVE",
"216 1546 LINE",
"128 1457 OFFCURVE",
"15 1400 OFFCURVE",
"-98 1400 CURVE SMOOTH",
"-117 1400 OFFCURVE",
"-165 1401 OFFCURVE",
"-210 1409 CURVE",
"-233 1402 OFFCURVE",
"-248 1385 OFFCURVE",
"-248 1356 CURVE SMOOTH",
"-248 1345 OFFCURVE",
"-245 1326 OFFCURVE",
"-238 1298 CURVE SMOOTH",
"-232 1270 OFFCURVE",
"-227 1243 OFFCURVE",
"-222 1217 CURVE",
"-215 1170 LINE",
"-209 1119 LINE",
"-126 1119 LINE",
"-133 1178 OFFCURVE",
"-153 1284 OFFCURVE",
"-166 1331 CURVE",
"-128 1331 OFFCURVE",
"-97 1320 OFFCURVE",
"-73 1297 CURVE SMOOTH",
"-25 1251 OFFCURVE",
"66 1151 OFFCURVE",
"177 1111 CURVE"
);
}
);
width = 0;
}
);
note = uni0711;
unicode = 0711;
},
{
glyphname = uni0712;
lastChange = "2016-11-30 01:18:20 +0000";
layers = (
{
layerId = "1C6E6581-F718-4B48-B828-7898AD953AFB";
paths = (
{
closed = 1;
nodes = (
"1451 0 LINE SMOOTH",
"1715 0 OFFCURVE",
"1821 102 OFFCURVE",
"1821 359 CURVE SMOOTH",
"1821 400 OFFCURVE",
"1815 461 OFFCURVE",
"1808 518 CURVE SMOOTH",
"1801 563 LINE SMOOTH",
"1765 770 OFFCURVE",
"1657 872 OFFCURVE",
"1444 872 CURVE SMOOTH",
"1365 872 OFFCURVE",
"1286 870 OFFCURVE",
"1208 867 CURVE SMOOTH",
"1129 864 OFFCURVE",
"1050 862 OFFCURVE",
"971 862 CURVE SMOOTH",
"886 862 OFFCURVE",
"820 863 OFFCURVE",
"773 866 CURVE SMOOTH",
"725 869 OFFCURVE",
"690 873 OFFCURVE",
"667 878 CURVE",
"667 732 LINE",
"689 726 OFFCURVE",
"725 721 OFFCURVE",
"775 718 CURVE SMOOTH",
"824 714 OFFCURVE",
"893 712 OFFCURVE",
"981 712 CURVE SMOOTH",
"1052 712 OFFCURVE",
"1125 714 OFFCURVE",
"1198 717 CURVE SMOOTH",
"1271 720 OFFCURVE",
"1343 722 OFFCURVE",
"1414 722 CURVE SMOOTH",
"1484 722 OFFCURVE",
"1537 710 OFFCURVE",
"1572 687 CURVE SMOOTH",
"1642 640 OFFCURVE",
"1673 490 OFFCURVE",
"1673 359 CURVE SMOOTH",
"1673 206 OFFCURVE",
"1624 155 OFFCURVE",
"1493 155 CURVE SMOOTH",
"537 155 LINE SMOOTH",
"357 155 OFFCURVE",
"264 180 OFFCURVE",
"192 283 CURVE",
"100 160 LINE",
"143 61 OFFCURVE",
"279 0 OFFCURVE",
"491 0 CURVE SMOOTH"
);
}
);
width = 1963;
}
);
note = uni0712;
unicode = 0712;
},
{
glyphname = g15;
lastChange = "2016-11-30 01:18:20 +0000";
layers = (
{
layerId = "1C6E6581-F718-4B48-B828-7898AD953AFB";
paths = (
{
closed = 1;
nodes = (
"1451 0 LINE SMOOTH",
"1584 0 OFFCURVE",
"1667 29 OFFCURVE",
"1722 86 CURVE",
"1732 86 LINE",
"1791 14 OFFCURVE",
"1861 0 OFFCURVE",
"1982 0 CURVE",
"1982 155 LINE",
"1919 155 OFFCURVE",
"1875 160 OFFCURVE",
"1850 170 CURVE",
"1825 179 OFFCURVE",
"1809 193 OFFCURVE",
"1803 212 CURVE",
"1816 255 OFFCURVE",
"1821 303 OFFCURVE",
"1821 359 CURVE SMOOTH",
"1821 400 OFFCURVE",
"1815 461 OFFCURVE",
"1808 518 CURVE SMOOTH",
"1801 563 LINE SMOOTH",
"1765 770 OFFCURVE",
"1657 872 OFFCURVE",
"1444 872 CURVE SMOOTH",
"1365 872 OFFCURVE",
"1286 870 OFFCURVE",
"1208 867 CURVE SMOOTH",
"1129 864 OFFCURVE",
"1050 862 OFFCURVE",
"971 862 CURVE SMOOTH",
"886 862 OFFCURVE",
"820 863 OFFCURVE",
"773 866 CURVE SMOOTH",
"725 869 OFFCURVE",
"690 873 OFFCURVE",
"667 878 CURVE",
"667 732 LINE",
"689 726 OFFCURVE",
"725 721 OFFCURVE",
"775 718 CURVE SMOOTH",
"824 714 OFFCURVE",
"893 712 OFFCURVE",
"981 712 CURVE SMOOTH",
"1052 712 OFFCURVE",
"1125 714 OFFCURVE",
"1198 717 CURVE SMOOTH",
"1271 720 OFFCURVE",
"1343 722 OFFCURVE",
"1414 722 CURVE SMOOTH",
"1484 722 OFFCURVE",
"1537 710 OFFCURVE",
"1572 687 CURVE SMOOTH",
"1642 640 OFFCURVE",
"1673 490 OFFCURVE",
"1673 359 CURVE SMOOTH",
"1673 206 OFFCURVE",
"1624 155 OFFCURVE",
"1493 155 CURVE SMOOTH",
"537 155 LINE SMOOTH",
"357 155 OFFCURVE",
"264 180 OFFCURVE",
"192 283 CURVE",
"100 160 LINE",
"143 61 OFFCURVE",
"279 0 OFFCURVE",
"491 0 CURVE SMOOTH"
);
}
);
width = 1982;
}
);
note = g15;
},
{
glyphname = g16;
lastChange = "2016-11-30 01:18:20 +0000";
layers = (
{
layerId = "1C6E6581-F718-4B48-B828-7898AD953AFB";
paths = (
{
closed = 1;
nodes = (
"984 0 LINE SMOOTH",
"1117 0 OFFCURVE",
"1200 29 OFFCURVE",
"1255 86 CURVE",
"1265 86 LINE",
"1324 14 OFFCURVE",
"1394 0 OFFCURVE",
"1515 0 CURVE",
"1515 155 LINE",
"1452 155 OFFCURVE",
"1408 160 OFFCURVE",
"1383 170 CURVE",
"1358 179 OFFCURVE",
"1342 193 OFFCURVE",
"1336 212 CURVE",
"1349 255 OFFCURVE",
"1354 303 OFFCURVE",
"1354 359 CURVE SMOOTH",
"1354 400 OFFCURVE",
"1348 461 OFFCURVE",
"1341 518 CURVE SMOOTH",
"1334 563 LINE SMOOTH",
"1298 770 OFFCURVE",
"1190 872 OFFCURVE",
"977 872 CURVE SMOOTH",
"898 872 OFFCURVE",
"819 870 OFFCURVE",
"741 867 CURVE SMOOTH",
"662 864 OFFCURVE",
"583 862 OFFCURVE",
"504 862 CURVE SMOOTH",
"419 862 OFFCURVE",
"353 863 OFFCURVE",
"306 866 CURVE SMOOTH",
"258 869 OFFCURVE",
"223 873 OFFCURVE",
"200 878 CURVE",
"200 732 LINE",
"222 726 OFFCURVE",
"258 721 OFFCURVE",
"308 718 CURVE SMOOTH",
"357 714 OFFCURVE",
"426 712 OFFCURVE",
"514 712 CURVE SMOOTH",
"585 712 OFFCURVE",
"658 714 OFFCURVE",
"731 717 CURVE SMOOTH",
"804 720 OFFCURVE",
"876 722 OFFCURVE",
"947 722 CURVE SMOOTH",
"1017 722 OFFCURVE",
"1070 710 OFFCURVE",
"1105 687 CURVE SMOOTH",
"1175 640 OFFCURVE",
"1206 490 OFFCURVE",
"1206 359 CURVE SMOOTH",
"1206 206 OFFCURVE",
"1157 155 OFFCURVE",
"1026 155 CURVE SMOOTH",
"0 155 LINE SMOOTH",
"-44 155 OFFCURVE",
"-80 125 OFFCURVE",
"-80 77 CURVE SMOOTH",
"-80 29 OFFCURVE",
"-44 0 OFFCURVE",
"0 0 CURVE SMOOTH"
);
}
);
width = 1515;
}
);
note = g16;
},
{
glyphname = g17;
lastChange = "2016-11-30 01:18:20 +0000";
layers = (
{
layerId = "1C6E6581-F718-4B48-B828-7898AD953AFB";
paths = (
{
closed = 1;
nodes = (
"984 0 LINE SMOOTH",
"1248 0 OFFCURVE",
"1354 102 OFFCURVE",
"1354 359 CURVE SMOOTH",
"1354 400 OFFCURVE",
"1348 461 OFFCURVE",
"1341 518 CURVE SMOOTH",
"1334 563 LINE SMOOTH",
"1298 770 OFFCURVE",
"1190 872 OFFCURVE",
"977 872 CURVE SMOOTH",
"898 872 OFFCURVE",
"819 870 OFFCURVE",
"741 867 CURVE SMOOTH",
"662 864 OFFCURVE",
"583 862 OFFCURVE",
"504 862 CURVE SMOOTH",
"419 862 OFFCURVE",
"353 863 OFFCURVE",
"306 866 CURVE SMOOTH",
"258 869 OFFCURVE",
"223 873 OFFCURVE",
"200 878 CURVE",
"200 732 LINE",
"222 726 OFFCURVE",
"258 721 OFFCURVE",
"308 718 CURVE SMOOTH",
"357 714 OFFCURVE",
"426 712 OFFCURVE",
"514 712 CURVE SMOOTH",
"585 712 OFFCURVE",
"658 714 OFFCURVE",
"731 717 CURVE SMOOTH",
"804 720 OFFCURVE",
"876 722 OFFCURVE",
"947 722 CURVE SMOOTH",
"1017 722 OFFCURVE",
"1070 710 OFFCURVE",
"1105 687 CURVE SMOOTH",
"1175 640 OFFCURVE",
"1206 490 OFFCURVE",
"1206 359 CURVE SMOOTH",
"1206 206 OFFCURVE",
"1157 155 OFFCURVE",
"1026 155 CURVE SMOOTH",
"0 155 LINE SMOOTH",
"-44 155 OFFCURVE",
"-80 125 OFFCURVE",
"-80 77 CURVE SMOOTH",
"-80 29 OFFCURVE",
"-44 0 OFFCURVE",
"0 0 CURVE SMOOTH"
);
}
);
width = 1496;
}
);
note = g17;
},
{
glyphname = uni0713;
lastChange = "2016-11-30 01:18:20 +0000";
layers = (
{
layerId = "1C6E6581-F718-4B48-B828-7898AD953AFB";
paths = (
{
closed = 1;
nodes = (
"2712 -648 LINE",
"2557 -547 OFFCURVE",
"2378 -404 OFFCURVE",
"2173 -219 CURVE SMOOTH",
"1763 150 OFFCURVE",
"1363 623 OFFCURVE",
"1018 1098 CURVE",
"875 1015 LINE",
"1250 492 OFFCURVE",
"1674 6 OFFCURVE",
"1961 -199 CURVE",
"1956 -205 LINE",
"1797 -106 OFFCURVE",
"1648 -34 OFFCURVE",
"1510 11 CURVE SMOOTH",
"1234 102 OFFCURVE",
"966 155 OFFCURVE",
"570 155 CURVE SMOOTH",
"439 155 OFFCURVE",
"215 140 OFFCURVE",
"100 119 CURVE",
"129 -25 LINE",
"226 -13 OFFCURVE",
"421 0 OFFCURVE",
"600 0 CURVE SMOOTH",
"901 0 OFFCURVE",
"1202 -48 OFFCURVE",
"1523 -159 CURVE SMOOTH",
"1844 -270 OFFCURVE",
"2070 -383 OFFCURVE",
"2502 -687 CURVE SMOOTH",
"2618 -769 LINE"
);
}
);
width = 2234;
}
);
note = uni0713;
unicode = 0713;
},
{
glyphname = g19;
lastChange = "2016-11-30 01:18:20 +0000";
layers = (
{
layerId = "1C6E6581-F718-4B48-B828-7898AD953AFB";
paths = (
{
closed = 1;
nodes = (
"2712 -648 LINE",
"2464 -485 OFFCURVE",
"2146 -205 OFFCURVE",
"1935 6 CURVE",
"1935 155 LINE",
"1791 155 LINE",
"1543 418 OFFCURVE",
"1278 739 OFFCURVE",
"1018 1098 CURVE",
"875 1015 LINE",
"1250 492 OFFCURVE",
"1674 6 OFFCURVE",
"1961 -199 CURVE",
"1956 -205 LINE",
"1797 -106 OFFCURVE",
"1648 -34 OFFCURVE",
"1510 11 CURVE SMOOTH",
"1234 102 OFFCURVE",
"966 155 OFFCURVE",
"570 155 CURVE SMOOTH",
"439 155 OFFCURVE",
"215 140 OFFCURVE",
"100 119 CURVE",
"129 -25 LINE",
"226 -13 OFFCURVE",
"421 0 OFFCURVE",
"600 0 CURVE SMOOTH",
"901 0 OFFCURVE",
"1202 -48 OFFCURVE",
"1523 -159 CURVE SMOOTH",
"1844 -270 OFFCURVE",
"2070 -383 OFFCURVE",
"2502 -687 CURVE SMOOTH",
"2618 -769 LINE"
);
}
);
width = 1935;
}
);
note = g19;
},
{
glyphname = g20;
lastChange = "2016-11-30 01:18:20 +0000";
layers = (
{
layerId = "1C6E6581-F718-4B48-B828-7898AD953AFB";
paths = (
{
closed = 1;
nodes = (
"1948 -648 LINE",
"1708 -491 OFFCURVE",
"1403 -225 OFFCURVE",
"1170 8 CURVE",
"1170 155 LINE",
"1027 155 LINE",
"790 407 OFFCURVE",
"518 731 OFFCURVE",
"253 1098 CURVE",
"110 1015 LINE",
"453 536 OFFCURVE",
"789 149 OFFCURVE",
"1101 -118 CURVE",
"1096 -125 LINE",
"696 92 OFFCURVE",
"416 155 OFFCURVE",
"0 155 CURVE SMOOTH",
"-44 155 OFFCURVE",
"-80 125 OFFCURVE",
"-80 77 CURVE SMOOTH",
"-80 29 OFFCURVE",
"-44 0 OFFCURVE",
"0 0 CURVE SMOOTH",
"308 0 OFFCURVE",
"577 -51 OFFCURVE",
"818 -142 CURVE SMOOTH",
"1059 -233 OFFCURVE",
"1268 -356 OFFCURVE",
"1536 -545 CURVE SMOOTH",
"1781 -718 LINE",
"1854 -769 LINE"
);
}
);
width = 1170;
}
);
note = g20;
},
{
glyphname = g21;
lastChange = "2016-11-30 01:18:20 +0000";
layers = (
{
layerId = "1C6E6581-F718-4B48-B828-7898AD953AFB";
paths = (
{
closed = 1;
nodes = (
"1948 -648 LINE",
"1795 -547 OFFCURVE",
"1617 -406 OFFCURVE",
"1414 -224 CURVE SMOOTH",
"1009 140 OFFCURVE",
"617 598 OFFCURVE",
"253 1098 CURVE",
"110 1015 LINE",
"453 536 OFFCURVE",
"789 149 OFFCURVE",
"1101 -118 CURVE",
"1096 -125 LINE",
"696 92 OFFCURVE",
"416 155 OFFCURVE",
"0 155 CURVE SMOOTH",
"-44 155 OFFCURVE",
"-80 125 OFFCURVE",
"-80 77 CURVE SMOOTH",
"-80 29 OFFCURVE",
"-44 0 OFFCURVE",
"0 0 CURVE SMOOTH",
"308 0 OFFCURVE",
"577 -51 OFFCURVE",
"818 -142 CURVE SMOOTH",
"1059 -233 OFFCURVE",
"1268 -356 OFFCURVE",
"1536 -545 CURVE SMOOTH",
"1781 -718 LINE",
"1854 -769 LINE"
);
}
);
width = 1470;
}
);
note = g21;
},
{
glyphname = g23;
lastChange = "2016-11-30 01:18:20 +0000";
layers = (
{
layerId = "1C6E6581-F718-4B48-B828-7898AD953AFB";
paths = (
{
closed = 1;
nodes = (
"2712 -648 LINE",
"2464 -485 OFFCURVE",
"2146 -205 OFFCURVE",
"1935 6 CURVE",
"1935 155 LINE",
"1791 155 LINE",
"1543 418 OFFCURVE",
"1278 739 OFFCURVE",
"1018 1098 CURVE",
"875 1015 LINE",
"1250 492 OFFCURVE",
"1674 6 OFFCURVE",
"1961 -199 CURVE",
"1956 -205 LINE",
"1797 -106 OFFCURVE",
"1648 -34 OFFCURVE",
"1510 11 CURVE SMOOTH",
"1234 102 OFFCURVE",
"966 155 OFFCURVE",
"570 155 CURVE SMOOTH",
"439 155 OFFCURVE",
"215 140 OFFCURVE",
"100 119 CURVE",
"129 -25 LINE",
"226 -13 OFFCURVE",
"421 0 OFFCURVE",
"600 0 CURVE SMOOTH",
"901 0 OFFCURVE",
"1202 -48 OFFCURVE",
"1523 -159 CURVE SMOOTH",
"1844 -270 OFFCURVE",
"2070 -383 OFFCURVE",
"2502 -687 CURVE SMOOTH",
"2618 -769 LINE"
);
},
{
closed = 1;
nodes = (
"1004 302 OFFCURVE",
"1043 342 OFFCURVE",
"1043 417 CURVE SMOOTH",
"1043 493 OFFCURVE",
"1005 533 OFFCURVE",
"937 533 CURVE SMOOTH",
"873 533 OFFCURVE",
"836 493 OFFCURVE",
"836 417 CURVE SMOOTH",
"836 334 OFFCURVE",
"878 302 OFFCURVE",
"937 302 CURVE SMOOTH"
);
}
);
width = 1935;
}
);
note = g23;
},
{
glyphname = g24;
lastChange = "2016-11-30 01:18:20 +0000";
layers = (
{
layerId = "1C6E6581-F718-4B48-B828-7898AD953AFB";
paths = (
{
closed = 1;
nodes = (
"1948 -648 LINE",
"1708 -491 OFFCURVE",
"1403 -225 OFFCURVE",
"1170 8 CURVE",
"1170 155 LINE",
"1027 155 LINE",
"790 407 OFFCURVE",
"518 731 OFFCURVE",
"253 1098 CURVE",
"110 1015 LINE",
"453 536 OFFCURVE",
"789 149 OFFCURVE",
"1101 -118 CURVE",
"1096 -125 LINE",
"696 92 OFFCURVE",
"416 155 OFFCURVE",
"0 155 CURVE SMOOTH",
"-44 155 OFFCURVE",
"-80 125 OFFCURVE",
"-80 77 CURVE SMOOTH",
"-80 29 OFFCURVE",
"-44 0 OFFCURVE",
"0 0 CURVE SMOOTH",
"308 0 OFFCURVE",
"577 -51 OFFCURVE",
"818 -142 CURVE SMOOTH",
"1059 -233 OFFCURVE",
"1268 -356 OFFCURVE",
"1536 -545 CURVE SMOOTH",
"1781 -718 LINE",
"1854 -769 LINE"
);
},
{
closed = 1;
nodes = (
"238 302 OFFCURVE",
"277 342 OFFCURVE",
"277 417 CURVE SMOOTH",
"277 493 OFFCURVE",
"239 533 OFFCURVE",
"171 533 CURVE SMOOTH",
"107 533 OFFCURVE",
"70 493 OFFCURVE",
"70 417 CURVE SMOOTH",
"70 334 OFFCURVE",
"112 302 OFFCURVE",
"171 302 CURVE SMOOTH"
);
}
);
width = 1170;
}
);
note = g24;
},
{
glyphname = g25;
lastChange = "2016-11-30 01:18:20 +0000";
layers = (
{
layerId = "1C6E6581-F718-4B48-B828-7898AD953AFB";
paths = (
{
closed = 1;
nodes = (
"1948 -648 LINE",
"1795 -547 OFFCURVE",
"1617 -406 OFFCURVE",
"1414 -224 CURVE SMOOTH",
"1009 140 OFFCURVE",
"617 598 OFFCURVE",
"253 1098 CURVE",
"110 1015 LINE",
"453 536 OFFCURVE",
"789 149 OFFCURVE",
"1101 -118 CURVE",
"1096 -125 LINE",
"696 92 OFFCURVE",
"416 155 OFFCURVE",
"0 155 CURVE SMOOTH",
"-44 155 OFFCURVE",
"-80 125 OFFCURVE",
"-80 77 CURVE SMOOTH",
"-80 29 OFFCURVE",
"-44 0 OFFCURVE",
"0 0 CURVE SMOOTH",
"308 0 OFFCURVE",
"577 -51 OFFCURVE",
"818 -142 CURVE SMOOTH",
"1059 -233 OFFCURVE",
"1268 -356 OFFCURVE",
"1536 -545 CURVE SMOOTH",
"1781 -718 LINE",
"1854 -769 LINE"
);
},
{
closed = 1;
nodes = (
"238 302 OFFCURVE",
"277 342 OFFCURVE",
"277 417 CURVE SMOOTH",
"277 493 OFFCURVE",
"239 533 OFFCURVE",
"171 533 CURVE SMOOTH",
"107 533 OFFCURVE",
"70 493 OFFCURVE",
"70 417 CURVE SMOOTH",
"70 334 OFFCURVE",
"112 302 OFFCURVE",
"171 302 CURVE SMOOTH"
);
}
);
width = 1470;
}
);
note = g25;
},
{
glyphname = g27;
lastChange = "2016-11-30 01:18:20 +0000";
layers = (
{
layerId = "1C6E6581-F718-4B48-B828-7898AD953AFB";
paths = (
{
closed = 1;
nodes = (
"962 -36 LINE",
"954 37 LINE",
"962 37 LINE",
"987 12 OFFCURVE",
"1031 0 OFFCURVE",
"1080 0 CURVE SMOOTH",
"1088 0 LINE",
"1088 155 LINE",
"1063 155 LINE SMOOTH",
"988 155 OFFCURVE",
"941 177 OFFCURVE",
"933 228 CURVE SMOOTH",
"911 380 LINE SMOOTH",
"882 581 OFFCURVE",
"857 714 OFFCURVE",
"837 777 CURVE SMOOTH",
"816 840 OFFCURVE",
"762 872 OFFCURVE",
"675 872 CURVE SMOOTH",
"90 872 LINE",
"90 722 LINE",
"698 722 LINE",
"730 623 OFFCURVE",
"792 189 OFFCURVE",
"816 -36 CURVE"
);
},
{
closed = 1;
nodes = (
"489 214 OFFCURVE",
"528 254 OFFCURVE",
"528 329 CURVE SMOOTH",
"528 405 OFFCURVE",
"490 445 OFFCURVE",
"422 445 CURVE SMOOTH",
"358 445 OFFCURVE",
"321 405 OFFCURVE",
"321 329 CURVE SMOOTH",
"321 246 OFFCURVE",
"363 214 OFFCURVE",
"422 214 CURVE SMOOTH"
);
}
);
width = 1088;
}
);
note = g27;
},
{
glyphname = uni0716;
lastChange = "2016-11-30 01:18:20 +0000";
layers = (
{
layerId = "1C6E6581-F718-4B48-B828-7898AD953AFB";
paths = (
{
closed = 1;
nodes = (
"964 -36 LINE",
"937 233 OFFCURVE",
"876 633 OFFCURVE",
"840 770 CURVE SMOOTH",
"821 838 OFFCURVE",
"766 872 OFFCURVE",
"675 872 CURVE SMOOTH",
"90 872 LINE",
"90 722 LINE",
"698 722 LINE",
"730 623 OFFCURVE",
"792 189 OFFCURVE",
"816 -36 CURVE"
);
}
);
width = 1104;
}
);
note = uni0716;
unicode = 0716;
},
{
glyphname = g29;
lastChange = "2016-11-30 01:18:20 +0000";
layers = (
{
layerId = "1C6E6581-F718-4B48-B828-7898AD953AFB";
paths = (
{
closed = 1;
nodes = (
"962 -36 LINE",
"954 37 LINE",
"962 37 LINE",
"987 12 OFFCURVE",
"1031 0 OFFCURVE",
"1080 0 CURVE SMOOTH",
"1088 0 LINE",
"1088 155 LINE",
"1063 155 LINE SMOOTH",
"988 155 OFFCURVE",
"941 177 OFFCURVE",
"933 228 CURVE SMOOTH",
"911 380 LINE SMOOTH",
"882 581 OFFCURVE",
"857 714 OFFCURVE",
"837 777 CURVE SMOOTH",
"816 840 OFFCURVE",
"762 872 OFFCURVE",
"675 872 CURVE SMOOTH",
"90 872 LINE",
"90 722 LINE",
"698 722 LINE",
"730 623 OFFCURVE",
"792 189 OFFCURVE",
"816 -36 CURVE"
);
}
);
width = 1088;
}
);
note = g29;
},
{
glyphname = uni0717;
lastChange = "2016-11-30 01:18:20 +0000";
layers = (
{
layerId = "1C6E6581-F718-4B48-B828-7898AD953AFB";
paths = (
{
closed = 1;
nodes = (
"540 117 LINE",
"360 190 OFFCURVE",
"290 287 OFFCURVE",
"290 443 CURVE SMOOTH",
"290 642 OFFCURVE",
"411 747 OFFCURVE",
"683 747 CURVE SMOOTH",
"791 747 OFFCURVE",
"877 737 OFFCURVE",
"938 724 CURVE",
"727 10 LINE",
"872 -13 LINE",
"1095 723 LINE",
"1152 732 OFFCURVE",
"1229 742 OFFCURVE",
"1317 742 CURVE SMOOTH",
"1532 742 OFFCURVE",
"1613 643 OFFCURVE",
"1613 406 CURVE SMOOTH",
"1613 206 OFFCURVE",
"1524 155 OFFCURVE",
"1343 155 CURVE SMOOTH",
"1322 155 LINE",
"1317 4 LINE",
"1327 2 OFFCURVE",
"1337 1 OFFCURVE",
"1347 1 CURVE",
"1367 0 LINE",
"1624 0 OFFCURVE",
"1764 128 OFFCURVE",
"1764 400 CURVE SMOOTH",
"1764 731 OFFCURVE",
"1617 892 OFFCURVE",
"1329 892 CURVE SMOOTH",
"1288 892 OFFCURVE",
"1242 889 OFFCURVE",
"1191 882 CURVE SMOOTH",
"1140 875 OFFCURVE",
"1083 872 OFFCURVE",
"1020 872 CURVE SMOOTH",
"974 872 OFFCURVE",
"916 876 OFFCURVE",
"846 884 CURVE SMOOTH",
"775 891 OFFCURVE",
"706 895 OFFCURVE",
"639 895 CURVE SMOOTH",
"331 895 OFFCURVE",
"140 729 OFFCURVE",
"140 461 CURVE SMOOTH",
"140 221 OFFCURVE",
"244 71 OFFCURVE",
"473 -16 CURVE"
);
}
);
width = 1904;
}
);
note = uni0717;
unicode = 0717;
},
{
glyphname = g31;
lastChange = "2016-11-30 01:18:20 +0000";
layers = (
{
layerId = "1C6E6581-F718-4B48-B828-7898AD953AFB";
paths = (
{
closed = 1;
nodes = (
"540 117 LINE",
"360 190 OFFCURVE",
"290 287 OFFCURVE",
"290 443 CURVE SMOOTH",
"290 642 OFFCURVE",
"411 747 OFFCURVE",
"683 747 CURVE SMOOTH",
"791 747 OFFCURVE",
"877 737 OFFCURVE",
"938 724 CURVE",
"727 10 LINE",
"872 -13 LINE",
"1095 723 LINE",
"1152 732 OFFCURVE",
"1229 742 OFFCURVE",
"1317 742 CURVE SMOOTH",
"1532 742 OFFCURVE",
"1613 643 OFFCURVE",
"1613 406 CURVE SMOOTH",
"1613 206 OFFCURVE",
"1524 155 OFFCURVE",
"1343 155 CURVE SMOOTH",
"1322 155 LINE",
"1317 4 LINE",
"1327 2 OFFCURVE",
"1337 1 OFFCURVE",
"1347 1 CURVE",
"1367 0 LINE",
"1502 0 OFFCURVE",
"1589 37 OFFCURVE",
"1649 89 CURVE",
"1659 89 LINE",
"1723 14 OFFCURVE",
"1796 0 OFFCURVE",
"1911 0 CURVE SMOOTH",
"1929 0 LINE",
"1929 155 LINE",
"1911 155 LINE SMOOTH",
"1854 155 OFFCURVE",
"1812 159 OFFCURVE",
"1785 168 CURVE SMOOTH",
"1758 177 OFFCURVE",
"1740 190 OFFCURVE",
"1733 208 CURVE",
"1757 272 OFFCURVE",
"1764 340 OFFCURVE",
"1764 400 CURVE SMOOTH",
"1764 731 OFFCURVE",
"1617 892 OFFCURVE",
"1329 892 CURVE SMOOTH",
"1288 892 OFFCURVE",
"1242 889 OFFCURVE",
"1191 882 CURVE SMOOTH",
"1140 875 OFFCURVE",
"1083 872 OFFCURVE",
"1020 872 CURVE SMOOTH",
"974 872 OFFCURVE",
"916 876 OFFCURVE",
"846 884 CURVE SMOOTH",
"775 891 OFFCURVE",
"706 895 OFFCURVE",
"639 895 CURVE SMOOTH",
"331 895 OFFCURVE",
"140 729 OFFCURVE",
"140 461 CURVE SMOOTH",
"140 221 OFFCURVE",
"244 71 OFFCURVE",
"473 -16 CURVE"
);
}
);
width = 1929;
}
);
note = g31;
},
{
glyphname = uni0718;
lastChange = "2016-11-30 01:18:20 +0000";
layers = (
{
layerId = "1C6E6581-F718-4B48-B828-7898AD953AFB";
paths = (
{
closed = 1;
nodes = (
"668 -19 OFFCURVE",
"743 -11 OFFCURVE",
"811 18 CURVE",
"769 151 LINE",
"712 135 OFFCURVE",
"666 132 OFFCURVE",
"599 132 CURVE SMOOTH",
"402 132 OFFCURVE",
"290 226 OFFCURVE",
"290 403 CURVE SMOOTH",
"290 587 OFFCURVE",
"425 742 OFFCURVE",
"608 742 CURVE SMOOTH",
"684 742 OFFCURVE",
"742 721 OFFCURVE",
"781 680 CURVE SMOOTH",
"859 596 OFFCURVE",
"910 340 OFFCURVE",
"949 99 CURVE SMOOTH",
"968 -18 LINE",
"1116 -18 LINE",
"1063 361 OFFCURVE",
"1003 607 OFFCURVE",
"938 721 CURVE SMOOTH",
"872 835 OFFCURVE",
"760 892 OFFCURVE",
"602 892 CURVE SMOOTH",
"351 892 OFFCURVE",
"140 657 OFFCURVE",
"140 400 CURVE SMOOTH",
"140 139 OFFCURVE",
"307 -19 OFFCURVE",
"580 -19 CURVE SMOOTH"
);
}
);
width = 1250;
}
);
note = uni0718;
unicode = 0718;
},
{
glyphname = g33;
lastChange = "2016-11-30 01:18:20 +0000";
layers = (
{
layerId = "1C6E6581-F718-4B48-B828-7898AD953AFB";
paths = (
{
closed = 1;
nodes = (
"668 -19 OFFCURVE",
"743 -11 OFFCURVE",
"811 18 CURVE",
"769 151 LINE",
"712 135 OFFCURVE",
"666 132 OFFCURVE",
"599 132 CURVE SMOOTH",
"402 132 OFFCURVE",
"290 226 OFFCURVE",
"290 403 CURVE SMOOTH",
"290 587 OFFCURVE",
"425 742 OFFCURVE",
"608 742 CURVE SMOOTH",
"684 742 OFFCURVE",
"742 721 OFFCURVE",
"781 680 CURVE SMOOTH",
"859 596 OFFCURVE",
"910 340 OFFCURVE",
"949 99 CURVE SMOOTH",
"968 -18 LINE",
"1111 -18 LINE",
"1102 48 LINE",
"1110 48 LINE",
"1138 16 OFFCURVE",
"1169 0 OFFCURVE",
"1225 0 CURVE",
"1225 155 LINE",
"1150 155 OFFCURVE",
"1084 184 OFFCURVE",
"1078 230 CURVE SMOOTH",
"1075 253 OFFCURVE",
"1066 295 OFFCURVE",
"1052 358 CURVE SMOOTH",
"1027 471 LINE SMOOTH",
"952 792 OFFCURVE",
"834 892 OFFCURVE",
"602 892 CURVE SMOOTH",
"351 892 OFFCURVE",
"140 657 OFFCURVE",
"140 400 CURVE SMOOTH",
"140 139 OFFCURVE",
"307 -19 OFFCURVE",
"580 -19 CURVE SMOOTH"
);
}
);
width = 1225;
}
);
note = g33;
},
{
glyphname = uni0719;
lastChange = "2016-11-30 01:18:20 +0000";
layers = (
{
layerId = "1C6E6581-F718-4B48-B828-7898AD953AFB";
paths = (
{
closed = 1;
nodes = (
"429 -76 LINE",
"417 53 OFFCURVE",
"387 272 OFFCURVE",
"363 425 CURVE SMOOTH",
"311 746 LINE",
"288 872 LINE",
"140 854 LINE",
"161 735 LINE SMOOTH",
"208 467 OFFCURVE",
"258 132 OFFCURVE",
"281 -76 CURVE"
);
}
);
width = 564;
}
);
note = uni0719;
unicode = 0719;
},
{
glyphname = g35;
lastChange = "2016-11-30 01:18:20 +0000";
layers = (
{
layerId = "1C6E6581-F718-4B48-B828-7898AD953AFB";
paths = (
{
closed = 1;
nodes = (
"425 -86 LINE",
"422 -47 OFFCURVE",
"419 -6 OFFCURVE",
"412 37 CURVE",
"421 37 LINE",
"446 12 OFFCURVE",
"490 0 OFFCURVE",
"539 0 CURVE SMOOTH",
"567 0 LINE",
"567 155 LINE",
"522 155 LINE SMOOTH",
"441 155 OFFCURVE",
"397 180 OFFCURVE",
"392 231 CURVE SMOOTH",
"386 281 OFFCURVE",
"368 399 OFFCURVE",
"337 584 CURVE SMOOTH",
"311 742 LINE",
"288 872 LINE",
"140 854 LINE",
"161 735 LINE SMOOTH",
"197 527 OFFCURVE",
"258 141 OFFCURVE",
"282 -86 CURVE"
);
}
);
width = 567;
}
);
note = g35;
},
{
glyphname = uni071A;
lastChange = "2016-11-30 01:18:20 +0000";
layers = (
{
layerId = "1C6E6581-F718-4B48-B828-7898AD953AFB";
paths = (
{
closed = 1;
nodes = (
"601 0 OFFCURVE",
"694 55 OFFCURVE",
"741 128 CURVE",
"794 53 OFFCURVE",
"897 0 OFFCURVE",
"1002 0 CURVE SMOOTH",
"1178 0 OFFCURVE",
"1296 119 OFFCURVE",
"1296 307 CURVE SMOOTH",
"1296 446 OFFCURVE",
"1260 600 OFFCURVE",
"1233 664 CURVE SMOOTH",
"1220 696 OFFCURVE",
"1198 712 OFFCURVE",
"1167 712 CURVE SMOOTH",
"1126 712 OFFCURVE",
"1088 691 OFFCURVE",
"1088 635 CURVE SMOOTH",
"1088 552 OFFCURVE",
"1125 375 OFFCURVE",
"1168 243 CURVE",
"1151 183 OFFCURVE",
"1096 155 OFFCURVE",
"1007 155 CURVE SMOOTH",
"915 155 OFFCURVE",
"837 202 OFFCURVE",
"798 286 CURVE",
"798 389 OFFCURVE",
"765 588 OFFCURVE",
"740 657 CURVE SMOOTH",
"727 692 OFFCURVE",
"706 709 OFFCURVE",
"677 709 CURVE SMOOTH",
"629 709 OFFCURVE",
"592 687 OFFCURVE",
"592 623 CURVE SMOOTH",
"592 523 OFFCURVE",
"622 361 OFFCURVE",
"666 252 CURVE",
"645 189 OFFCURVE",
"563 155 OFFCURVE",
"454 155 CURVE SMOOTH",
"333 155 OFFCURVE",
"245 194 OFFCURVE",
"192 270 CURVE",
"100 182 LINE",
"141 79 OFFCURVE",
"288 0 OFFCURVE",
"449 0 CURVE SMOOTH"
);
}
);
width = 1436;
}
);
note = uni071A;
unicode = 071A;
},
{
glyphname = g37;
lastChange = "2016-11-30 01:18:20 +0000";
layers = (
{
layerId = "1C6E6581-F718-4B48-B828-7898AD953AFB";
paths = (
{
closed = 1;
nodes = (
"600 0 OFFCURVE",
"693 54 OFFCURVE",
"740 127 CURVE",
"792 54 OFFCURVE",
"892 0 OFFCURVE",
"1000 0 CURVE SMOOTH",
"1103 0 OFFCURVE",
"1186 40 OFFCURVE",
"1238 112 CURVE",
"1290 48 OFFCURVE",
"1373 0 OFFCURVE",
"1489 0 CURVE",
"1489 155 LINE",
"1397 155 OFFCURVE",
"1317 209 OFFCURVE",
"1293 284 CURVE",
"1294 288 OFFCURVE",
"1294 294 OFFCURVE",
"1294 301 CURVE SMOOTH",
"1294 448 OFFCURVE",
"1258 600 OFFCURVE",
"1231 664 CURVE SMOOTH",
"1218 696 OFFCURVE",
"1196 712 OFFCURVE",
"1165 712 CURVE SMOOTH",
"1124 712 OFFCURVE",
"1086 691 OFFCURVE",
"1086 635 CURVE SMOOTH",
"1086 536 OFFCURVE",
"1122 347 OFFCURVE",
"1165 238 CURVE",
"1145 175 OFFCURVE",
"1081 155 OFFCURVE",
"1005 155 CURVE SMOOTH",
"913 155 OFFCURVE",
"835 202 OFFCURVE",
"796 286 CURVE",
"796 389 OFFCURVE",
"763 588 OFFCURVE",
"738 657 CURVE SMOOTH",
"725 692 OFFCURVE",
"704 709 OFFCURVE",
"675 709 CURVE SMOOTH",
"627 709 OFFCURVE",
"590 687 OFFCURVE",
"590 623 CURVE SMOOTH",
"590 530 OFFCURVE",
"622 355 OFFCURVE",
"665 250 CURVE",
"642 189 OFFCURVE",
"558 155 OFFCURVE",
"454 155 CURVE SMOOTH",
"333 155 OFFCURVE",
"245 194 OFFCURVE",
"192 270 CURVE",
"100 182 LINE",
"141 79 OFFCURVE",
"288 0 OFFCURVE",
"449 0 CURVE SMOOTH"
);
}
);
width = 1489;
}
);
note = g37;
},
{
glyphname = g38;
lastChange = "2016-11-30 01:18:20 +0000";
layers = (
{
layerId = "1C6E6581-F718-4B48-B828-7898AD953AFB";
paths = (
{
closed = 1;
nodes = (
"35 0 LINE SMOOTH",
"188 0 OFFCURVE",
"294 41 OFFCURVE",
"359 125 CURVE",
"411 52 OFFCURVE",
"513 0 OFFCURVE",
"618 0 CURVE SMOOTH",
"721 0 OFFCURVE",
"804 40 OFFCURVE",
"856 112 CURVE",
"908 48 OFFCURVE",
"991 0 OFFCURVE",
"1107 0 CURVE",
"1107 155 LINE",
"1015 155 OFFCURVE",
"935 209 OFFCURVE",
"911 284 CURVE",
"912 288 OFFCURVE",
"912 294 OFFCURVE",
"912 301 CURVE SMOOTH",
"912 448 OFFCURVE",
"876 600 OFFCURVE",
"849 664 CURVE SMOOTH",
"836 696 OFFCURVE",
"814 712 OFFCURVE",
"783 712 CURVE SMOOTH",
"742 712 OFFCURVE",
"704 691 OFFCURVE",
"704 635 CURVE SMOOTH",
"704 536 OFFCURVE",
"740 347 OFFCURVE",
"783 238 CURVE",
"763 175 OFFCURVE",
"699 155 OFFCURVE",
"623 155 CURVE SMOOTH",
"531 155 OFFCURVE",
"453 202 OFFCURVE",
"414 286 CURVE",
"414 389 OFFCURVE",
"381 588 OFFCURVE",
"356 657 CURVE SMOOTH",
"343 692 OFFCURVE",
"322 709 OFFCURVE",
"293 709 CURVE SMOOTH",
"245 709 OFFCURVE",
"208 687 OFFCURVE",
"208 623 CURVE SMOOTH",
"208 530 OFFCURVE",
"239 360 OFFCURVE",
"283 251 CURVE",
"259 188 OFFCURVE",
"165 155 OFFCURVE",
"52 155 CURVE SMOOTH",
"0 155 LINE SMOOTH",
"-44 155 OFFCURVE",
"-80 125 OFFCURVE",
"-80 77 CURVE SMOOTH",
"-80 29 OFFCURVE",
"-44 0 OFFCURVE",
"0 0 CURVE SMOOTH"
);
}
);
width = 1107;
}
);
note = g38;
},
{
glyphname = g39;
lastChange = "2016-11-30 01:18:20 +0000";
layers = (
{
layerId = "1C6E6581-F718-4B48-B828-7898AD953AFB";
paths = (
{
closed = 1;
nodes = (
"35 0 LINE SMOOTH",
"188 0 OFFCURVE",
"294 41 OFFCURVE",
"359 125 CURVE",
"411 52 OFFCURVE",
"513 0 OFFCURVE",
"618 0 CURVE SMOOTH",
"794 0 OFFCURVE",
"912 119 OFFCURVE",
"912 307 CURVE SMOOTH",
"912 446 OFFCURVE",
"876 600 OFFCURVE",
"849 664 CURVE SMOOTH",
"836 696 OFFCURVE",
"814 712 OFFCURVE",
"783 712 CURVE SMOOTH",
"742 712 OFFCURVE",
"704 691 OFFCURVE",
"704 635 CURVE SMOOTH",
"704 552 OFFCURVE",
"741 375 OFFCURVE",
"784 243 CURVE",
"767 183 OFFCURVE",
"712 155 OFFCURVE",
"623 155 CURVE SMOOTH",
"531 155 OFFCURVE",
"453 202 OFFCURVE",
"414 286 CURVE",
"414 389 OFFCURVE",
"381 588 OFFCURVE",
"356 657 CURVE SMOOTH",
"343 692 OFFCURVE",
"322 709 OFFCURVE",
"293 709 CURVE SMOOTH",
"245 709 OFFCURVE",
"208 687 OFFCURVE",
"208 623 CURVE SMOOTH",
"208 530 OFFCURVE",
"239 360 OFFCURVE",
"283 251 CURVE",
"259 188 OFFCURVE",
"165 155 OFFCURVE",
"52 155 CURVE SMOOTH",
"0 155 LINE SMOOTH",
"-44 155 OFFCURVE",
"-80 125 OFFCURVE",
"-80 77 CURVE SMOOTH",
"-80 29 OFFCURVE",
"-44 0 OFFCURVE",
"0 0 CURVE SMOOTH"
);
}
);
width = 1052;
}
);
note = g39;
},
{
glyphname = uni071B;
lastChange = "2016-11-30 01:18:20 +0000";
layers = (
{
layerId = "1C6E6581-F718-4B48-B828-7898AD953AFB";
paths = (
{
closed = 1;
nodes = (
"1535 -723 OFFCURVE",
"1569 -712 OFFCURVE",
"1599 -690 CURVE SMOOTH",
"1629 -668 OFFCURVE",
"1676 -606 OFFCURVE",
"1740 -503 CURVE SMOOTH",
"1867 -298 OFFCURVE",
"1945 -60 OFFCURVE",
"1945 65 CURVE SMOOTH",
"1945 124 OFFCURVE",
"1901 155 OFFCURVE",
"1830 155 CURVE SMOOTH",
"1218 155 LINE",
"705 1475 LINE",
"559 1420 LINE",
"1051 155 LINE",
"548 155 LINE SMOOTH",
"345 155 OFFCURVE",
"272 175 OFFCURVE",
"207 268 CURVE",
"100 174 LINE",
"156 49 OFFCURVE",
"272 0 OFFCURVE",
"472 0 CURVE SMOOTH",
"1098 0 LINE",
"1291 -487 LINE SMOOTH",
"1350 -636 OFFCURVE",
"1407 -723 OFFCURVE",
"1498 -723 CURVE SMOOTH"
);
},
{
closed = 1;
nodes = (
"1495 -565 OFFCURVE",
"1459 -493 OFFCURVE",
"1438 -438 CURVE SMOOTH",
"1265 0 LINE",
"1795 0 LINE",
"1774 -143 OFFCURVE",
"1605 -489 OFFCURVE",
"1522 -572 CURVE",
"1514 -572 LINE"
);
}
);
width = 2045;
}
);
note = uni071B;
unicode = 071B;
},
{
glyphname = g41;
lastChange = "2016-11-30 01:18:20 +0000";
layers = (
{
layerId = "1C6E6581-F718-4B48-B828-7898AD953AFB";
paths = (
{
closed = 1;
nodes = (
"1535 -723 OFFCURVE",
"1569 -712 OFFCURVE",
"1599 -690 CURVE SMOOTH",
"1629 -668 OFFCURVE",
"1676 -606 OFFCURVE",
"1740 -503 CURVE SMOOTH",
"1867 -298 OFFCURVE",
"1945 -60 OFFCURVE",
"1945 65 CURVE SMOOTH",
"1945 138 OFFCURVE",
"1940 155 OFFCURVE",
"1889 155 CURVE SMOOTH",
"1218 155 LINE",
"705 1475 LINE",
"559 1420 LINE",
"1051 155 LINE",
"548 155 LINE SMOOTH",
"345 155 OFFCURVE",
"272 175 OFFCURVE",
"207 268 CURVE",
"100 174 LINE",
"156 49 OFFCURVE",
"272 0 OFFCURVE",
"472 0 CURVE SMOOTH",
"1098 0 LINE",
"1291 -487 LINE SMOOTH",
"1350 -636 OFFCURVE",
"1407 -723 OFFCURVE",
"1498 -723 CURVE SMOOTH"
);
},
{
closed = 1;
nodes = (
"1495 -565 OFFCURVE",
"1459 -493 OFFCURVE",
"1438 -438 CURVE SMOOTH",
"1265 0 LINE",
"1795 0 LINE",
"1774 -143 OFFCURVE",
"1605 -489 OFFCURVE",
"1522 -572 CURVE",
"1514 -572 LINE"
);
}
);
width = 1889;
}
);
note = g41;
},
{
glyphname = g42;
lastChange = "2016-11-30 01:18:20 +0000";
layers = (
{
layerId = "1C6E6581-F718-4B48-B828-7898AD953AFB";
paths = (
{
closed = 1;
nodes = (
"898 -723 OFFCURVE",
"932 -712 OFFCURVE",
"962 -690 CURVE SMOOTH",
"992 -668 OFFCURVE",
"1039 -606 OFFCURVE",
"1103 -503 CURVE SMOOTH",
"1230 -298 OFFCURVE",
"1308 -60 OFFCURVE",
"1308 65 CURVE SMOOTH",
"1308 140 OFFCURVE",
"1303 155 OFFCURVE",
"1252 155 CURVE SMOOTH",
"581 155 LINE",
"68 1475 LINE",
"-78 1420 LINE",
"414 155 LINE",
"0 155 LINE SMOOTH",
"-44 155 OFFCURVE",
"-80 125 OFFCURVE",
"-80 77 CURVE SMOOTH",
"-80 29 OFFCURVE",
"-44 0 OFFCURVE",
"0 0 CURVE SMOOTH",
"461 0 LINE",
"654 -487 LINE SMOOTH",
"713 -636 OFFCURVE",
"770 -723 OFFCURVE",
"861 -723 CURVE SMOOTH"
);
},
{
closed = 1;
nodes = (
"858 -565 OFFCURVE",
"822 -493 OFFCURVE",
"801 -438 CURVE SMOOTH",
"628 0 LINE",
"1158 0 LINE",
"1137 -143 OFFCURVE",
"968 -489 OFFCURVE",
"885 -572 CURVE",
"877 -572 LINE"
);
}
);
width = 1252;
}
);
note = g42;
},
{
glyphname = g43;
lastChange = "2016-11-30 01:18:20 +0000";
layers = (
{
layerId = "1C6E6581-F718-4B48-B828-7898AD953AFB";
paths = (
{
closed = 1;
nodes = (
"898 -723 OFFCURVE",
"932 -712 OFFCURVE",
"962 -690 CURVE SMOOTH",
"992 -668 OFFCURVE",
"1039 -606 OFFCURVE",
"1103 -503 CURVE SMOOTH",
"1230 -298 OFFCURVE",
"1308 -60 OFFCURVE",
"1308 65 CURVE SMOOTH",
"1308 124 OFFCURVE",
"1264 155 OFFCURVE",
"1193 155 CURVE SMOOTH",
"581 155 LINE",
"68 1475 LINE",
"-78 1420 LINE",
"414 155 LINE",
"0 155 LINE SMOOTH",
"-44 155 OFFCURVE",
"-80 125 OFFCURVE",
"-80 77 CURVE SMOOTH",
"-80 29 OFFCURVE",
"-44 0 OFFCURVE",
"0 0 CURVE SMOOTH",
"461 0 LINE",
"654 -487 LINE SMOOTH",
"713 -636 OFFCURVE",
"770 -723 OFFCURVE",
"861 -723 CURVE SMOOTH"
);
},
{
closed = 1;
nodes = (
"858 -565 OFFCURVE",
"822 -493 OFFCURVE",
"801 -438 CURVE SMOOTH",
"628 0 LINE",
"1158 0 LINE",
"1137 -143 OFFCURVE",
"968 -489 OFFCURVE",
"885 -572 CURVE",
"877 -572 LINE"
);
}
);
width = 1408;
}
);
note = g43;
},
{
glyphname = g45;
lastChange = "2016-11-30 01:18:20 +0000";
layers = (
{
layerId = "1C6E6581-F718-4B48-B828-7898AD953AFB";
paths = (
{
closed = 1;
nodes = (
"1535 -723 OFFCURVE",
"1569 -712 OFFCURVE",
"1599 -690 CURVE SMOOTH",
"1629 -668 OFFCURVE",
"1676 -606 OFFCURVE",
"1740 -503 CURVE SMOOTH",
"1867 -298 OFFCURVE",
"1945 -60 OFFCURVE",
"1945 65 CURVE SMOOTH",
"1945 138 OFFCURVE",
"1940 155 OFFCURVE",
"1889 155 CURVE SMOOTH",
"1218 155 LINE",
"705 1475 LINE",
"559 1420 LINE",
"1051 155 LINE",
"548 155 LINE SMOOTH",
"345 155 OFFCURVE",
"272 175 OFFCURVE",
"207 268 CURVE",
"100 174 LINE",
"156 49 OFFCURVE",
"272 0 OFFCURVE",
"472 0 CURVE SMOOTH",
"1098 0 LINE",
"1291 -487 LINE SMOOTH",
"1350 -636 OFFCURVE",
"1407 -723 OFFCURVE",
"1498 -723 CURVE SMOOTH"
);
},
{
closed = 1;
nodes = (
"1495 -565 OFFCURVE",
"1459 -493 OFFCURVE",
"1438 -438 CURVE SMOOTH",
"1265 0 LINE",
"1795 0 LINE",
"1774 -143 OFFCURVE",
"1605 -489 OFFCURVE",
"1522 -572 CURVE",
"1514 -572 LINE"
);
},
{
closed = 1;
nodes = (
"1587 -306 OFFCURVE",
"1628 -277 OFFCURVE",
"1628 -209 CURVE SMOOTH",
"1628 -142 OFFCURVE",
"1587 -113 OFFCURVE",
"1540 -113 CURVE SMOOTH",
"1489 -113 OFFCURVE",
"1451 -141 OFFCURVE",
"1451 -209 CURVE SMOOTH",
"1451 -277 OFFCURVE",
"1489 -306 OFFCURVE",
"1540 -306 CURVE SMOOTH"
);
}
);
width = 1889;
}
);
note = g45;
},
{
glyphname = g46;
lastChange = "2016-11-30 01:18:20 +0000";
layers = (
{
layerId = "1C6E6581-F718-4B48-B828-7898AD953AFB";
paths = (
{
closed = 1;
nodes = (
"898 -723 OFFCURVE",
"932 -712 OFFCURVE",
"962 -690 CURVE SMOOTH",
"992 -668 OFFCURVE",
"1039 -606 OFFCURVE",
"1103 -503 CURVE SMOOTH",
"1230 -298 OFFCURVE",
"1308 -60 OFFCURVE",
"1308 65 CURVE SMOOTH",
"1308 140 OFFCURVE",
"1303 155 OFFCURVE",
"1252 155 CURVE SMOOTH",
"581 155 LINE",
"68 1475 LINE",
"-78 1420 LINE",
"414 155 LINE",
"0 155 LINE SMOOTH",
"-44 155 OFFCURVE",
"-80 125 OFFCURVE",
"-80 77 CURVE SMOOTH",
"-80 29 OFFCURVE",
"-44 0 OFFCURVE",
"0 0 CURVE SMOOTH",
"461 0 LINE",
"654 -487 LINE SMOOTH",
"713 -636 OFFCURVE",
"770 -723 OFFCURVE",
"861 -723 CURVE SMOOTH"
);
},
{
closed = 1;
nodes = (
"858 -565 OFFCURVE",
"822 -493 OFFCURVE",
"801 -438 CURVE SMOOTH",
"628 0 LINE",
"1158 0 LINE",
"1137 -143 OFFCURVE",
"968 -489 OFFCURVE",
"885 -572 CURVE",
"877 -572 LINE"
);
},
{
closed = 1;
nodes = (
"950 -306 OFFCURVE",
"991 -277 OFFCURVE",
"991 -209 CURVE SMOOTH",
"991 -142 OFFCURVE",
"950 -113 OFFCURVE",
"903 -113 CURVE SMOOTH",
"852 -113 OFFCURVE",
"814 -141 OFFCURVE",
"814 -209 CURVE SMOOTH",
"814 -277 OFFCURVE",
"852 -306 OFFCURVE",
"903 -306 CURVE SMOOTH"
);
}
);
width = 1252;
}
);
note = g46;
},
{
glyphname = g47;
lastChange = "2016-11-30 01:18:20 +0000";
layers = (
{
layerId = "1C6E6581-F718-4B48-B828-7898AD953AFB";
paths = (
{
closed = 1;
nodes = (
"898 -723 OFFCURVE",
"932 -712 OFFCURVE",
"962 -690 CURVE SMOOTH",
"992 -668 OFFCURVE",
"1039 -606 OFFCURVE",
"1103 -503 CURVE SMOOTH",
"1230 -298 OFFCURVE",
"1308 -60 OFFCURVE",
"1308 65 CURVE SMOOTH",
"1308 124 OFFCURVE",
"1264 155 OFFCURVE",
"1193 155 CURVE SMOOTH",
"581 155 LINE",
"68 1475 LINE",
"-78 1420 LINE",
"414 155 LINE",
"0 155 LINE SMOOTH",
"-44 155 OFFCURVE",
"-80 125 OFFCURVE",
"-80 77 CURVE SMOOTH",
"-80 29 OFFCURVE",
"-44 0 OFFCURVE",
"0 0 CURVE SMOOTH",
"461 0 LINE",
"654 -487 LINE SMOOTH",
"713 -636 OFFCURVE",
"770 -723 OFFCURVE",
"861 -723 CURVE SMOOTH"
);
},
{
closed = 1;
nodes = (
"858 -565 OFFCURVE",
"822 -493 OFFCURVE",
"801 -438 CURVE SMOOTH",
"628 0 LINE",
"1158 0 LINE",
"1137 -143 OFFCURVE",
"968 -489 OFFCURVE",
"885 -572 CURVE",
"877 -572 LINE"
);
},
{
closed = 1;
nodes = (
"950 -306 OFFCURVE",
"991 -277 OFFCURVE",
"991 -209 CURVE SMOOTH",
"991 -142 OFFCURVE",
"950 -113 OFFCURVE",
"903 -113 CURVE SMOOTH",
"852 -113 OFFCURVE",
"814 -141 OFFCURVE",
"814 -209 CURVE SMOOTH",
"814 -277 OFFCURVE",
"852 -306 OFFCURVE",
"903 -306 CURVE SMOOTH"
);
}
);
width = 1408;
}
);
note = g47;
},
{
glyphname = uni071D;
lastChange = "2016-11-30 01:15:49 +0000";
layers = (
{
layerId = "1C6E6581-F718-4B48-B828-7898AD953AFB";
paths = (
{
closed = 1;
nodes = (
"284 -287 OFFCURVE",
"398 -101 OFFCURVE",
"398 68 CURVE SMOOTH",
"398 239 OFFCURVE",
"290 443 OFFCURVE",
"202 443 CURVE SMOOTH",
"161 443 OFFCURVE",
"120 409 OFFCURVE",
"120 366 CURVE SMOOTH",
"120 341 OFFCURVE",
"134 310 OFFCURVE",
"163 273 CURVE SMOOTH",
"219 198 OFFCURVE",
"267 93 OFFCURVE",
"267 61 CURVE SMOOTH",
"267 28 OFFCURVE",
"224 -57 OFFCURVE",
"169 -124 CURVE SMOOTH",
"142 -157 OFFCURVE",
"128 -187 OFFCURVE",
"128 -212 CURVE SMOOTH",
"128 -255 OFFCURVE",
"164 -287 OFFCURVE",
"204 -287 CURVE SMOOTH"
);
}
);
width = 498;
}
);
note = uni071D;
unicode = 071D;
},
{
glyphname = g49;
lastChange = "2016-11-30 01:18:20 +0000";
layers = (
{
layerId = "1C6E6581-F718-4B48-B828-7898AD953AFB";
paths = (
{
closed = 1;
nodes = (
"273 -287 OFFCURVE",
"368 -145 OFFCURVE",
"392 -2 CURVE",
"416 -1 OFFCURVE",
"440 0 OFFCURVE",
"464 0 CURVE SMOOTH",
"527 0 LINE",
"527 155 LINE",
"490 155 OFFCURVE",
"438 156 OFFCURVE",
"389 160 CURVE",
"361 303 OFFCURVE",
"274 443 OFFCURVE",
"202 443 CURVE SMOOTH",
"161 443 OFFCURVE",
"120 409 OFFCURVE",
"120 366 CURVE SMOOTH",
"120 341 OFFCURVE",
"134 310 OFFCURVE",
"163 273 CURVE SMOOTH",
"219 198 OFFCURVE",
"267 93 OFFCURVE",
"267 61 CURVE SMOOTH",
"267 28 OFFCURVE",
"224 -57 OFFCURVE",
"169 -124 CURVE SMOOTH",
"142 -157 OFFCURVE",
"128 -187 OFFCURVE",
"128 -212 CURVE SMOOTH",
"128 -255 OFFCURVE",
"164 -287 OFFCURVE",
"204 -287 CURVE SMOOTH"
);
}
);
width = 527;
}
);
note = g49;
},
{
glyphname = g50;
lastChange = "2016-11-30 01:18:20 +0000";
layers = (
{
layerId = "1C6E6581-F718-4B48-B828-7898AD953AFB";
paths = (
{
closed = 1;
nodes = (
"60 0 LINE SMOOTH",
"200 0 OFFCURVE",
"300 33 OFFCURVE",
"355 82 CURVE",
"400 29 OFFCURVE",
"485 0 OFFCURVE",
"634 0 CURVE",
"634 155 LINE",
"568 155 OFFCURVE",
"519 159 OFFCURVE",
"486 168 CURVE SMOOTH",
"453 177 OFFCURVE",
"432 189 OFFCURVE",
"425 205 CURVE",
"427 225 LINE",
"427 245 LINE SMOOTH",
"427 295 OFFCURVE",
"423 347 OFFCURVE",
"416 400 CURVE SMOOTH",
"400 506 OFFCURVE",
"379 564 OFFCURVE",
"319 564 CURVE SMOOTH",
"274 564 OFFCURVE",
"232 535 OFFCURVE",
"232 487 CURVE SMOOTH",
"232 406 OFFCURVE",
"256 272 OFFCURVE",
"287 200 CURVE",
"274 185 OFFCURVE",
"248 174 OFFCURVE",
"211 167 CURVE SMOOTH",
"174 159 OFFCURVE",
"123 155 OFFCURVE",
"60 155 CURVE SMOOTH",
"0 155 LINE SMOOTH",
"-44 155 OFFCURVE",
"-80 125 OFFCURVE",
"-80 77 CURVE SMOOTH",
"-80 29 OFFCURVE",
"-44 0 OFFCURVE",
"0 0 CURVE SMOOTH"
);
}
);
width = 634;
}
);
note = g50;
},
{
glyphname = g51;
lastChange = "2016-11-30 01:18:20 +0000";
layers = (
{
layerId = "1C6E6581-F718-4B48-B828-7898AD953AFB";
paths = (
{
closed = 1;
nodes = (
"60 0 LINE SMOOTH",
"325 0 OFFCURVE",
"429 95 OFFCURVE",
"429 283 CURVE SMOOTH",
"429 328 OFFCURVE",
"424 372 OFFCURVE",
"414 416 CURVE SMOOTH",
"393 503 OFFCURVE",
"372 564 OFFCURVE",
"313 564 CURVE SMOOTH",
"264 564 OFFCURVE",
"226 536 OFFCURVE",
"226 479 CURVE SMOOTH",
"226 407 OFFCURVE",
"257 272 OFFCURVE",
"288 203 CURVE",
"283 186 OFFCURVE",
"264 174 OFFCURVE",
"230 167 CURVE SMOOTH",
"196 159 OFFCURVE",
"139 155 OFFCURVE",
"60 155 CURVE SMOOTH",
"0 155 LINE SMOOTH",
"-44 155 OFFCURVE",
"-80 125 OFFCURVE",
"-80 77 CURVE SMOOTH",
"-80 29 OFFCURVE",
"-44 0 OFFCURVE",
"0 0 CURVE SMOOTH"
);
}
);
width = 569;
}
);
note = g51;
},
{
glyphname = uni071F;
lastChange = "2016-11-30 01:18:20 +0000";
layers = (
{
layerId = "1C6E6581-F718-4B48-B828-7898AD953AFB";
paths = (
{
closed = 1;
nodes = (
"1945 -705 LINE",
"1734 -102 OFFCURVE",
"1587 238 OFFCURVE",
"1475 446 CURVE SMOOTH",
"1362 654 OFFCURVE",
"1265 769 OFFCURVE",
"1112 769 CURVE SMOOTH",
"937 769 OFFCURVE",
"840 644 OFFCURVE",
"815 425 CURVE SMOOTH",
"790 205 OFFCURVE",
"753 113 OFFCURVE",
"606 113 CURVE SMOOTH",
"421 113 OFFCURVE",
"290 311 OFFCURVE",
"290 574 CURVE SMOOTH",
"290 641 OFFCURVE",
"303 714 OFFCURVE",
"320 750 CURVE",
"187 802 LINE",
"155 746 OFFCURVE",
"140 639 OFFCURVE",
"140 567 CURVE SMOOTH",
"140 227 OFFCURVE",
"331 -42 OFFCURVE",
"612 -42 CURVE SMOOTH",
"689 -42 OFFCURVE",
"750 -26 OFFCURVE",
"797 7 CURVE SMOOTH",
"889 72 OFFCURVE",
"929 181 OFFCURVE",
"952 368 CURVE SMOOTH",
"975 555 OFFCURVE",
"1016 614 OFFCURVE",
"1107 614 CURVE SMOOTH",
"1139 614 OFFCURVE",
"1169 603 OFFCURVE",
"1198 582 CURVE",
"1226 560 OFFCURVE",
"1268 500 OFFCURVE",
"1324 401 CURVE SMOOTH",
"1379 302 OFFCURVE",
"1445 165 OFFCURVE",
"1521 -9 CURVE SMOOTH",
"1597 -183 OFFCURVE",
"1692 -429 OFFCURVE",
"1806 -746 CURVE"
);
}
);
width = 1821;
}
);
note = uni071F;
unicode = 071F;
},
{
glyphname = g54;
lastChange = "2016-11-30 01:18:20 +0000";
layers = (
{
layerId = "1C6E6581-F718-4B48-B828-7898AD953AFB";
paths = (
{
closed = 1;
nodes = (
"1945 -705 LINE",
"1845 -417 OFFCURVE",
"1757 -188 OFFCURVE",
"1680 0 CURVE",
"1814 0 LINE",
"1814 155 LINE",
"1614 155 LINE",
"1555 290 OFFCURVE",
"1500 402 OFFCURVE",
"1450 490 CURVE SMOOTH",
"1349 666 OFFCURVE",
"1259 769 OFFCURVE",
"1112 769 CURVE SMOOTH",
"937 769 OFFCURVE",
"840 644 OFFCURVE",
"815 425 CURVE SMOOTH",
"790 205 OFFCURVE",
"753 113 OFFCURVE",
"606 113 CURVE SMOOTH",
"421 113 OFFCURVE",
"290 311 OFFCURVE",
"290 574 CURVE SMOOTH",
"290 641 OFFCURVE",
"303 714 OFFCURVE",
"320 750 CURVE",
"187 802 LINE",
"155 746 OFFCURVE",
"140 639 OFFCURVE",
"140 567 CURVE SMOOTH",
"140 227 OFFCURVE",
"331 -42 OFFCURVE",
"612 -42 CURVE SMOOTH",
"689 -42 OFFCURVE",
"750 -26 OFFCURVE",
"797 7 CURVE SMOOTH",
"889 72 OFFCURVE",
"929 181 OFFCURVE",
"952 368 CURVE SMOOTH",
"975 555 OFFCURVE",
"1016 614 OFFCURVE",
"1107 614 CURVE SMOOTH",
"1139 614 OFFCURVE",
"1169 603 OFFCURVE",
"1198 582 CURVE",
"1226 560 OFFCURVE",
"1268 500 OFFCURVE",
"1324 401 CURVE SMOOTH",
"1379 302 OFFCURVE",
"1445 165 OFFCURVE",
"1521 -9 CURVE SMOOTH",
"1597 -183 OFFCURVE",
"1692 -429 OFFCURVE",
"1806 -746 CURVE"
);
}
);
width = 1814;
}
);
note = g54;
},
{
glyphname = g55;
lastChange = "2016-11-30 01:18:20 +0000";
layers = (
{
layerId = "1C6E6581-F718-4B48-B828-7898AD953AFB";
paths = (
{
closed = 1;
nodes = (
"1317 0 LINE",
"1317 155 LINE",
"1251 155 LINE",
"1222 212 OFFCURVE",
"1150 322 OFFCURVE",
"1082 423 CURVE SMOOTH",
"1031 496 LINE SMOOTH",
"824 789 OFFCURVE",
"685 877 OFFCURVE",
"477 877 CURVE SMOOTH",
"364 877 OFFCURVE",
"258 836 OFFCURVE",
"153 721 CURVE",
"245 625 LINE",
"317 693 OFFCURVE",
"396 722 OFFCURVE",
"456 722 CURVE SMOOTH",
"623 722 OFFCURVE",
"754 631 OFFCURVE",
"954 336 CURVE SMOOTH",
"1015 246 LINE",
"1074 155 LINE",
"0 155 LINE SMOOTH",
"-44 155 OFFCURVE",
"-80 125 OFFCURVE",
"-80 77 CURVE SMOOTH",
"-80 29 OFFCURVE",
"-44 0 OFFCURVE",
"0 0 CURVE SMOOTH"
);
}
);
width = 1317;
}
);
note = g55;
},
{
glyphname = g56;
lastChange = "2016-11-30 01:18:20 +0000";
layers = (
{
layerId = "1C6E6581-F718-4B48-B828-7898AD953AFB";
paths = (
{
closed = 1;
nodes = (
"1165 0 LINE SMOOTH",
"1226 0 OFFCURVE",
"1258 42 OFFCURVE",
"1258 117 CURVE SMOOTH",
"1258 136 OFFCURVE",
"1254 153 OFFCURVE",
"1245 168 CURVE",
"1228 199 OFFCURVE",
"1145 331 OFFCURVE",
"1078 428 CURVE SMOOTH",
"1031 496 LINE SMOOTH",
"824 789 OFFCURVE",
"685 877 OFFCURVE",
"477 877 CURVE SMOOTH",
"364 877 OFFCURVE",
"258 836 OFFCURVE",
"153 721 CURVE",
"245 625 LINE",
"317 693 OFFCURVE",
"396 722 OFFCURVE",
"456 722 CURVE SMOOTH",
"623 722 OFFCURVE",
"754 631 OFFCURVE",
"954 336 CURVE SMOOTH",
"1015 246 LINE",
"1074 155 LINE",
"0 155 LINE SMOOTH",
"-44 155 OFFCURVE",
"-80 125 OFFCURVE",
"-80 77 CURVE SMOOTH",
"-80 29 OFFCURVE",
"-44 0 OFFCURVE",
"0 0 CURVE SMOOTH"
);
}
);
width = 1378;
}
);
note = g56;
},
{
glyphname = uni0720;
lastChange = "2016-11-30 01:18:20 +0000";
layers = (
{
layerId = "1C6E6581-F718-4B48-B828-7898AD953AFB";
paths = (
{
closed = 1;
nodes = (
"1113 0 LINE SMOOTH",
"1178 0 OFFCURVE",
"1212 50 OFFCURVE",
"1212 121 CURVE SMOOTH",
"1212 150 OFFCURVE",
"1209 177 OFFCURVE",
"1203 204 CURVE SMOOTH",
"1197 230 OFFCURVE",
"1173 309 OFFCURVE",
"1130 441 CURVE SMOOTH",
"1045 704 OFFCURVE",
"781 1422 OFFCURVE",
"728 1542 CURVE",
"581 1484 LINE",
"601 1439 OFFCURVE",
"642 1332 OFFCURVE",
"669 1261 CURVE SMOOTH",
"738 1078 LINE SMOOTH",
"873 717 OFFCURVE",
"1022 292 OFFCURVE",
"1061 155 CURVE",
"548 155 LINE SMOOTH",
"345 155 OFFCURVE",
"272 175 OFFCURVE",
"207 268 CURVE",
"100 174 LINE",
"156 49 OFFCURVE",
"272 0 OFFCURVE",
"472 0 CURVE SMOOTH"
);
}
);
width = 1343;
}
);
note = uni0720;
unicode = 0720;
},
{
glyphname = g58;
lastChange = "2016-11-30 01:18:20 +0000";
layers = (
{
layerId = "1C6E6581-F718-4B48-B828-7898AD953AFB";
paths = (
{
closed = 1;
nodes = (
"803 0 LINE SMOOTH",
"952 0 OFFCURVE",
"1056 43 OFFCURVE",
"1107 106 CURVE",
"1115 106 LINE",
"1163 38 OFFCURVE",
"1239 0 OFFCURVE",
"1335 0 CURVE",
"1335 155 LINE",
"1271 155 OFFCURVE",
"1212 207 OFFCURVE",
"1172 319 CURVE SMOOTH",
"1118 470 LINE SMOOTH",
"1097 526 OFFCURVE",
"1076 585 OFFCURVE",
"1053 648 CURVE SMOOTH",
"982 839 LINE",
"910 1031 LINE",
"783 1364 LINE SMOOTH",
"762 1420 OFFCURVE",
"727 1507 OFFCURVE",
"712 1542 CURVE",
"565 1484 LINE",
"571 1471 OFFCURVE",
"581 1447 OFFCURVE",
"594 1414 CURVE SMOOTH",
"704 1134 LINE",
"775 951 LINE",
"849 757 LINE",
"987 391 LINE SMOOTH",
"1008 336 OFFCURVE",
"1026 287 OFFCURVE",
"1041 245 CURVE",
"1016 185 OFFCURVE",
"929 155 OFFCURVE",
"825 155 CURVE SMOOTH",
"547 155 LINE SMOOTH",
"344 155 OFFCURVE",
"271 175 OFFCURVE",
"206 268 CURVE",
"99 174 LINE",
"155 49 OFFCURVE",
"271 0 OFFCURVE",
"471 0 CURVE SMOOTH"
);
}
);
width = 1335;
}
);
note = g58;
},
{
glyphname = g59;
lastChange = "2016-11-30 01:18:20 +0000";
layers = (
{
layerId = "1C6E6581-F718-4B48-B828-7898AD953AFB";
paths = (
{
closed = 1;
nodes = (
"160 0 LINE SMOOTH",
"309 0 OFFCURVE",
"413 43 OFFCURVE",
"464 106 CURVE",
"472 106 LINE",
"520 38 OFFCURVE",
"596 0 OFFCURVE",
"692 0 CURVE",
"692 155 LINE",
"628 155 OFFCURVE",
"569 207 OFFCURVE",
"529 319 CURVE SMOOTH",
"475 470 LINE SMOOTH",
"454 526 OFFCURVE",
"433 585 OFFCURVE",
"410 648 CURVE SMOOTH",
"339 839 LINE",
"267 1031 LINE",
"140 1364 LINE SMOOTH",
"119 1420 OFFCURVE",
"84 1507 OFFCURVE",
"69 1542 CURVE",
"-78 1484 LINE",
"-72 1471 OFFCURVE",
"-62 1447 OFFCURVE",
"-49 1414 CURVE SMOOTH",
"61 1134 LINE SMOOTH",
"87 1066 OFFCURVE",
"126 965 OFFCURVE",
"178 830 CURVE SMOOTH",
"230 695 OFFCURVE",
"264 607 OFFCURVE",
"279 566 CURVE SMOOTH",
"344 391 LINE SMOOTH",
"365 336 OFFCURVE",
"383 287 OFFCURVE",
"398 245 CURVE",
"373 185 OFFCURVE",
"286 155 OFFCURVE",
"182 155 CURVE SMOOTH",
"0 155 LINE SMOOTH",
"-44 155 OFFCURVE",
"-80 125 OFFCURVE",
"-80 77 CURVE SMOOTH",
"-80 29 OFFCURVE",
"-44 0 OFFCURVE",
"0 0 CURVE SMOOTH"
);
}
);
width = 692;
}
);
note = g59;
},
{
glyphname = g60;
lastChange = "2016-11-30 01:18:20 +0000";
layers = (
{
layerId = "1C6E6581-F718-4B48-B828-7898AD953AFB";
paths = (
{
closed = 1;
nodes = (
"469 0 LINE SMOOTH",
"534 0 OFFCURVE",
"568 50 OFFCURVE",
"568 121 CURVE SMOOTH",
"568 150 OFFCURVE",
"565 177 OFFCURVE",
"559 204 CURVE SMOOTH",
"553 230 OFFCURVE",
"529 309 OFFCURVE",
"486 441 CURVE SMOOTH",
"401 704 OFFCURVE",
"137 1422 OFFCURVE",
"84 1542 CURVE",
"-63 1484 LINE",
"-43 1439 OFFCURVE",
"-2 1332 OFFCURVE",
"25 1261 CURVE SMOOTH",
"94 1078 LINE SMOOTH",
"229 717 OFFCURVE",
"378 292 OFFCURVE",
"417 155 CURVE",
"0 155 LINE SMOOTH",
"-44 155 OFFCURVE",
"-80 125 OFFCURVE",
"-80 77 CURVE SMOOTH",
"-80 29 OFFCURVE",
"-44 0 OFFCURVE",
"0 0 CURVE SMOOTH"
);
}
);
width = 699;
}
);
note = g60;
},
{
glyphname = uni0721;
lastChange = "2016-11-30 01:18:20 +0000";
layers = (
{
layerId = "1C6E6581-F718-4B48-B828-7898AD953AFB";
paths = (
{
closed = 1;
nodes = (
"737 -203 OFFCURVE",
"867 1 OFFCURVE",
"908 198 CURVE",
"915 199 LINE",
"951 82 OFFCURVE",
"1078 0 OFFCURVE",
"1238 0 CURVE SMOOTH",
"1300 0 LINE SMOOTH",
"1555 0 OFFCURVE",
"1672 106 OFFCURVE",
"1672 373 CURVE SMOOTH",
"1672 753 OFFCURVE",
"1548 874 OFFCURVE",
"1280 874 CURVE SMOOTH",
"1263 874 OFFCURVE",
"1238 873 OFFCURVE",
"1206 870 CURVE SMOOTH",
"1101 862 LINE SMOOTH",
"1025 855 OFFCURVE",
"942 850 OFFCURVE",
"879 850 CURVE SMOOTH",
"636 850 OFFCURVE",
"382 894 OFFCURVE",
"174 973 CURVE",
"120 842 LINE",
"231 781 OFFCURVE",
"576 706 OFFCURVE",
"847 702 CURVE",
"841 641 LINE SMOOTH",
"839 619 OFFCURVE",
"837 597 OFFCURVE",
"836 574 CURVE SMOOTH",
"835 551 OFFCURVE",
"833 529 OFFCURVE",
"831 507 CURVE SMOOTH",
"825 444 LINE SMOOTH",
"794 168 OFFCURVE",
"702 -29 OFFCURVE",
"462 -288 CURVE",
"552 -379 LINE"
);
},
{
closed = 1;
nodes = (
"1177 155 OFFCURVE",
"1119 171 OFFCURVE",
"1080 204 CURVE SMOOTH",
"1001 268 OFFCURVE",
"975 325 OFFCURVE",
"975 532 CURVE SMOOTH",
"975 572 OFFCURVE",
"982 661 OFFCURVE",
"990 702 CURVE",
"1051 706 OFFCURVE",
"1105 711 OFFCURVE",
"1154 716 CURVE SMOOTH",
"1203 721 OFFCURVE",
"1248 724 OFFCURVE",
"1290 724 CURVE SMOOTH",
"1465 724 OFFCURVE",
"1522 639 OFFCURVE",
"1522 372 CURVE SMOOTH",
"1522 213 OFFCURVE",
"1469 155 OFFCURVE",
"1342 155 CURVE SMOOTH",
"1252 155 LINE SMOOTH"
);
}
);
width = 1812;
}
);
note = uni0721;
unicode = 0721;
},
{
glyphname = g62;
lastChange = "2016-11-30 01:18:20 +0000";
layers = (
{
layerId = "1C6E6581-F718-4B48-B828-7898AD953AFB";
paths = (
{
closed = 1;
nodes = (
"737 -203 OFFCURVE",
"867 1 OFFCURVE",
"908 198 CURVE",
"915 199 LINE",
"951 82 OFFCURVE",
"1078 0 OFFCURVE",
"1238 0 CURVE SMOOTH",
"1300 0 LINE SMOOTH",
"1429 0 OFFCURVE",
"1515 26 OFFCURVE",
"1571 86 CURVE",
"1581 86 LINE",
"1640 14 OFFCURVE",
"1710 0 OFFCURVE",
"1831 0 CURVE",
"1831 155 LINE",
"1768 155 OFFCURVE",
"1724 160 OFFCURVE",
"1699 170 CURVE",
"1674 179 OFFCURVE",
"1658 193 OFFCURVE",
"1652 212 CURVE",
"1667 257 OFFCURVE",
"1672 312 OFFCURVE",
"1672 373 CURVE SMOOTH",
"1672 753 OFFCURVE",
"1548 874 OFFCURVE",
"1280 874 CURVE SMOOTH",
"1263 874 OFFCURVE",
"1238 873 OFFCURVE",
"1206 870 CURVE SMOOTH",
"1101 862 LINE SMOOTH",
"1025 855 OFFCURVE",
"942 850 OFFCURVE",
"879 850 CURVE SMOOTH",
"636 850 OFFCURVE",
"382 894 OFFCURVE",
"174 973 CURVE",
"120 842 LINE",
"231 781 OFFCURVE",
"576 706 OFFCURVE",
"847 702 CURVE",
"841 641 LINE SMOOTH",
"839 619 OFFCURVE",
"837 597 OFFCURVE",
"836 574 CURVE SMOOTH",
"835 551 OFFCURVE",
"833 529 OFFCURVE",
"831 507 CURVE SMOOTH",
"825 444 LINE SMOOTH",
"794 168 OFFCURVE",
"702 -29 OFFCURVE",
"462 -288 CURVE",
"552 -379 LINE"
);
},
{
closed = 1;
nodes = (
"1177 155 OFFCURVE",
"1119 171 OFFCURVE",
"1080 204 CURVE SMOOTH",
"1001 268 OFFCURVE",
"975 325 OFFCURVE",
"975 532 CURVE SMOOTH",
"975 572 OFFCURVE",
"982 661 OFFCURVE",
"990 702 CURVE",
"1051 706 OFFCURVE",
"1105 711 OFFCURVE",
"1154 716 CURVE SMOOTH",
"1203 721 OFFCURVE",
"1248 724 OFFCURVE",
"1290 724 CURVE SMOOTH",
"1465 724 OFFCURVE",
"1522 639 OFFCURVE",
"1522 372 CURVE SMOOTH",
"1522 213 OFFCURVE",
"1469 155 OFFCURVE",
"1342 155 CURVE SMOOTH",
"1252 155 LINE SMOOTH"
);
}
);
width = 1831;
}
);
note = g62;
},
{
glyphname = g63;
lastChange = "2016-11-30 01:18:20 +0000";
layers = (
{
layerId = "1C6E6581-F718-4B48-B828-7898AD953AFB";
paths = (
{
closed = 1;
nodes = (
"1440 -28 OFFCURVE",
"1523 10 OFFCURVE",
"1582 78 CURVE",
"1590 78 LINE",
"1642 23 OFFCURVE",
"1709 0 OFFCURVE",
"1836 0 CURVE",
"1836 155 LINE",
"1770 155 OFFCURVE",
"1724 161 OFFCURVE",
"1697 174 CURVE SMOOTH",
"1670 187 OFFCURVE",
"1656 205 OFFCURVE",
"1656 230 CURVE",
"1663 281 OFFCURVE",
"1668 324 OFFCURVE",
"1668 365 CURVE SMOOTH",
"1668 738 OFFCURVE",
"1531 876 OFFCURVE",
"1270 876 CURVE SMOOTH",
"1240 876 OFFCURVE",
"1208 874 OFFCURVE",
"1174 871 CURVE SMOOTH",
"1064 859 LINE SMOOTH",
"987 850 OFFCURVE",
"897 841 OFFCURVE",
"797 841 CURVE SMOOTH",
"553 841 OFFCURVE",
"397 862 OFFCURVE",
"190 962 CURVE",
"130 831 LINE",
"239 750 OFFCURVE",
"471 691 OFFCURVE",
"758 691 CURVE SMOOTH",
"783 691 OFFCURVE",
"812 692 OFFCURVE",
"843 693 CURVE SMOOTH",
"928 697 LINE",
"894 546 OFFCURVE",
"854 434 OFFCURVE",
"807 362 CURVE SMOOTH",
"713 218 OFFCURVE",
"576 155 OFFCURVE",
"369 155 CURVE SMOOTH",
"0 155 LINE SMOOTH",
"-44 155 OFFCURVE",
"-80 125 OFFCURVE",
"-80 77 CURVE SMOOTH",
"-80 29 OFFCURVE",
"-44 0 OFFCURVE",
"0 0 CURVE SMOOTH",
"353 0 LINE SMOOTH",
"489 0 OFFCURVE",
"604 22 OFFCURVE",
"699 67 CURVE SMOOTH",
"887 156 OFFCURVE",
"1002 323 OFFCURVE",
"1077 708 CURVE",
"1134 719 OFFCURVE",
"1197 726 OFFCURVE",
"1280 726 CURVE SMOOTH",
"1424 726 OFFCURVE",
"1518 670 OFFCURVE",
"1518 342 CURVE SMOOTH",
"1518 201 OFFCURVE",
"1455 116 OFFCURVE",
"1324 116 CURVE SMOOTH",
"1244 116 OFFCURVE",
"1148 152 OFFCURVE",
"1048 209 CURVE",
"982 94 LINE",
"1071 26 OFFCURVE",
"1206 -28 OFFCURVE",
"1319 -28 CURVE SMOOTH"
);
}
);
width = 1836;
}
);
note = g63;
},
{
glyphname = g64;
lastChange = "2016-11-30 01:18:20 +0000";
layers = (
{
layerId = "1C6E6581-F718-4B48-B828-7898AD953AFB";
paths = (
{
closed = 1;
nodes = (
"1540 -28 OFFCURVE",
"1668 112 OFFCURVE",
"1668 365 CURVE SMOOTH",
"1668 738 OFFCURVE",
"1531 876 OFFCURVE",
"1270 876 CURVE SMOOTH",
"1240 876 OFFCURVE",
"1208 874 OFFCURVE",
"1174 871 CURVE SMOOTH",
"1064 859 LINE SMOOTH",
"987 850 OFFCURVE",
"897 841 OFFCURVE",
"797 841 CURVE SMOOTH",
"553 841 OFFCURVE",
"397 862 OFFCURVE",
"190 962 CURVE",
"130 831 LINE",
"239 750 OFFCURVE",
"471 691 OFFCURVE",
"758 691 CURVE SMOOTH",
"783 691 OFFCURVE",
"812 692 OFFCURVE",
"843 693 CURVE SMOOTH",
"928 697 LINE",
"894 546 OFFCURVE",
"854 434 OFFCURVE",
"807 362 CURVE SMOOTH",
"713 218 OFFCURVE",
"576 155 OFFCURVE",
"369 155 CURVE SMOOTH",
"0 155 LINE SMOOTH",
"-44 155 OFFCURVE",
"-80 125 OFFCURVE",
"-80 77 CURVE SMOOTH",
"-80 29 OFFCURVE",
"-44 0 OFFCURVE",
"0 0 CURVE SMOOTH",
"353 0 LINE SMOOTH",
"487 0 OFFCURVE",
"601 22 OFFCURVE",
"696 66 CURVE SMOOTH",
"885 153 OFFCURVE",
"1002 320 OFFCURVE",
"1077 707 CURVE",
"1137 718 OFFCURVE",
"1200 726 OFFCURVE",
"1280 726 CURVE SMOOTH",
"1424 726 OFFCURVE",
"1518 670 OFFCURVE",
"1518 342 CURVE SMOOTH",
"1518 201 OFFCURVE",
"1455 116 OFFCURVE",
"1324 116 CURVE SMOOTH",
"1244 116 OFFCURVE",
"1148 152 OFFCURVE",
"1048 209 CURVE",
"982 94 LINE",
"1071 26 OFFCURVE",
"1206 -28 OFFCURVE",
"1319 -28 CURVE SMOOTH"
);
}
);
width = 1802;
}
);
note = g64;
},
{
glyphname = uni0722;
lastChange = "2016-11-30 01:18:20 +0000";
layers = (
{
layerId = "1C6E6581-F718-4B48-B828-7898AD953AFB";
paths = (
{
closed = 1;
nodes = (
"2256 -457 LINE",
"1840 -349 OFFCURVE",
"1608 -288 OFFCURVE",
"1160 -137 CURVE SMOOTH",
"894 -48 LINE SMOOTH",
"817 -24 OFFCURVE",
"573 73 OFFCURVE",
"486 114 CURVE SMOOTH",
"421 145 LINE SMOOTH",
"326 190 OFFCURVE",
"237 226 OFFCURVE",
"202 226 CURVE SMOOTH",
"159 226 OFFCURVE",
"120 191 OFFCURVE",
"120 134 CURVE SMOOTH",
"120 115 OFFCURVE",
"127 96 OFFCURVE",
"140 76 CURVE SMOOTH",
"153 56 OFFCURVE",
"203 28 OFFCURVE",
"288 -7 CURVE SMOOTH",
"459 -78 OFFCURVE",
"1535 -430 OFFCURVE",
"2216 -590 CURVE"
);
}
);
width = 1388;
}
);
note = uni0722;
unicode = 0722;
},
{
glyphname = g66;
lastChange = "2016-11-30 01:18:20 +0000";
layers = (
{
layerId = "1C6E6581-F718-4B48-B828-7898AD953AFB";
paths = (
{
closed = 1;
nodes = (
"779 -763 LINE",
"596 -532 OFFCURVE",
"343 -147 OFFCURVE",
"272 46 CURVE",
"278 52 LINE",
"342 27 OFFCURVE",
"469 0 OFFCURVE",
"570 0 CURVE",
"570 155 LINE",
"483 155 OFFCURVE",
"410 161 OFFCURVE",
"287 190 CURVE SMOOTH",
"259 196 LINE SMOOTH",
"246 199 OFFCURVE",
"236 200 OFFCURVE",
"229 200 CURVE SMOOTH",
"168 200 OFFCURVE",
"126 152 OFFCURVE",
"126 72 CURVE SMOOTH",
"126 -101 OFFCURVE",
"363 -478 OFFCURVE",
"659 -849 CURVE"
);
}
);
width = 570;
}
);
note = g66;
},
{
glyphname = g67;
lastChange = "2016-11-30 01:18:20 +0000";
layers = (
{
layerId = "1C6E6581-F718-4B48-B828-7898AD953AFB";
paths = (
{
closed = 1;
nodes = (
"60 0 LINE SMOOTH",
"221 0 OFFCURVE",
"316 45 OFFCURVE",
"376 106 CURVE",
"385 106 LINE",
"428 42 OFFCURVE",
"511 0 OFFCURVE",
"607 0 CURVE",
"607 155 LINE",
"572 155 OFFCURVE",
"538 171 OFFCURVE",
"507 204 CURVE SMOOTH",
"444 268 OFFCURVE",
"420 407 OFFCURVE",
"383 607 CURVE SMOOTH",
"359 730 LINE SMOOTH",
"351 773 OFFCURVE",
"342 820 OFFCURVE",
"333 872 CURVE",
"185 850 LINE",
"218 655 OFFCURVE",
"246 518 OFFCURVE",
"281 365 CURVE SMOOTH",
"294 312 LINE SMOOTH",
"299 291 OFFCURVE",
"305 268 OFFCURVE",
"312 245 CURVE",
"283 185 OFFCURVE",
"198 155 OFFCURVE",
"62 155 CURVE SMOOTH",
"0 155 LINE SMOOTH",
"-44 155 OFFCURVE",
"-80 125 OFFCURVE",
"-80 77 CURVE SMOOTH",
"-80 29 OFFCURVE",
"-44 0 OFFCURVE",
"0 0 CURVE SMOOTH"
);
}
);
width = 607;
}
);
note = g67;
},
{
glyphname = g68;
lastChange = "2016-11-30 01:18:20 +0000";
layers = (
{
layerId = "1C6E6581-F718-4B48-B828-7898AD953AFB";
paths = (
{
closed = 1;
nodes = (
"229 0 OFFCURVE",
"349 18 OFFCURVE",
"392 54 CURVE SMOOTH",
"435 90 OFFCURVE",
"456 139 OFFCURVE",
"456 201 CURVE SMOOTH",
"456 312 OFFCURVE",
"405 593 OFFCURVE",
"336 872 CURVE",
"186 847 LINE",
"250 598 OFFCURVE",
"313 256 OFFCURVE",
"313 175 CURVE",
"277 163 OFFCURVE",
"153 155 OFFCURVE",
"60 155 CURVE SMOOTH",
"0 155 LINE SMOOTH",
"-44 155 OFFCURVE",
"-80 125 OFFCURVE",
"-80 77 CURVE SMOOTH",
"-80 29 OFFCURVE",
"-54 0 OFFCURVE",
"30 0 CURVE SMOOTH"
);
}
);
width = 596;
}
);
note = g68;
},
{
glyphname = uni0723;
lastChange = "2016-11-30 01:18:20 +0000";
layers = (
{
layerId = "1C6E6581-F718-4B48-B828-7898AD953AFB";
paths = (
{
closed = 1;
nodes = (
"1096 0 LINE SMOOTH",
"1251 0 OFFCURVE",
"1367 13 OFFCURVE",
"1445 40 CURVE SMOOTH",
"1601 92 OFFCURVE",
"1675 206 OFFCURVE",
"1675 425 CURVE SMOOTH",
"1675 693 OFFCURVE",
"1520 878 OFFCURVE",
"1313 878 CURVE SMOOTH",
"1142 878 OFFCURVE",
"1008 784 OFFCURVE",
"941 615 CURVE",
"933 615 LINE",
"869 800 OFFCURVE",
"722 901 OFFCURVE",
"537 901 CURVE SMOOTH",
"310 901 OFFCURVE",
"140 720 OFFCURVE",
"140 453 CURVE SMOOTH",
"140 149 OFFCURVE",
"307 0 OFFCURVE",
"628 0 CURVE SMOOTH"
);
},
{
closed = 1;
nodes = (
"411 155 OFFCURVE",
"290 259 OFFCURVE",
"290 454 CURVE SMOOTH",
"290 635 OFFCURVE",
"391 751 OFFCURVE",
"539 751 CURVE SMOOTH",
"722 751 OFFCURVE",
"834 603 OFFCURVE",
"847 347 CURVE SMOOTH",
"857 155 LINE",
"622 155 LINE SMOOTH"
);
},
{
closed = 1;
nodes = (
"998 208 OFFCURVE",
"997 252 OFFCURVE",
"997 285 CURVE",
"996 363 LINE",
"996 576 OFFCURVE",
"1134 728 OFFCURVE",
"1297 728 CURVE SMOOTH",
"1437 728 OFFCURVE",
"1525 607 OFFCURVE",
"1525 422 CURVE SMOOTH",
"1525 227 OFFCURVE",
"1444 155 OFFCURVE",
"1176 155 CURVE SMOOTH",
"1001 155 LINE"
);
}
);
width = 1815;
}
);
note = uni0723;
unicode = 0723;
},
{
glyphname = g70;
lastChange = "2016-11-30 01:18:20 +0000";
layers = (
{
layerId = "1C6E6581-F718-4B48-B828-7898AD953AFB";
paths = (
{
closed = 1;
nodes = (
"1096 0 LINE SMOOTH",
"1280 0 OFFCURVE",
"1423 14 OFFCURVE",
"1522 77 CURVE",
"1533 77 LINE",
"1590 24 OFFCURVE",
"1676 0 OFFCURVE",
"1824 0 CURVE",
"1824 155 LINE",
"1727 155 OFFCURVE",
"1657 167 OFFCURVE",
"1629 190 CURVE",
"1660 250 OFFCURVE",
"1675 325 OFFCURVE",
"1675 425 CURVE SMOOTH",
"1675 693 OFFCURVE",
"1520 878 OFFCURVE",
"1313 878 CURVE SMOOTH",
"1142 878 OFFCURVE",
"1008 784 OFFCURVE",
"941 615 CURVE",
"933 615 LINE",
"869 800 OFFCURVE",
"722 901 OFFCURVE",
"537 901 CURVE SMOOTH",
"310 901 OFFCURVE",
"140 720 OFFCURVE",
"140 453 CURVE SMOOTH",
"140 149 OFFCURVE",
"307 0 OFFCURVE",
"628 0 CURVE SMOOTH"
);
},
{
closed = 1;
nodes = (
"411 155 OFFCURVE",
"290 259 OFFCURVE",
"290 454 CURVE SMOOTH",
"290 635 OFFCURVE",
"391 751 OFFCURVE",
"539 751 CURVE SMOOTH",
"722 751 OFFCURVE",
"834 603 OFFCURVE",
"847 347 CURVE SMOOTH",
"857 155 LINE",
"622 155 LINE SMOOTH"
);
},
{
closed = 1;
nodes = (
"998 208 OFFCURVE",
"997 252 OFFCURVE",
"997 285 CURVE",
"996 363 LINE",
"996 576 OFFCURVE",
"1134 728 OFFCURVE",
"1297 728 CURVE SMOOTH",
"1437 728 OFFCURVE",
"1525 607 OFFCURVE",
"1525 422 CURVE SMOOTH",
"1525 227 OFFCURVE",
"1444 155 OFFCURVE",
"1176 155 CURVE SMOOTH",
"1001 155 LINE"
);
}
);
width = 1824;
}
);
note = g70;
},
{
glyphname = g71;
lastChange = "2016-11-30 01:18:20 +0000";
layers = (
{
layerId = "1C6E6581-F718-4B48-B828-7898AD953AFB";
paths = (
{
closed = 1;
nodes = (
"1105 0 LINE SMOOTH",
"1288 0 OFFCURVE",
"1432 14 OFFCURVE",
"1531 77 CURVE",
"1542 77 LINE",
"1599 24 OFFCURVE",
"1686 0 OFFCURVE",
"1834 0 CURVE",
"1834 155 LINE",
"1737 155 OFFCURVE",
"1667 167 OFFCURVE",
"1638 190 CURVE",
"1669 250 OFFCURVE",
"1684 325 OFFCURVE",
"1684 425 CURVE SMOOTH",
"1684 693 OFFCURVE",
"1529 878 OFFCURVE",
"1322 878 CURVE SMOOTH",
"1151 878 OFFCURVE",
"1017 784 OFFCURVE",
"950 615 CURVE",
"942 615 LINE",
"878 800 OFFCURVE",
"731 901 OFFCURVE",
"546 901 CURVE SMOOTH",
"321 901 OFFCURVE",
"149 732 OFFCURVE",
"149 493 CURVE SMOOTH",
"149 346 OFFCURVE",
"189 230 OFFCURVE",
"277 159 CURVE",
"277 152 LINE",
"256 154 OFFCURVE",
"234 155 OFFCURVE",
"213 155 CURVE SMOOTH",
"0 155 LINE SMOOTH",
"-44 155 OFFCURVE",
"-80 125 OFFCURVE",
"-80 77 CURVE SMOOTH",
"-80 29 OFFCURVE",
"-44 0 OFFCURVE",
"0 0 CURVE SMOOTH"
);
},
{
closed = 1;
nodes = (
"417 155 OFFCURVE",
"299 281 OFFCURVE",
"299 494 CURVE SMOOTH",
"299 650 OFFCURVE",
"401 751 OFFCURVE",
"548 751 CURVE SMOOTH",
"731 751 OFFCURVE",
"843 603 OFFCURVE",
"856 347 CURVE SMOOTH",
"866 155 LINE",
"598 155 LINE SMOOTH"
);
},
{
closed = 1;
nodes = (
"1007 208 OFFCURVE",
"1006 252 OFFCURVE",
"1006 285 CURVE",
"1005 363 LINE",
"1005 576 OFFCURVE",
"1143 728 OFFCURVE",
"1306 728 CURVE SMOOTH",
"1446 728 OFFCURVE",
"1534 607 OFFCURVE",
"1534 422 CURVE SMOOTH",
"1534 227 OFFCURVE",
"1453 155 OFFCURVE",
"1185 155 CURVE SMOOTH",
"1010 155 LINE"
);
}
);
width = 1834;
}
);
note = g71;
},
{
glyphname = g72;
lastChange = "2016-11-30 01:18:20 +0000";
layers = (
{
layerId = "1C6E6581-F718-4B48-B828-7898AD953AFB";
paths = (
{
closed = 1;
nodes = (
"1105 0 LINE SMOOTH",
"1277 0 OFFCURVE",
"1400 16 OFFCURVE",
"1475 48 CURVE SMOOTH",
"1624 111 OFFCURVE",
"1684 225 OFFCURVE",
"1684 425 CURVE SMOOTH",
"1684 693 OFFCURVE",
"1529 878 OFFCURVE",
"1322 878 CURVE SMOOTH",
"1151 878 OFFCURVE",
"1017 784 OFFCURVE",
"950 615 CURVE",
"942 615 LINE",
"878 800 OFFCURVE",
"731 901 OFFCURVE",
"546 901 CURVE SMOOTH",
"321 901 OFFCURVE",
"149 732 OFFCURVE",
"149 493 CURVE SMOOTH",
"149 346 OFFCURVE",
"189 230 OFFCURVE",
"277 159 CURVE",
"277 152 LINE",
"256 154 OFFCURVE",
"234 155 OFFCURVE",
"213 155 CURVE SMOOTH",
"0 155 LINE SMOOTH",
"-44 155 OFFCURVE",
"-80 125 OFFCURVE",
"-80 77 CURVE SMOOTH",
"-80 29 OFFCURVE",
"-44 0 OFFCURVE",
"0 0 CURVE SMOOTH"
);
},
{
closed = 1;
nodes = (
"417 155 OFFCURVE",
"299 281 OFFCURVE",
"299 494 CURVE SMOOTH",
"299 650 OFFCURVE",
"401 751 OFFCURVE",
"548 751 CURVE SMOOTH",
"731 751 OFFCURVE",
"843 603 OFFCURVE",
"856 347 CURVE SMOOTH",
"866 155 LINE",
"598 155 LINE SMOOTH"
);
},
{
closed = 1;
nodes = (
"1007 208 OFFCURVE",
"1006 252 OFFCURVE",
"1006 285 CURVE",
"1005 363 LINE",
"1005 576 OFFCURVE",
"1143 728 OFFCURVE",
"1306 728 CURVE SMOOTH",
"1446 728 OFFCURVE",
"1534 607 OFFCURVE",
"1534 422 CURVE SMOOTH",
"1534 227 OFFCURVE",
"1453 155 OFFCURVE",
"1185 155 CURVE SMOOTH",
"1010 155 LINE"
);
}
);
width = 1824;
}
);
note = g72;
},
{
glyphname = g74;
lastChange = "2016-11-30 01:18:20 +0000";
layers = (
{
layerId = "1C6E6581-F718-4B48-B828-7898AD953AFB";
paths = (
{
closed = 1;
nodes = (
"1096 0 LINE SMOOTH",
"1280 0 OFFCURVE",
"1423 14 OFFCURVE",
"1522 77 CURVE",
"1533 77 LINE",
"1590 24 OFFCURVE",
"1676 0 OFFCURVE",
"1824 0 CURVE",
"1824 155 LINE",
"1727 155 OFFCURVE",
"1657 167 OFFCURVE",
"1629 190 CURVE",
"1660 250 OFFCURVE",
"1675 325 OFFCURVE",
"1675 425 CURVE SMOOTH",
"1675 693 OFFCURVE",
"1520 878 OFFCURVE",
"1313 878 CURVE SMOOTH",
"1142 878 OFFCURVE",
"1008 784 OFFCURVE",
"941 615 CURVE",
"933 615 LINE",
"869 800 OFFCURVE",
"722 901 OFFCURVE",
"537 901 CURVE SMOOTH",
"310 901 OFFCURVE",
"140 720 OFFCURVE",
"140 453 CURVE SMOOTH",
"140 149 OFFCURVE",
"307 0 OFFCURVE",
"628 0 CURVE SMOOTH"
);
},
{
closed = 1;
nodes = (
"411 155 OFFCURVE",
"290 259 OFFCURVE",
"290 454 CURVE SMOOTH",
"290 635 OFFCURVE",
"391 751 OFFCURVE",
"539 751 CURVE SMOOTH",
"722 751 OFFCURVE",
"834 603 OFFCURVE",
"847 347 CURVE SMOOTH",
"857 155 LINE",
"622 155 LINE SMOOTH"
);
},
{
closed = 1;
nodes = (
"998 208 OFFCURVE",
"997 252 OFFCURVE",
"997 285 CURVE",
"996 363 LINE",
"996 576 OFFCURVE",
"1134 728 OFFCURVE",
"1297 728 CURVE SMOOTH",
"1437 728 OFFCURVE",
"1525 607 OFFCURVE",
"1525 422 CURVE SMOOTH",
"1525 227 OFFCURVE",
"1444 155 OFFCURVE",
"1176 155 CURVE SMOOTH",
"1001 155 LINE"
);
}
);
width = 1824;
}
);
note = g74;
},
{
glyphname = g75;
lastChange = "2016-11-30 01:18:20 +0000";
layers = (
{
layerId = "1C6E6581-F718-4B48-B828-7898AD953AFB";
paths = (
{
closed = 1;
nodes = (
"1105 0 LINE SMOOTH",
"1288 0 OFFCURVE",
"1432 14 OFFCURVE",
"1531 77 CURVE",
"1542 77 LINE",
"1599 24 OFFCURVE",
"1686 0 OFFCURVE",
"1834 0 CURVE",
"1834 155 LINE",
"1737 155 OFFCURVE",
"1667 167 OFFCURVE",
"1638 190 CURVE",
"1669 250 OFFCURVE",
"1684 325 OFFCURVE",
"1684 425 CURVE SMOOTH",
"1684 693 OFFCURVE",
"1529 878 OFFCURVE",
"1322 878 CURVE SMOOTH",
"1151 878 OFFCURVE",
"1017 784 OFFCURVE",
"950 615 CURVE",
"942 615 LINE",
"878 800 OFFCURVE",
"731 901 OFFCURVE",
"546 901 CURVE SMOOTH",
"321 901 OFFCURVE",
"149 732 OFFCURVE",
"149 493 CURVE SMOOTH",
"149 346 OFFCURVE",
"189 230 OFFCURVE",
"277 159 CURVE",
"277 152 LINE",
"256 154 OFFCURVE",
"234 155 OFFCURVE",
"213 155 CURVE SMOOTH",
"0 155 LINE SMOOTH",
"-44 155 OFFCURVE",
"-80 125 OFFCURVE",
"-80 77 CURVE SMOOTH",
"-80 29 OFFCURVE",
"-44 0 OFFCURVE",
"0 0 CURVE SMOOTH"
);
},
{
closed = 1;
nodes = (
"417 155 OFFCURVE",
"299 281 OFFCURVE",
"299 494 CURVE SMOOTH",
"299 650 OFFCURVE",
"401 751 OFFCURVE",
"548 751 CURVE SMOOTH",
"731 751 OFFCURVE",
"843 603 OFFCURVE",
"856 347 CURVE SMOOTH",
"866 155 LINE",
"598 155 LINE SMOOTH"
);
},
{
closed = 1;
nodes = (
"1007 208 OFFCURVE",
"1006 252 OFFCURVE",
"1006 285 CURVE",
"1005 363 LINE",
"1005 576 OFFCURVE",
"1143 728 OFFCURVE",
"1306 728 CURVE SMOOTH",
"1446 728 OFFCURVE",
"1534 607 OFFCURVE",
"1534 422 CURVE SMOOTH",
"1534 227 OFFCURVE",
"1453 155 OFFCURVE",
"1185 155 CURVE SMOOTH",
"1010 155 LINE"
);
}
);
width = 1834;
}
);
note = g75;
},
{
glyphname = g76;
lastChange = "2016-11-30 01:18:20 +0000";
layers = (
{
layerId = "1C6E6581-F718-4B48-B828-7898AD953AFB";
paths = (
{
closed = 1;
nodes = (
"1105 0 LINE SMOOTH",
"1277 0 OFFCURVE",
"1400 16 OFFCURVE",
"1475 48 CURVE SMOOTH",
"1624 111 OFFCURVE",
"1684 225 OFFCURVE",
"1684 425 CURVE SMOOTH",
"1684 693 OFFCURVE",
"1529 878 OFFCURVE",
"1322 878 CURVE SMOOTH",
"1151 878 OFFCURVE",
"1017 784 OFFCURVE",
"950 615 CURVE",
"942 615 LINE",
"878 800 OFFCURVE",
"731 901 OFFCURVE",
"546 901 CURVE SMOOTH",
"321 901 OFFCURVE",
"149 732 OFFCURVE",
"149 493 CURVE SMOOTH",
"149 346 OFFCURVE",
"189 230 OFFCURVE",
"277 159 CURVE",
"277 152 LINE",
"256 154 OFFCURVE",
"234 155 OFFCURVE",
"213 155 CURVE SMOOTH",
"0 155 LINE SMOOTH",
"-44 155 OFFCURVE",
"-80 125 OFFCURVE",
"-80 77 CURVE SMOOTH",
"-80 29 OFFCURVE",
"-44 0 OFFCURVE",
"0 0 CURVE SMOOTH"
);
},
{
closed = 1;
nodes = (
"417 155 OFFCURVE",
"299 281 OFFCURVE",
"299 494 CURVE SMOOTH",
"299 650 OFFCURVE",
"401 751 OFFCURVE",
"548 751 CURVE SMOOTH",
"731 751 OFFCURVE",
"843 603 OFFCURVE",
"856 347 CURVE SMOOTH",
"866 155 LINE",
"598 155 LINE SMOOTH"
);
},
{
closed = 1;
nodes = (
"1007 208 OFFCURVE",
"1006 252 OFFCURVE",
"1006 285 CURVE",
"1005 363 LINE",
"1005 576 OFFCURVE",
"1143 728 OFFCURVE",
"1306 728 CURVE SMOOTH",
"1446 728 OFFCURVE",
"1534 607 OFFCURVE",
"1534 422 CURVE SMOOTH",
"1534 227 OFFCURVE",
"1453 155 OFFCURVE",
"1185 155 CURVE SMOOTH",
"1010 155 LINE"
);
}
);
width = 1824;
}
);
note = g76;
},
{
glyphname = uni0725;
lastChange = "2016-11-30 01:18:20 +0000";
layers = (
{
layerId = "1C6E6581-F718-4B48-B828-7898AD953AFB";
paths = (
{
closed = 1;
nodes = (
"1851 0 LINE",
"1851 155 LINE",
"1777 155 LINE SMOOTH",
"1548 155 OFFCURVE",
"1433 194 OFFCURVE",
"1249 339 CURVE SMOOTH",
"1065 483 OFFCURVE",
"859 726 OFFCURVE",
"759 875 CURVE",
"628 784 LINE",
"797 533 OFFCURVE",
"1016 308 OFFCURVE",
"1243 159 CURVE",
"1243 148 LINE",
"1162 151 LINE",
"1046 154 LINE",
"967 155 LINE",
"548 155 LINE SMOOTH",
"345 155 OFFCURVE",
"272 175 OFFCURVE",
"207 268 CURVE",
"100 174 LINE",
"156 49 OFFCURVE",
"272 0 OFFCURVE",
"472 0 CURVE SMOOTH"
);
}
);
width = 1951;
}
);
note = uni0725;
unicode = 0725;
},
{
glyphname = g78;
lastChange = "2016-11-30 01:18:20 +0000";
layers = (
{
layerId = "1C6E6581-F718-4B48-B828-7898AD953AFB";
paths = (
{
closed = 1;
nodes = (
"1522 0 LINE",
"1522 155 LINE",
"1375 155 OFFCURVE",
"946 606 OFFCURVE",
"755 875 CURVE",
"624 784 LINE",
"735 621 OFFCURVE",
"1052 270 OFFCURVE",
"1223 159 CURVE",
"1223 148 LINE",
"1142 151 LINE",
"1026 154 LINE",
"947 155 LINE",
"548 155 LINE SMOOTH",
"345 155 OFFCURVE",
"272 175 OFFCURVE",
"207 268 CURVE",
"100 174 LINE",
"156 49 OFFCURVE",
"272 0 OFFCURVE",
"472 0 CURVE SMOOTH"
);
}
);
width = 1522;
}
);
note = g78;
},
{
glyphname = g79;
lastChange = "2016-11-30 01:18:20 +0000";
layers = (
{
layerId = "1C6E6581-F718-4B48-B828-7898AD953AFB";
paths = (
{
closed = 1;
nodes = (
"1023 0 LINE",
"1023 155 LINE",
"876 155 OFFCURVE",
"447 606 OFFCURVE",
"256 875 CURVE",
"125 784 LINE",
"236 620 OFFCURVE",
"560 263 OFFCURVE",
"724 159 CURVE",
"724 148 LINE",
"643 151 LINE",
"527 154 LINE",
"448 155 LINE",
"0 155 LINE SMOOTH",
"-44 155 OFFCURVE",
"-80 125 OFFCURVE",
"-80 77 CURVE SMOOTH",
"-80 29 OFFCURVE",
"-44 0 OFFCURVE",
"0 0 CURVE SMOOTH"
);
}
);
width = 1023;
}
);
note = g79;
},
{
glyphname = g80;
lastChange = "2016-11-30 01:18:20 +0000";
layers = (
{
layerId = "1C6E6581-F718-4B48-B828-7898AD953AFB";
paths = (
{
closed = 1;
nodes = (
"1352 0 LINE",
"1352 155 LINE",
"1278 155 LINE SMOOTH",
"1049 155 OFFCURVE",
"934 194 OFFCURVE",
"750 339 CURVE SMOOTH",
"566 483 OFFCURVE",
"360 726 OFFCURVE",
"260 875 CURVE",
"129 784 LINE",
"298 533 OFFCURVE",
"517 308 OFFCURVE",
"744 159 CURVE",
"744 148 LINE",
"663 151 LINE",
"547 154 LINE",
"468 155 LINE",
"0 155 LINE SMOOTH",
"-44 155 OFFCURVE",
"-80 125 OFFCURVE",
"-80 77 CURVE SMOOTH",
"-80 29 OFFCURVE",
"-44 0 OFFCURVE",
"0 0 CURVE SMOOTH"
);
}
);
width = 1452;
}
);
note = g80;
},
{
glyphname = uni0726;
lastChange = "2016-11-30 01:18:20 +0000";
layers = (
{
layerId = "1C6E6581-F718-4B48-B828-7898AD953AFB";
paths = (
{
closed = 1;
nodes = (
"1457 0 LINE SMOOTH",
"1550 0 OFFCURVE",
"1607 61 OFFCURVE",
"1607 172 CURVE SMOOTH",
"1607 252 OFFCURVE",
"1524 495 OFFCURVE",
"1463 654 CURVE SMOOTH",
"1419 764 LINE SMOOTH",
"1314 1021 OFFCURVE",
"1219 1131 OFFCURVE",
"1002 1131 CURVE SMOOTH",
"809 1131 OFFCURVE",
"628 945 OFFCURVE",
"628 722 CURVE SMOOTH",
"628 513 OFFCURVE",
"752 413 OFFCURVE",
"1045 413 CURVE SMOOTH",
"1148 413 OFFCURVE",
"1263 426 OFFCURVE",
"1375 463 CURVE",
"1420 335 OFFCURVE",
"1460 207 OFFCURVE",
"1465 155 CURVE",
"548 155 LINE SMOOTH",
"345 155 OFFCURVE",
"272 175 OFFCURVE",
"207 268 CURVE",
"100 174 LINE",
"156 49 OFFCURVE",
"272 0 OFFCURVE",
"472 0 CURVE SMOOTH"
);
},
{
closed = 1;
nodes = (
"867 562 OFFCURVE",
"778 607 OFFCURVE",
"778 736 CURVE SMOOTH",
"778 857 OFFCURVE",
"887 976 OFFCURVE",
"999 976 CURVE SMOOTH",
"1108 976 OFFCURVE",
"1152 943 OFFCURVE",
"1202 868 CURVE SMOOTH",
"1227 831 OFFCURVE",
"1257 768 OFFCURVE",
"1293 679 CURVE SMOOTH",
"1326 595 LINE",
"1249 573 OFFCURVE",
"1157 562 OFFCURVE",
"1050 562 CURVE SMOOTH"
);
}
);
width = 1727;
}
);
note = uni0726;
unicode = 0726;
},
{
glyphname = g82;
lastChange = "2016-11-30 01:18:20 +0000";
layers = (
{
layerId = "1C6E6581-F718-4B48-B828-7898AD953AFB";
paths = (
{
closed = 1;
nodes = (
"1211 0 LINE SMOOTH",
"1366 0 OFFCURVE",
"1470 42 OFFCURVE",
"1523 102 CURVE",
"1531 102 LINE",
"1580 29 OFFCURVE",
"1649 0 OFFCURVE",
"1733 0 CURVE",
"1733 155 LINE",
"1682 155 OFFCURVE",
"1642 190 OFFCURVE",
"1611 259 CURVE SMOOTH",
"1580 328 OFFCURVE",
"1532 455 OFFCURVE",
"1467 638 CURVE SMOOTH",
"1335 1005 OFFCURVE",
"1240 1131 OFFCURVE",
"1000 1131 CURVE SMOOTH",
"807 1131 OFFCURVE",
"626 945 OFFCURVE",
"626 722 CURVE SMOOTH",
"626 513 OFFCURVE",
"750 413 OFFCURVE",
"1043 413 CURVE SMOOTH",
"1146 413 OFFCURVE",
"1261 426 OFFCURVE",
"1374 463 CURVE",
"1418 345 LINE SMOOTH",
"1432 307 OFFCURVE",
"1445 272 OFFCURVE",
"1457 241 CURVE",
"1428 182 OFFCURVE",
"1334 155 OFFCURVE",
"1233 155 CURVE SMOOTH",
"548 155 LINE SMOOTH",
"345 155 OFFCURVE",
"272 175 OFFCURVE",
"207 268 CURVE",
"100 174 LINE",
"156 49 OFFCURVE",
"272 0 OFFCURVE",
"472 0 CURVE SMOOTH"
);
},
{
closed = 1;
nodes = (
"865 562 OFFCURVE",
"776 607 OFFCURVE",
"776 736 CURVE SMOOTH",
"776 857 OFFCURVE",
"885 976 OFFCURVE",
"997 976 CURVE SMOOTH",
"1061 976 OFFCURVE",
"1109 963 OFFCURVE",
"1141 938 CURVE SMOOTH",
"1204 886 OFFCURVE",
"1252 784 OFFCURVE",
"1324 595 CURVE",
"1247 573 OFFCURVE",
"1155 562 OFFCURVE",
"1048 562 CURVE SMOOTH"
);
}
);
width = 1733;
}
);
note = g82;
},
{
glyphname = g83;
lastChange = "2016-11-30 01:18:20 +0000";
layers = (
{
layerId = "1C6E6581-F718-4B48-B828-7898AD953AFB";
paths = (
{
closed = 1;
nodes = (
"747 0 LINE SMOOTH",
"902 0 OFFCURVE",
"1006 42 OFFCURVE",
"1059 102 CURVE",
"1067 102 LINE",
"1116 29 OFFCURVE",
"1185 0 OFFCURVE",
"1269 0 CURVE",
"1269 155 LINE",
"1218 155 OFFCURVE",
"1178 190 OFFCURVE",
"1147 259 CURVE SMOOTH",
"1116 328 OFFCURVE",
"1068 455 OFFCURVE",
"1003 638 CURVE SMOOTH",
"871 1005 OFFCURVE",
"776 1131 OFFCURVE",
"536 1131 CURVE SMOOTH",
"343 1131 OFFCURVE",
"162 945 OFFCURVE",
"162 722 CURVE SMOOTH",
"162 513 OFFCURVE",
"286 413 OFFCURVE",
"579 413 CURVE SMOOTH",
"682 413 OFFCURVE",
"797 426 OFFCURVE",
"910 463 CURVE",
"954 345 LINE SMOOTH",
"968 307 OFFCURVE",
"981 272 OFFCURVE",
"993 241 CURVE",
"964 182 OFFCURVE",
"870 155 OFFCURVE",
"769 155 CURVE SMOOTH",
"0 155 LINE SMOOTH",
"-44 155 OFFCURVE",
"-80 125 OFFCURVE",
"-80 77 CURVE SMOOTH",
"-80 29 OFFCURVE",
"-44 0 OFFCURVE",
"0 0 CURVE SMOOTH"
);
},
{
closed = 1;
nodes = (
"401 562 OFFCURVE",
"312 607 OFFCURVE",
"312 736 CURVE SMOOTH",
"312 857 OFFCURVE",
"421 976 OFFCURVE",
"533 976 CURVE SMOOTH",
"597 976 OFFCURVE",
"645 963 OFFCURVE",
"677 938 CURVE SMOOTH",
"740 886 OFFCURVE",
"788 784 OFFCURVE",
"860 595 CURVE",
"783 573 OFFCURVE",
"691 562 OFFCURVE",
"584 562 CURVE SMOOTH"
);
}
);
width = 1269;
}
);
note = g83;
},
{
glyphname = g84;
lastChange = "2016-11-30 01:18:20 +0000";
layers = (
{
layerId = "1C6E6581-F718-4B48-B828-7898AD953AFB";
paths = (
{
closed = 1;
nodes = (
"991 0 LINE SMOOTH",
"1084 0 OFFCURVE",
"1141 61 OFFCURVE",
"1141 172 CURVE SMOOTH",
"1141 252 OFFCURVE",
"1059 495 OFFCURVE",
"996 654 CURVE",
"997 654 LINE",
"953 764 LINE SMOOTH",
"848 1021 OFFCURVE",
"753 1131 OFFCURVE",
"536 1131 CURVE SMOOTH",
"343 1131 OFFCURVE",
"162 945 OFFCURVE",
"162 722 CURVE SMOOTH",
"162 513 OFFCURVE",
"286 413 OFFCURVE",
"579 413 CURVE SMOOTH",
"682 413 OFFCURVE",
"797 426 OFFCURVE",
"909 463 CURVE",
"954 335 OFFCURVE",
"994 207 OFFCURVE",
"999 155 CURVE",
"0 155 LINE SMOOTH",
"-44 155 OFFCURVE",
"-80 125 OFFCURVE",
"-80 77 CURVE SMOOTH",
"-80 29 OFFCURVE",
"-44 0 OFFCURVE",
"0 0 CURVE SMOOTH"
);
},
{
closed = 1;
nodes = (
"401 562 OFFCURVE",
"312 607 OFFCURVE",
"312 736 CURVE SMOOTH",
"312 857 OFFCURVE",
"421 976 OFFCURVE",
"533 976 CURVE SMOOTH",
"642 976 OFFCURVE",
"686 943 OFFCURVE",
"736 868 CURVE SMOOTH",
"761 831 OFFCURVE",
"791 768 OFFCURVE",
"827 679 CURVE SMOOTH",
"860 595 LINE",
"783 573 OFFCURVE",
"691 562 OFFCURVE",
"584 562 CURVE SMOOTH"
);
}
);
width = 1261;
}
);
note = g84;
},
{
glyphname = uni0727;
lastChange = "2016-11-30 01:18:20 +0000";
layers = (
{
layerId = "1C6E6581-F718-4B48-B828-7898AD953AFB";
paths = (
{
closed = 1;
nodes = (
"1552 0 LINE",
"1552 155 LINE",
"1411 155 LINE SMOOTH",
"930 155 OFFCURVE",
"692 305 OFFCURVE",
"692 588 CURVE SMOOTH",
"692 752 OFFCURVE",
"822 867 OFFCURVE",
"986 867 CURVE SMOOTH",
"1141 867 OFFCURVE",
"1249 791 OFFCURVE",
"1249 671 CURVE SMOOTH",
"1249 583 OFFCURVE",
"1200 522 OFFCURVE",
"1108 522 CURVE SMOOTH",
"1039 522 OFFCURVE",
"984 562 OFFCURVE",
"973 654 CURVE",
"851 640 LINE",
"851 488 OFFCURVE",
"954 387 OFFCURVE",
"1114 387 CURVE SMOOTH",
"1293 387 OFFCURVE",
"1393 491 OFFCURVE",
"1393 674 CURVE SMOOTH",
"1393 870 OFFCURVE",
"1215 1017 OFFCURVE",
"980 1017 CURVE SMOOTH",
"728 1017 OFFCURVE",
"540 829 OFFCURVE",
"540 580 CURVE SMOOTH",
"540 388 OFFCURVE",
"626 227 OFFCURVE",
"767 160 CURVE",
"767 152 LINE",
"746 154 OFFCURVE",
"724 155 OFFCURVE",
"703 155 CURVE SMOOTH",
"557 155 LINE SMOOTH",
"377 155 OFFCURVE",
"284 180 OFFCURVE",
"212 283 CURVE",
"120 160 LINE",
"163 61 OFFCURVE",
"299 0 OFFCURVE",
"511 0 CURVE SMOOTH"
);
},
{
closed = 1;
nodes = (
"848 1127 OFFCURVE",
"887 1167 OFFCURVE",
"887 1242 CURVE SMOOTH",
"887 1318 OFFCURVE",
"849 1358 OFFCURVE",
"781 1358 CURVE SMOOTH",
"717 1358 OFFCURVE",
"680 1318 OFFCURVE",
"680 1242 CURVE SMOOTH",
"680 1159 OFFCURVE",
"722 1127 OFFCURVE",
"781 1127 CURVE SMOOTH"
);
},
{
closed = 1;
nodes = (
"1226 1127 OFFCURVE",
"1265 1167 OFFCURVE",
"1265 1242 CURVE SMOOTH",
"1265 1318 OFFCURVE",
"1227 1358 OFFCURVE",
"1159 1358 CURVE SMOOTH",
"1095 1358 OFFCURVE",
"1058 1318 OFFCURVE",
"1058 1242 CURVE SMOOTH",
"1058 1159 OFFCURVE",
"1100 1127 OFFCURVE",
"1159 1127 CURVE SMOOTH"
);
}
);
width = 1652;
}
);
note = uni0727;
unicode = 0727;
},
{
glyphname = g86;
lastChange = "2016-11-30 01:18:20 +0000";
layers = (
{
layerId = "1C6E6581-F718-4B48-B828-7898AD953AFB";
paths = (
{
closed = 1;
nodes = (
"1553 0 LINE",
"1553 155 LINE",
"1411 155 LINE SMOOTH",
"930 155 OFFCURVE",
"692 305 OFFCURVE",
"692 588 CURVE SMOOTH",
"692 752 OFFCURVE",
"822 867 OFFCURVE",
"986 867 CURVE SMOOTH",
"1141 867 OFFCURVE",
"1249 791 OFFCURVE",
"1249 671 CURVE SMOOTH",
"1249 583 OFFCURVE",
"1200 522 OFFCURVE",
"1108 522 CURVE SMOOTH",
"1039 522 OFFCURVE",
"984 562 OFFCURVE",
"973 654 CURVE",
"851 640 LINE",
"851 488 OFFCURVE",
"954 387 OFFCURVE",
"1114 387 CURVE SMOOTH",
"1293 387 OFFCURVE",
"1393 491 OFFCURVE",
"1393 674 CURVE SMOOTH",
"1393 870 OFFCURVE",
"1215 1017 OFFCURVE",
"980 1017 CURVE SMOOTH",
"728 1017 OFFCURVE",
"540 829 OFFCURVE",
"540 580 CURVE SMOOTH",
"540 388 OFFCURVE",
"626 227 OFFCURVE",
"767 160 CURVE",
"767 152 LINE",
"746 154 OFFCURVE",
"724 155 OFFCURVE",
"703 155 CURVE SMOOTH",
"557 155 LINE SMOOTH",
"377 155 OFFCURVE",
"284 180 OFFCURVE",
"212 283 CURVE",
"120 160 LINE",
"163 61 OFFCURVE",
"299 0 OFFCURVE",
"511 0 CURVE SMOOTH"
);
},
{
closed = 1;
nodes = (
"848 1127 OFFCURVE",
"887 1167 OFFCURVE",
"887 1242 CURVE SMOOTH",
"887 1318 OFFCURVE",
"849 1358 OFFCURVE",
"781 1358 CURVE SMOOTH",
"717 1358 OFFCURVE",
"680 1318 OFFCURVE",
"680 1242 CURVE SMOOTH",
"680 1159 OFFCURVE",
"722 1127 OFFCURVE",
"781 1127 CURVE SMOOTH"
);
},
{
closed = 1;
nodes = (
"1226 1127 OFFCURVE",
"1265 1167 OFFCURVE",
"1265 1242 CURVE SMOOTH",
"1265 1318 OFFCURVE",
"1227 1358 OFFCURVE",
"1159 1358 CURVE SMOOTH",
"1095 1358 OFFCURVE",
"1058 1318 OFFCURVE",
"1058 1242 CURVE SMOOTH",
"1058 1159 OFFCURVE",
"1100 1127 OFFCURVE",
"1159 1127 CURVE SMOOTH"
);
}
);
width = 1553;
}
);
note = g86;
},
{
glyphname = g87;
lastChange = "2016-11-30 01:18:20 +0000";
layers = (
{
layerId = "1C6E6581-F718-4B48-B828-7898AD953AFB";
paths = (
{
closed = 1;
nodes = (
"1190 0 LINE",
"1190 155 LINE",
"1049 155 LINE SMOOTH",
"568 155 OFFCURVE",
"330 305 OFFCURVE",
"330 588 CURVE SMOOTH",
"330 752 OFFCURVE",
"460 867 OFFCURVE",
"624 867 CURVE SMOOTH",
"779 867 OFFCURVE",
"887 791 OFFCURVE",
"887 671 CURVE SMOOTH",
"887 583 OFFCURVE",
"838 522 OFFCURVE",
"746 522 CURVE SMOOTH",
"677 522 OFFCURVE",
"622 562 OFFCURVE",
"611 654 CURVE",
"489 640 LINE",
"489 488 OFFCURVE",
"592 387 OFFCURVE",
"752 387 CURVE SMOOTH",
"931 387 OFFCURVE",
"1031 491 OFFCURVE",
"1031 674 CURVE SMOOTH",
"1031 870 OFFCURVE",
"853 1017 OFFCURVE",
"618 1017 CURVE SMOOTH",
"366 1017 OFFCURVE",
"178 829 OFFCURVE",
"178 580 CURVE SMOOTH",
"178 388 OFFCURVE",
"264 227 OFFCURVE",
"405 160 CURVE",
"405 152 LINE",
"384 154 OFFCURVE",
"362 155 OFFCURVE",
"341 155 CURVE SMOOTH",
"0 155 LINE SMOOTH",
"-44 155 OFFCURVE",
"-80 125 OFFCURVE",
"-80 77 CURVE SMOOTH",
"-80 29 OFFCURVE",
"-44 0 OFFCURVE",
"0 0 CURVE SMOOTH"
);
},
{
closed = 1;
nodes = (
"486 1127 OFFCURVE",
"525 1167 OFFCURVE",
"525 1242 CURVE SMOOTH",
"525 1318 OFFCURVE",
"487 1358 OFFCURVE",
"419 1358 CURVE SMOOTH",
"355 1358 OFFCURVE",
"318 1318 OFFCURVE",
"318 1242 CURVE SMOOTH",
"318 1159 OFFCURVE",
"360 1127 OFFCURVE",
"419 1127 CURVE SMOOTH"
);
},
{
closed = 1;
nodes = (
"864 1127 OFFCURVE",
"903 1167 OFFCURVE",
"903 1242 CURVE SMOOTH",
"903 1318 OFFCURVE",
"865 1358 OFFCURVE",
"797 1358 CURVE SMOOTH",
"733 1358 OFFCURVE",
"696 1318 OFFCURVE",
"696 1242 CURVE SMOOTH",
"696 1159 OFFCURVE",
"738 1127 OFFCURVE",
"797 1127 CURVE SMOOTH"
);
}
);
width = 1190;
}
);
note = g87;
},
{
glyphname = g88;
lastChange = "2016-11-30 01:18:20 +0000";
layers = (
{
layerId = "1C6E6581-F718-4B48-B828-7898AD953AFB";
paths = (
{
closed = 1;
nodes = (
"1190 0 LINE",
"1190 155 LINE",
"1049 155 LINE SMOOTH",
"568 155 OFFCURVE",
"330 305 OFFCURVE",
"330 588 CURVE SMOOTH",
"330 752 OFFCURVE",
"460 867 OFFCURVE",
"624 867 CURVE SMOOTH",
"779 867 OFFCURVE",
"887 791 OFFCURVE",
"887 671 CURVE SMOOTH",
"887 583 OFFCURVE",
"838 522 OFFCURVE",
"746 522 CURVE SMOOTH",
"677 522 OFFCURVE",
"622 562 OFFCURVE",
"611 654 CURVE",
"489 640 LINE",
"489 488 OFFCURVE",
"592 387 OFFCURVE",
"752 387 CURVE SMOOTH",
"931 387 OFFCURVE",
"1031 491 OFFCURVE",
"1031 674 CURVE SMOOTH",
"1031 870 OFFCURVE",
"853 1017 OFFCURVE",
"618 1017 CURVE SMOOTH",
"366 1017 OFFCURVE",
"178 829 OFFCURVE",
"178 580 CURVE SMOOTH",
"178 388 OFFCURVE",
"264 227 OFFCURVE",
"405 160 CURVE",
"405 152 LINE",
"384 154 OFFCURVE",
"362 155 OFFCURVE",
"341 155 CURVE SMOOTH",
"0 155 LINE SMOOTH",
"-44 155 OFFCURVE",
"-80 125 OFFCURVE",
"-80 77 CURVE SMOOTH",
"-80 29 OFFCURVE",
"-44 0 OFFCURVE",
"0 0 CURVE SMOOTH"
);
},
{
closed = 1;
nodes = (
"486 1127 OFFCURVE",
"525 1167 OFFCURVE",
"525 1242 CURVE SMOOTH",
"525 1318 OFFCURVE",
"487 1358 OFFCURVE",
"419 1358 CURVE SMOOTH",
"355 1358 OFFCURVE",
"318 1318 OFFCURVE",
"318 1242 CURVE SMOOTH",
"318 1159 OFFCURVE",
"360 1127 OFFCURVE",
"419 1127 CURVE SMOOTH"
);
},
{
closed = 1;
nodes = (
"864 1127 OFFCURVE",
"903 1167 OFFCURVE",
"903 1242 CURVE SMOOTH",
"903 1318 OFFCURVE",
"865 1358 OFFCURVE",
"797 1358 CURVE SMOOTH",
"733 1358 OFFCURVE",
"696 1318 OFFCURVE",
"696 1242 CURVE SMOOTH",
"696 1159 OFFCURVE",
"738 1127 OFFCURVE",
"797 1127 CURVE SMOOTH"
);
}
);
width = 1213;
}
);
note = g88;
},
{
glyphname = uni0728;
lastChange = "2016-11-30 01:18:20 +0000";
layers = (
{
layerId = "1C6E6581-F718-4B48-B828-7898AD953AFB";
paths = (
{
closed = 1;
nodes = (
"548 -780 OFFCURVE",
"683 -773 OFFCURVE",
"781 -758 CURVE SMOOTH",
"977 -729 OFFCURVE",
"1079 -675 OFFCURVE",
"1079 -506 CURVE SMOOTH",
"1079 -365 OFFCURVE",
"963 -289 OFFCURVE",
"693 -210 CURVE SMOOTH",
"558 -171 OFFCURVE",
"468 -136 OFFCURVE",
"424 -107 CURVE SMOOTH",
"379 -78 OFFCURVE",
"357 -43 OFFCURVE",
"357 -4 CURVE SMOOTH",
"357 55 OFFCURVE",
"404 92 OFFCURVE",
"464 92 CURVE SMOOTH",
"486 92 OFFCURVE",
"509 87 OFFCURVE",
"533 78 CURVE SMOOTH",
"611 46 LINE SMOOTH",
"666 25 OFFCURVE",
"736 0 OFFCURVE",
"823 0 CURVE SMOOTH",
"984 0 OFFCURVE",
"1096 86 OFFCURVE",
"1103 234 CURVE",
"963 234 LINE",
"947 181 OFFCURVE",
"902 155 OFFCURVE",
"828 155 CURVE SMOOTH",
"773 155 OFFCURVE",
"714 170 OFFCURVE",
"651 200 CURVE SMOOTH",
"588 230 OFFCURVE",
"527 245 OFFCURVE",
"470 245 CURVE SMOOTH",
"327 245 OFFCURVE",
"207 136 OFFCURVE",
"207 -3 CURVE SMOOTH",
"207 -76 OFFCURVE",
"230 -136 OFFCURVE",
"276 -183 CURVE SMOOTH",
"368 -278 OFFCURVE",
"548 -327 OFFCURVE",
"766 -395 CURVE SMOOTH",
"875 -429 OFFCURVE",
"929 -466 OFFCURVE",
"929 -505 CURVE SMOOTH",
"929 -533 OFFCURVE",
"918 -555 OFFCURVE",
"897 -571 CURVE SMOOTH",
"876 -588 OFFCURVE",
"829 -601 OFFCURVE",
"757 -610 CURVE SMOOTH",
"684 -619 OFFCURVE",
"545 -624 OFFCURVE",
"338 -624 CURVE SMOOTH",
"109 -624 OFFCURVE",
"-111 -618 OFFCURVE",
"-387 -609 CURVE",
"-400 -751 LINE",
"-292 -759 OFFCURVE",
"-191 -764 OFFCURVE",
"-98 -768 CURVE SMOOTH",
"51 -773 LINE SMOOTH",
"135 -777 OFFCURVE",
"222 -779 OFFCURVE",
"297 -779 CURVE SMOOTH",
"375 -780 LINE SMOOTH"
);
}
);
width = 1283;
}
);
note = uni0728;
unicode = 0728;
},
{
glyphname = g90;
lastChange = "2016-11-30 01:18:20 +0000";
layers = (
{
layerId = "1C6E6581-F718-4B48-B828-7898AD953AFB";
paths = (
{
closed = 1;
nodes = (
"548 -780 OFFCURVE",
"683 -773 OFFCURVE",
"781 -758 CURVE SMOOTH",
"977 -729 OFFCURVE",
"1079 -675 OFFCURVE",
"1079 -506 CURVE SMOOTH",
"1079 -363 OFFCURVE",
"961 -288 OFFCURVE",
"682 -207 CURVE SMOOTH",
"543 -166 OFFCURVE",
"450 -132 OFFCURVE",
"403 -103 CURVE SMOOTH",
"356 -75 OFFCURVE",
"332 -42 OFFCURVE",
"332 -4 CURVE SMOOTH",
"332 55 OFFCURVE",
"379 92 OFFCURVE",
"439 92 CURVE SMOOTH",
"470 92 OFFCURVE",
"522 77 OFFCURVE",
"595 46 CURVE SMOOTH",
"668 15 OFFCURVE",
"728 0 OFFCURVE",
"773 0 CURVE SMOOTH",
"853 0 OFFCURVE",
"921 13 OFFCURVE",
"965 68 CURVE",
"973 68 LINE",
"1014 13 OFFCURVE",
"1075 0 OFFCURVE",
"1139 0 CURVE",
"1139 155 LINE",
"1098 155 OFFCURVE",
"1061 186 OFFCURVE",
"1054 234 CURVE",
"939 234 LINE",
"916 178 OFFCURVE",
"871 155 OFFCURVE",
"796 155 CURVE SMOOTH",
"755 155 OFFCURVE",
"701 170 OFFCURVE",
"634 200 CURVE SMOOTH",
"567 230 OFFCURVE",
"504 245 OFFCURVE",
"445 245 CURVE SMOOTH",
"302 245 OFFCURVE",
"182 136 OFFCURVE",
"182 -3 CURVE SMOOTH",
"182 -152 OFFCURVE",
"297 -242 OFFCURVE",
"464 -297 CURVE SMOOTH",
"609 -345 LINE",
"726 -380 LINE SMOOTH",
"793 -401 OFFCURVE",
"844 -421 OFFCURVE",
"878 -440 CURVE SMOOTH",
"912 -460 OFFCURVE",
"929 -482 OFFCURVE",
"929 -505 CURVE SMOOTH",
"929 -533 OFFCURVE",
"918 -555 OFFCURVE",
"897 -571 CURVE SMOOTH",
"876 -588 OFFCURVE",
"829 -601 OFFCURVE",
"757 -610 CURVE SMOOTH",
"684 -619 OFFCURVE",
"545 -624 OFFCURVE",
"338 -624 CURVE SMOOTH",
"109 -624 OFFCURVE",
"-111 -618 OFFCURVE",
"-387 -609 CURVE",
"-400 -751 LINE",
"-292 -759 OFFCURVE",
"-191 -764 OFFCURVE",
"-98 -768 CURVE SMOOTH",
"51 -773 LINE SMOOTH",
"135 -777 OFFCURVE",
"222 -779 OFFCURVE",
"297 -779 CURVE SMOOTH",
"375 -780 LINE SMOOTH"
);
}
);
width = 1139;
}
);
note = g90;
},
{
glyphname = uni0729;
lastChange = "2016-11-30 01:18:20 +0000";
layers = (
{
layerId = "1C6E6581-F718-4B48-B828-7898AD953AFB";
paths = (
{
closed = 1;
nodes = (
"563 -79 OFFCURVE",
"669 -31 OFFCURVE",
"736 60 CURVE",
"791 21 OFFCURVE",
"862 0 OFFCURVE",
"955 0 CURVE SMOOTH",
"1199 0 LINE SMOOTH",
"1452 0 OFFCURVE",
"1569 108 OFFCURVE",
"1569 348 CURVE SMOOTH",
"1569 424 OFFCURVE",
"1552 671 OFFCURVE",
"1498 757 CURVE SMOOTH",
"1444 843 OFFCURVE",
"1361 872 OFFCURVE",
"1196 872 CURVE SMOOTH",
"779 872 LINE SMOOTH",
"630 872 OFFCURVE",
"542 771 OFFCURVE",
"542 623 CURVE SMOOTH",
"542 371 OFFCURVE",
"569 255 OFFCURVE",
"632 172 CURVE",
"588 108 OFFCURVE",
"528 65 OFFCURVE",
"427 65 CURVE SMOOTH",
"327 65 OFFCURVE",
"256 100 OFFCURVE",
"192 191 CURVE",
"100 103 LINE",
"141 0 OFFCURVE",
"271 -79 OFFCURVE",
"412 -79 CURVE SMOOTH"
);
},
{
closed = 1;
nodes = (
"909 155 OFFCURVE",
"845 169 OFFCURVE",
"806 198 CURVE SMOOTH",
"728 255 OFFCURVE",
"691 374 OFFCURVE",
"691 574 CURVE SMOOTH",
"691 682 OFFCURVE",
"726 722 OFFCURVE",
"822 722 CURVE SMOOTH",
"1203 722 LINE SMOOTH",
"1278 722 OFFCURVE",
"1329 709 OFFCURVE",
"1355 684 CURVE SMOOTH",
"1406 633 OFFCURVE",
"1422 451 OFFCURVE",
"1422 336 CURVE SMOOTH",
"1422 217 OFFCURVE",
"1369 155 OFFCURVE",
"1241 155 CURVE SMOOTH",
"999 155 LINE SMOOTH"
);
}
);
width = 1709;
}
);
note = uni0729;
unicode = 0729;
},
{
glyphname = g92;
lastChange = "2016-11-30 01:18:20 +0000";
layers = (
{
layerId = "1C6E6581-F718-4B48-B828-7898AD953AFB";
paths = (
{
closed = 1;
nodes = (
"553 -79 OFFCURVE",
"661 -38 OFFCURVE",
"734 62 CURVE",
"742 62 LINE",
"785 21 OFFCURVE",
"860 0 OFFCURVE",
"955 0 CURVE SMOOTH",
"1199 0 LINE SMOOTH",
"1326 0 OFFCURVE",
"1401 18 OFFCURVE",
"1469 86 CURVE",
"1480 86 LINE",
"1539 14 OFFCURVE",
"1609 0 OFFCURVE",
"1730 0 CURVE",
"1730 155 LINE",
"1669 155 OFFCURVE",
"1626 160 OFFCURVE",
"1600 169 CURVE SMOOTH",
"1574 178 OFFCURVE",
"1558 192 OFFCURVE",
"1551 211 CURVE",
"1563 250 OFFCURVE",
"1569 295 OFFCURVE",
"1569 348 CURVE SMOOTH",
"1569 424 OFFCURVE",
"1552 671 OFFCURVE",
"1498 757 CURVE SMOOTH",
"1444 843 OFFCURVE",
"1361 872 OFFCURVE",
"1196 872 CURVE SMOOTH",
"779 872 LINE SMOOTH",
"630 872 OFFCURVE",
"542 771 OFFCURVE",
"542 623 CURVE SMOOTH",
"542 383 OFFCURVE",
"565 257 OFFCURVE",
"637 165 CURVE",
"593 105 OFFCURVE",
"527 65 OFFCURVE",
"427 65 CURVE SMOOTH",
"327 65 OFFCURVE",
"256 100 OFFCURVE",
"192 191 CURVE",
"100 103 LINE",
"141 0 OFFCURVE",
"271 -79 OFFCURVE",
"412 -79 CURVE SMOOTH"
);
},
{
closed = 1;
nodes = (
"909 155 OFFCURVE",
"845 169 OFFCURVE",
"806 198 CURVE SMOOTH",
"728 255 OFFCURVE",
"691 374 OFFCURVE",
"691 574 CURVE SMOOTH",
"691 682 OFFCURVE",
"726 722 OFFCURVE",
"822 722 CURVE SMOOTH",
"1203 722 LINE SMOOTH",
"1278 722 OFFCURVE",
"1329 709 OFFCURVE",
"1355 684 CURVE SMOOTH",
"1406 633 OFFCURVE",
"1422 451 OFFCURVE",
"1422 336 CURVE SMOOTH",
"1422 217 OFFCURVE",
"1369 155 OFFCURVE",
"1241 155 CURVE SMOOTH",
"999 155 LINE SMOOTH"
);
}
);
width = 1730;
}
);
note = g92;
},
{
glyphname = g93;
lastChange = "2016-11-30 01:18:20 +0000";
layers = (
{
layerId = "1C6E6581-F718-4B48-B828-7898AD953AFB";
paths = (
{
closed = 1;
nodes = (
"71 0 LINE SMOOTH",
"220 0 OFFCURVE",
"307 31 OFFCURVE",
"343 99 CURVE",
"352 99 LINE",
"411 31 OFFCURVE",
"485 0 OFFCURVE",
"608 0 CURVE SMOOTH",
"852 0 LINE SMOOTH",
"984 0 OFFCURVE",
"1058 22 OFFCURVE",
"1122 86 CURVE",
"1133 86 LINE",
"1192 14 OFFCURVE",
"1262 0 OFFCURVE",
"1383 0 CURVE",
"1383 155 LINE",
"1322 155 OFFCURVE",
"1279 160 OFFCURVE",
"1253 169 CURVE SMOOTH",
"1227 178 OFFCURVE",
"1211 192 OFFCURVE",
"1204 211 CURVE",
"1216 251 OFFCURVE",
"1222 297 OFFCURVE",
"1222 348 CURVE SMOOTH",
"1222 451 OFFCURVE",
"1212 548 OFFCURVE",
"1191 639 CURVE SMOOTH",
"1149 821 OFFCURVE",
"1056 872 OFFCURVE",
"849 872 CURVE SMOOTH",
"432 872 LINE SMOOTH",
"283 872 OFFCURVE",
"195 771 OFFCURVE",
"195 623 CURVE SMOOTH",
"195 431 OFFCURVE",
"209 304 OFFCURVE",
"260 211 CURVE",
"254 192 OFFCURVE",
"238 178 OFFCURVE",
"213 169 CURVE SMOOTH",
"187 160 OFFCURVE",
"147 155 OFFCURVE",
"93 155 CURVE SMOOTH",
"0 155 LINE SMOOTH",
"-44 155 OFFCURVE",
"-80 125 OFFCURVE",
"-80 77 CURVE SMOOTH",
"-80 29 OFFCURVE",
"-44 0 OFFCURVE",
"0 0 CURVE SMOOTH"
);
},
{
closed = 1;
nodes = (
"562 155 OFFCURVE",
"498 169 OFFCURVE",
"459 198 CURVE SMOOTH",
"381 255 OFFCURVE",
"344 374 OFFCURVE",
"344 574 CURVE SMOOTH",
"344 682 OFFCURVE",
"379 722 OFFCURVE",
"475 722 CURVE SMOOTH",
"856 722 LINE SMOOTH",
"931 722 OFFCURVE",
"982 709 OFFCURVE",
"1008 684 CURVE SMOOTH",
"1059 633 OFFCURVE",
"1075 451 OFFCURVE",
"1075 336 CURVE SMOOTH",
"1075 217 OFFCURVE",
"1022 155 OFFCURVE",
"894 155 CURVE SMOOTH",
"652 155 LINE SMOOTH"
);
}
);
width = 1383;
}
);
note = g93;
},
{
glyphname = g94;
lastChange = "2016-11-30 01:18:20 +0000";
layers = (
{
layerId = "1C6E6581-F718-4B48-B828-7898AD953AFB";
paths = (
{
closed = 1;
nodes = (
"71 0 LINE SMOOTH",
"220 0 OFFCURVE",
"307 31 OFFCURVE",
"343 99 CURVE",
"352 99 LINE",
"411 31 OFFCURVE",
"485 0 OFFCURVE",
"608 0 CURVE SMOOTH",
"852 0 LINE SMOOTH",
"1105 0 OFFCURVE",
"1222 107 OFFCURVE",
"1222 348 CURVE SMOOTH",
"1222 451 OFFCURVE",
"1212 548 OFFCURVE",
"1191 639 CURVE SMOOTH",
"1149 821 OFFCURVE",
"1056 872 OFFCURVE",
"849 872 CURVE SMOOTH",
"432 872 LINE SMOOTH",
"283 872 OFFCURVE",
"195 771 OFFCURVE",
"195 623 CURVE SMOOTH",
"195 431 OFFCURVE",
"209 304 OFFCURVE",
"260 211 CURVE",
"254 192 OFFCURVE",
"238 178 OFFCURVE",
"213 169 CURVE SMOOTH",
"187 160 OFFCURVE",
"147 155 OFFCURVE",
"93 155 CURVE SMOOTH",
"0 155 LINE SMOOTH",
"-44 155 OFFCURVE",
"-80 125 OFFCURVE",
"-80 77 CURVE SMOOTH",
"-80 29 OFFCURVE",
"-44 0 OFFCURVE",
"0 0 CURVE SMOOTH"
);
},
{
closed = 1;
nodes = (
"562 155 OFFCURVE",
"498 169 OFFCURVE",
"459 198 CURVE SMOOTH",
"381 255 OFFCURVE",
"344 374 OFFCURVE",
"344 574 CURVE SMOOTH",
"344 682 OFFCURVE",
"379 722 OFFCURVE",
"475 722 CURVE SMOOTH",
"856 722 LINE SMOOTH",
"931 722 OFFCURVE",
"982 709 OFFCURVE",
"1008 684 CURVE SMOOTH",
"1059 633 OFFCURVE",
"1075 451 OFFCURVE",
"1075 336 CURVE SMOOTH",
"1075 217 OFFCURVE",
"1022 155 OFFCURVE",
"894 155 CURVE SMOOTH",
"652 155 LINE SMOOTH"
);
}
);
width = 1362;
}
);
note = g94;
},
{
glyphname = g96;
lastChange = "2016-11-30 01:18:20 +0000";
layers = (
{
layerId = "1C6E6581-F718-4B48-B828-7898AD953AFB";
paths = (
{
closed = 1;
nodes = (
"962 -36 LINE",
"954 37 LINE",
"962 37 LINE",
"987 12 OFFCURVE",
"1031 0 OFFCURVE",
"1080 0 CURVE SMOOTH",
"1088 0 LINE",
"1088 155 LINE",
"1063 155 LINE SMOOTH",
"988 155 OFFCURVE",
"941 177 OFFCURVE",
"933 228 CURVE SMOOTH",
"911 380 LINE SMOOTH",
"882 581 OFFCURVE",
"857 714 OFFCURVE",
"837 777 CURVE SMOOTH",
"816 840 OFFCURVE",
"762 872 OFFCURVE",
"675 872 CURVE SMOOTH",
"90 872 LINE",
"90 722 LINE",
"698 722 LINE",
"730 623 OFFCURVE",
"792 189 OFFCURVE",
"816 -36 CURVE"
);
},
{
closed = 1;
nodes = (
"520 1017 OFFCURVE",
"559 1057 OFFCURVE",
"559 1132 CURVE SMOOTH",
"559 1208 OFFCURVE",
"521 1248 OFFCURVE",
"453 1248 CURVE SMOOTH",
"389 1248 OFFCURVE",
"352 1208 OFFCURVE",
"352 1132 CURVE SMOOTH",
"352 1049 OFFCURVE",
"394 1017 OFFCURVE",
"453 1017 CURVE SMOOTH"
);
}
);
width = 1088;
}
);
note = g96;
},
{
glyphname = uni072B;
lastChange = "2016-11-30 01:18:20 +0000";
layers = (
{
layerId = "1C6E6581-F718-4B48-B828-7898AD953AFB";
paths = (
{
closed = 1;
nodes = (
"639 0 LINE SMOOTH",
"807 0 OFFCURVE",
"934 65 OFFCURVE",
"987 177 CURVE",
"995 177 LINE",
"1064 56 OFFCURVE",
"1192 0 OFFCURVE",
"1355 0 CURVE SMOOTH",
"1444 0 LINE SMOOTH",
"1656 0 OFFCURVE",
"1784 58 OFFCURVE",
"1836 174 CURVE",
"1732 264 LINE",
"1667 177 OFFCURVE",
"1598 155 OFFCURVE",
"1374 155 CURVE SMOOTH",
"1153 155 OFFCURVE",
"1050 265 OFFCURVE",
"1050 473 CURVE SMOOTH",
"1050 538 OFFCURVE",
"1064 590 OFFCURVE",
"1092 629 CURVE SMOOTH",
"1148 708 OFFCURVE",
"1259 721 OFFCURVE",
"1352 729 CURVE SMOOTH",
"1398 732 OFFCURVE",
"1421 756 OFFCURVE",
"1421 800 CURVE SMOOTH",
"1421 849 OFFCURVE",
"1391 877 OFFCURVE",
"1343 877 CURVE SMOOTH",
"1328 877 OFFCURVE",
"1309 875 OFFCURVE",
"1288 871 CURVE SMOOTH",
"1203 853 LINE SMOOTH",
"1142 840 OFFCURVE",
"1059 821 OFFCURVE",
"982 821 CURVE SMOOTH",
"905 821 OFFCURVE",
"825 832 OFFCURVE",
"761 845 CURVE SMOOTH",
"677 863 LINE SMOOTH",
"655 867 OFFCURVE",
"636 869 OFFCURVE",
"621 869 CURVE SMOOTH",
"573 869 OFFCURVE",
"540 843 OFFCURVE",
"540 794 CURVE SMOOTH",
"540 751 OFFCURVE",
"561 728 OFFCURVE",
"604 723 CURVE SMOOTH",
"688 713 OFFCURVE",
"781 707 OFFCURVE",
"841 652 CURVE SMOOTH",
"901 596 OFFCURVE",
"914 506 OFFCURVE",
"914 419 CURVE SMOOTH",
"914 252 OFFCURVE",
"826 155 OFFCURVE",
"671 155 CURVE SMOOTH",
"548 155 LINE SMOOTH",
"345 155 OFFCURVE",
"272 175 OFFCURVE",
"207 268 CURVE",
"100 174 LINE",
"156 49 OFFCURVE",
"272 0 OFFCURVE",
"472 0 CURVE SMOOTH"
);
}
);
width = 1936;
}
);
note = uni072B;
unicode = 072B;
},
{
glyphname = g98;
lastChange = "2016-11-30 01:18:20 +0000";
layers = (
{
layerId = "1C6E6581-F718-4B48-B828-7898AD953AFB";
paths = (
{
closed = 1;
nodes = (
"639 0 LINE SMOOTH",
"807 0 OFFCURVE",
"934 65 OFFCURVE",
"987 177 CURVE",
"995 177 LINE",
"1064 56 OFFCURVE",
"1192 0 OFFCURVE",
"1355 0 CURVE SMOOTH",
"1538 0 LINE",
"1538 155 LINE",
"1361 155 LINE SMOOTH",
"1157 155 OFFCURVE",
"1050 265 OFFCURVE",
"1050 473 CURVE SMOOTH",
"1050 538 OFFCURVE",
"1064 590 OFFCURVE",
"1092 629 CURVE SMOOTH",
"1148 708 OFFCURVE",
"1259 721 OFFCURVE",
"1352 729 CURVE SMOOTH",
"1398 732 OFFCURVE",
"1421 756 OFFCURVE",
"1421 800 CURVE SMOOTH",
"1421 849 OFFCURVE",
"1391 877 OFFCURVE",
"1343 877 CURVE SMOOTH",
"1328 877 OFFCURVE",
"1309 875 OFFCURVE",
"1288 871 CURVE SMOOTH",
"1203 853 LINE SMOOTH",
"1142 840 OFFCURVE",
"1059 821 OFFCURVE",
"982 821 CURVE SMOOTH",
"905 821 OFFCURVE",
"825 832 OFFCURVE",
"761 845 CURVE SMOOTH",
"677 863 LINE SMOOTH",
"655 867 OFFCURVE",
"636 869 OFFCURVE",
"621 869 CURVE SMOOTH",
"573 869 OFFCURVE",
"540 843 OFFCURVE",
"540 794 CURVE SMOOTH",
"540 751 OFFCURVE",
"561 728 OFFCURVE",
"604 723 CURVE SMOOTH",
"688 713 OFFCURVE",
"781 707 OFFCURVE",
"841 652 CURVE SMOOTH",
"901 596 OFFCURVE",
"914 506 OFFCURVE",
"914 419 CURVE SMOOTH",
"914 252 OFFCURVE",
"826 155 OFFCURVE",
"671 155 CURVE SMOOTH",
"548 155 LINE SMOOTH",
"345 155 OFFCURVE",
"272 175 OFFCURVE",
"207 268 CURVE",
"100 174 LINE",
"156 49 OFFCURVE",
"272 0 OFFCURVE",
"472 0 CURVE SMOOTH"
);
}
);
width = 1538;
}
);
note = g98;
},
{
glyphname = g99;
lastChange = "2016-11-30 01:18:20 +0000";
layers = (
{
layerId = "1C6E6581-F718-4B48-B828-7898AD953AFB";
paths = (
{
closed = 1;
nodes = (
"216 0 LINE SMOOTH",
"384 0 OFFCURVE",
"511 65 OFFCURVE",
"564 177 CURVE",
"572 177 LINE",
"641 56 OFFCURVE",
"769 0 OFFCURVE",
"932 0 CURVE SMOOTH",
"1115 0 LINE",
"1115 155 LINE",
"938 155 LINE SMOOTH",
"734 155 OFFCURVE",
"627 265 OFFCURVE",
"627 473 CURVE SMOOTH",
"627 538 OFFCURVE",
"641 590 OFFCURVE",
"669 629 CURVE SMOOTH",
"725 708 OFFCURVE",
"836 721 OFFCURVE",
"929 729 CURVE SMOOTH",
"975 732 OFFCURVE",
"998 756 OFFCURVE",
"998 800 CURVE SMOOTH",
"998 849 OFFCURVE",
"968 877 OFFCURVE",
"920 877 CURVE SMOOTH",
"905 877 OFFCURVE",
"886 875 OFFCURVE",
"865 871 CURVE SMOOTH",
"780 853 LINE SMOOTH",
"719 840 OFFCURVE",
"636 821 OFFCURVE",
"559 821 CURVE SMOOTH",
"482 821 OFFCURVE",
"402 832 OFFCURVE",
"338 845 CURVE SMOOTH",
"254 863 LINE SMOOTH",
"232 867 OFFCURVE",
"213 869 OFFCURVE",
"198 869 CURVE SMOOTH",
"150 869 OFFCURVE",
"117 843 OFFCURVE",
"117 794 CURVE SMOOTH",
"117 751 OFFCURVE",
"138 728 OFFCURVE",
"181 723 CURVE SMOOTH",
"265 713 OFFCURVE",
"358 707 OFFCURVE",
"418 652 CURVE SMOOTH",
"478 596 OFFCURVE",
"491 506 OFFCURVE",
"491 419 CURVE SMOOTH",
"491 252 OFFCURVE",
"403 155 OFFCURVE",
"248 155 CURVE SMOOTH",
"0 155 LINE SMOOTH",
"-44 155 OFFCURVE",
"-80 125 OFFCURVE",
"-80 77 CURVE SMOOTH",
"-80 29 OFFCURVE",
"-44 0 OFFCURVE",
"0 0 CURVE SMOOTH"
);
}
);
width = 1115;
}
);
note = g99;
},
{
glyphname = g100;
lastChange = "2016-11-30 01:18:20 +0000";
layers = (
{
layerId = "1C6E6581-F718-4B48-B828-7898AD953AFB";
paths = (
{
closed = 1;
nodes = (
"216 0 LINE SMOOTH",
"384 0 OFFCURVE",
"511 65 OFFCURVE",
"564 177 CURVE",
"572 177 LINE",
"641 56 OFFCURVE",
"769 0 OFFCURVE",
"932 0 CURVE SMOOTH",
"1021 0 LINE SMOOTH",
"1233 0 OFFCURVE",
"1361 58 OFFCURVE",
"1413 174 CURVE",
"1309 264 LINE",
"1244 177 OFFCURVE",
"1175 155 OFFCURVE",
"951 155 CURVE SMOOTH",
"730 155 OFFCURVE",
"627 265 OFFCURVE",
"627 473 CURVE SMOOTH",
"627 538 OFFCURVE",
"641 590 OFFCURVE",
"669 629 CURVE SMOOTH",
"725 708 OFFCURVE",
"836 721 OFFCURVE",
"929 729 CURVE SMOOTH",
"975 732 OFFCURVE",
"998 756 OFFCURVE",
"998 800 CURVE SMOOTH",
"998 849 OFFCURVE",
"968 877 OFFCURVE",
"920 877 CURVE SMOOTH",
"905 877 OFFCURVE",
"886 875 OFFCURVE",
"865 871 CURVE SMOOTH",
"780 853 LINE SMOOTH",
"719 840 OFFCURVE",
"636 821 OFFCURVE",
"559 821 CURVE SMOOTH",
"482 821 OFFCURVE",
"402 832 OFFCURVE",
"338 845 CURVE SMOOTH",
"254 863 LINE SMOOTH",
"232 867 OFFCURVE",
"213 869 OFFCURVE",
"198 869 CURVE SMOOTH",
"150 869 OFFCURVE",
"117 843 OFFCURVE",
"117 794 CURVE SMOOTH",
"117 751 OFFCURVE",
"138 728 OFFCURVE",
"181 723 CURVE SMOOTH",
"265 713 OFFCURVE",
"358 707 OFFCURVE",
"418 652 CURVE SMOOTH",
"478 596 OFFCURVE",
"491 506 OFFCURVE",
"491 419 CURVE SMOOTH",
"491 252 OFFCURVE",
"403 155 OFFCURVE",
"248 155 CURVE SMOOTH",
"0 155 LINE SMOOTH",
"-44 155 OFFCURVE",
"-80 125 OFFCURVE",
"-80 77 CURVE SMOOTH",
"-80 29 OFFCURVE",
"-44 0 OFFCURVE",
"0 0 CURVE SMOOTH"
);
}
);
width = 1513;
}
);
note = g100;
},
{
glyphname = uni072C;
lastChange = "2016-11-30 01:18:20 +0000";
layers = (
{
layerId = "1C6E6581-F718-4B48-B828-7898AD953AFB";
paths = (
{
closed = 1;
nodes = (
"784 -59 OFFCURVE",
"886 28 OFFCURVE",
"886 192 CURVE SMOOTH",
"886 227 OFFCURVE",
"876 282 OFFCURVE",
"861 326 CURVE SMOOTH",
"848 364 LINE",
"766 581 LINE",
"830 608 OFFCURVE",
"888 631 OFFCURVE",
"939 649 CURVE SMOOTH",
"990 666 OFFCURVE",
"1023 675 OFFCURVE",
"1038 675 CURVE",
"1054 665 OFFCURVE",
"1086 586 OFFCURVE",
"1133 439 CURVE SMOOTH",
"1180 292 OFFCURVE",
"1222 142 OFFCURVE",
"1259 -10 CURVE",
"1410 -10 LINE",
"1326 337 OFFCURVE",
"1237 640 OFFCURVE",
"1178 739 CURVE SMOOTH",
"1148 788 OFFCURVE",
"1097 813 OFFCURVE",
"1025 813 CURVE SMOOTH",
"999 813 OFFCURVE",
"960 806 OFFCURVE",
"909 791 CURVE SMOOTH",
"857 776 OFFCURVE",
"793 750 OFFCURVE",
"716 715 CURVE",
"436 1460 LINE",
"292 1405 LINE",
"578 650 LINE",
"445 580 OFFCURVE",
"352 525 OFFCURVE",
"298 486 CURVE SMOOTH",
"190 406 OFFCURVE",
"133 324 OFFCURVE",
"133 221 CURVE SMOOTH",
"133 16 OFFCURVE",
"370 -59 OFFCURVE",
"583 -59 CURVE SMOOTH"
);
},
{
closed = 1;
nodes = (
"406 86 OFFCURVE",
"282 140 OFFCURVE",
"282 235 CURVE SMOOTH",
"282 275 OFFCURVE",
"311 318 OFFCURVE",
"369 364 CURVE SMOOTH",
"426 409 OFFCURVE",
"513 461 OFFCURVE",
"628 518 CURVE",
"696 339 LINE SMOOTH",
"720 276 OFFCURVE",
"734 219 OFFCURVE",
"734 184 CURVE SMOOTH",
"734 120 OFFCURVE",
"706 86 OFFCURVE",
"594 86 CURVE SMOOTH"
);
}
);
width = 1521;
}
);
note = uni072C;
unicode = 072C;
},
{
glyphname = g102;
lastChange = "2016-11-30 01:18:20 +0000";
layers = (
{
layerId = "1C6E6581-F718-4B48-B828-7898AD953AFB";
paths = (
{
closed = 1;
nodes = (
"784 -59 OFFCURVE",
"886 28 OFFCURVE",
"886 192 CURVE SMOOTH",
"886 227 OFFCURVE",
"876 282 OFFCURVE",
"861 326 CURVE SMOOTH",
"848 364 LINE",
"766 581 LINE",
"830 608 OFFCURVE",
"888 631 OFFCURVE",
"939 649 CURVE SMOOTH",
"990 666 OFFCURVE",
"1023 675 OFFCURVE",
"1038 675 CURVE",
"1054 665 OFFCURVE",
"1086 586 OFFCURVE",
"1133 439 CURVE SMOOTH",
"1180 292 OFFCURVE",
"1222 142 OFFCURVE",
"1259 -10 CURVE",
"1401 -10 LINE",
"1391 37 LINE",
"1398 37 LINE",
"1422 14 OFFCURVE",
"1456 0 OFFCURVE",
"1496 0 CURVE",
"1496 155 LINE",
"1413 155 OFFCURVE",
"1364 179 OFFCURVE",
"1351 228 CURVE SMOOTH",
"1337 276 OFFCURVE",
"1314 353 OFFCURVE",
"1283 460 CURVE SMOOTH",
"1219 673 OFFCURVE",
"1186 813 OFFCURVE",
"1025 813 CURVE SMOOTH",
"999 813 OFFCURVE",
"960 806 OFFCURVE",
"909 791 CURVE SMOOTH",
"857 776 OFFCURVE",
"793 750 OFFCURVE",
"716 715 CURVE",
"436 1460 LINE",
"292 1405 LINE",
"578 650 LINE",
"445 580 OFFCURVE",
"352 525 OFFCURVE",
"298 486 CURVE SMOOTH",
"190 406 OFFCURVE",
"133 324 OFFCURVE",
"133 221 CURVE SMOOTH",
"133 16 OFFCURVE",
"370 -59 OFFCURVE",
"583 -59 CURVE SMOOTH"
);
},
{
closed = 1;
nodes = (
"406 86 OFFCURVE",
"282 140 OFFCURVE",
"282 235 CURVE SMOOTH",
"282 275 OFFCURVE",
"311 318 OFFCURVE",
"369 364 CURVE SMOOTH",
"426 409 OFFCURVE",
"513 461 OFFCURVE",
"628 518 CURVE",
"696 339 LINE SMOOTH",
"720 276 OFFCURVE",
"734 219 OFFCURVE",
"734 184 CURVE SMOOTH",
"734 120 OFFCURVE",
"706 86 OFFCURVE",
"594 86 CURVE SMOOTH"
);
}
);
width = 1496;
}
);
note = g102;
},
{
glyphname = uni072D;
lastChange = "2016-11-30 01:18:20 +0000";
layers = (
{
layerId = "1C6E6581-F718-4B48-B828-7898AD953AFB";
paths = (
{
closed = 1;
nodes = (
"1451 0 LINE SMOOTH",
"1715 0 OFFCURVE",
"1821 102 OFFCURVE",
"1821 359 CURVE SMOOTH",
"1821 400 OFFCURVE",
"1815 461 OFFCURVE",
"1808 518 CURVE SMOOTH",
"1801 563 LINE SMOOTH",
"1765 770 OFFCURVE",
"1657 872 OFFCURVE",
"1444 872 CURVE SMOOTH",
"1365 872 OFFCURVE",
"1286 870 OFFCURVE",
"1208 867 CURVE SMOOTH",
"1129 864 OFFCURVE",
"1050 862 OFFCURVE",
"971 862 CURVE SMOOTH",
"950 862 OFFCURVE",
"930 862 OFFCURVE",
"911 863 CURVE SMOOTH",
"892 864 OFFCURVE",
"873 864 OFFCURVE",
"854 864 CURVE",
"854 872 LINE",
"884 900 LINE",
"967 980 LINE",
"1010 1023 LINE",
"1048 1062 LINE SMOOTH",
"1060 1074 OFFCURVE",
"1070 1084 OFFCURVE",
"1078 1093 CURVE SMOOTH",
"1180 1203 LINE",
"1071 1294 LINE",
"656 830 LINE",
"704 728 LINE",
"733 721 OFFCURVE",
"884 712 OFFCURVE",
"981 712 CURVE SMOOTH",
"1052 712 OFFCURVE",
"1125 714 OFFCURVE",
"1198 717 CURVE SMOOTH",
"1271 720 OFFCURVE",
"1343 722 OFFCURVE",
"1414 722 CURVE SMOOTH",
"1484 722 OFFCURVE",
"1537 710 OFFCURVE",
"1572 687 CURVE SMOOTH",
"1642 640 OFFCURVE",
"1673 490 OFFCURVE",
"1673 359 CURVE SMOOTH",
"1673 206 OFFCURVE",
"1624 155 OFFCURVE",
"1493 155 CURVE SMOOTH",
"537 155 LINE SMOOTH",
"357 155 OFFCURVE",
"264 180 OFFCURVE",
"192 283 CURVE",
"100 160 LINE",
"143 61 OFFCURVE",
"279 0 OFFCURVE",
"491 0 CURVE SMOOTH"
);
}
);
width = 1963;
}
);
note = uni072D;
unicode = 072D;
},
{
glyphname = g104;
lastChange = "2016-11-30 01:18:20 +0000";
layers = (
{
layerId = "1C6E6581-F718-4B48-B828-7898AD953AFB";
paths = (
{
closed = 1;
nodes = (
"1451 0 LINE SMOOTH",
"1584 0 OFFCURVE",
"1667 29 OFFCURVE",
"1722 86 CURVE",
"1732 86 LINE",
"1791 14 OFFCURVE",
"1861 0 OFFCURVE",
"1982 0 CURVE",
"1982 155 LINE",
"1919 155 OFFCURVE",
"1875 160 OFFCURVE",
"1850 170 CURVE",
"1825 179 OFFCURVE",
"1809 193 OFFCURVE",
"1803 212 CURVE",
"1816 255 OFFCURVE",
"1821 303 OFFCURVE",
"1821 359 CURVE SMOOTH",
"1821 400 OFFCURVE",
"1815 461 OFFCURVE",
"1808 518 CURVE SMOOTH",
"1801 563 LINE SMOOTH",
"1765 770 OFFCURVE",
"1657 872 OFFCURVE",
"1444 872 CURVE SMOOTH",
"1365 872 OFFCURVE",
"1286 870 OFFCURVE",
"1208 867 CURVE SMOOTH",
"1129 864 OFFCURVE",
"1050 862 OFFCURVE",
"971 862 CURVE SMOOTH",
"950 862 OFFCURVE",
"930 862 OFFCURVE",
"911 863 CURVE SMOOTH",
"892 864 OFFCURVE",
"873 864 OFFCURVE",
"854 864 CURVE",
"854 872 LINE",
"884 900 LINE",
"967 980 LINE",
"1010 1023 LINE",
"1048 1062 LINE SMOOTH",
"1060 1074 OFFCURVE",
"1070 1084 OFFCURVE",
"1078 1093 CURVE SMOOTH",
"1180 1203 LINE",
"1071 1294 LINE",
"656 830 LINE",
"704 728 LINE",
"733 721 OFFCURVE",
"884 712 OFFCURVE",
"981 712 CURVE SMOOTH",
"1052 712 OFFCURVE",
"1125 714 OFFCURVE",
"1198 717 CURVE SMOOTH",
"1271 720 OFFCURVE",
"1343 722 OFFCURVE",
"1414 722 CURVE SMOOTH",
"1484 722 OFFCURVE",
"1537 710 OFFCURVE",
"1572 687 CURVE SMOOTH",
"1642 640 OFFCURVE",
"1673 490 OFFCURVE",
"1673 359 CURVE SMOOTH",
"1673 206 OFFCURVE",
"1624 155 OFFCURVE",
"1493 155 CURVE SMOOTH",
"537 155 LINE SMOOTH",
"357 155 OFFCURVE",
"264 180 OFFCURVE",
"192 283 CURVE",
"100 160 LINE",
"143 61 OFFCURVE",
"279 0 OFFCURVE",
"491 0 CURVE SMOOTH"
);
}
);
width = 1982;
}
);
note = g104;
},
{
glyphname = g105;
lastChange = "2016-11-30 01:18:20 +0000";
layers = (
{
layerId = "1C6E6581-F718-4B48-B828-7898AD953AFB";
paths = (
{
closed = 1;
nodes = (
"984 0 LINE SMOOTH",
"1117 0 OFFCURVE",
"1200 29 OFFCURVE",
"1255 86 CURVE",
"1265 86 LINE",
"1324 14 OFFCURVE",
"1394 0 OFFCURVE",
"1515 0 CURVE",
"1515 155 LINE",
"1452 155 OFFCURVE",
"1408 160 OFFCURVE",
"1383 170 CURVE",
"1358 179 OFFCURVE",
"1342 193 OFFCURVE",
"1336 212 CURVE",
"1349 255 OFFCURVE",
"1354 303 OFFCURVE",
"1354 359 CURVE SMOOTH",
"1354 400 OFFCURVE",
"1348 461 OFFCURVE",
"1341 518 CURVE SMOOTH",
"1334 563 LINE SMOOTH",
"1298 770 OFFCURVE",
"1190 872 OFFCURVE",
"977 872 CURVE SMOOTH",
"898 872 OFFCURVE",
"819 870 OFFCURVE",
"741 867 CURVE SMOOTH",
"662 864 OFFCURVE",
"583 862 OFFCURVE",
"504 862 CURVE SMOOTH",
"483 862 OFFCURVE",
"463 862 OFFCURVE",
"444 863 CURVE SMOOTH",
"425 864 OFFCURVE",
"406 864 OFFCURVE",
"387 864 CURVE",
"387 872 LINE",
"417 900 LINE",
"500 980 LINE",
"543 1023 LINE",
"581 1062 LINE SMOOTH",
"593 1074 OFFCURVE",
"603 1084 OFFCURVE",
"611 1093 CURVE SMOOTH",
"713 1203 LINE",
"604 1294 LINE",
"189 830 LINE",
"237 728 LINE",
"266 721 OFFCURVE",
"417 712 OFFCURVE",
"514 712 CURVE SMOOTH",
"585 712 OFFCURVE",
"658 714 OFFCURVE",
"731 717 CURVE SMOOTH",
"804 720 OFFCURVE",
"876 722 OFFCURVE",
"947 722 CURVE SMOOTH",
"1017 722 OFFCURVE",
"1070 710 OFFCURVE",
"1105 687 CURVE SMOOTH",
"1175 640 OFFCURVE",
"1206 490 OFFCURVE",
"1206 359 CURVE SMOOTH",
"1206 206 OFFCURVE",
"1157 155 OFFCURVE",
"1026 155 CURVE SMOOTH",
"0 155 LINE SMOOTH",
"-44 155 OFFCURVE",
"-80 125 OFFCURVE",
"-80 77 CURVE SMOOTH",
"-80 29 OFFCURVE",
"-44 0 OFFCURVE",
"0 0 CURVE SMOOTH"
);
}
);
width = 1515;
}
);
note = g105;
},
{
glyphname = g106;
lastChange = "2016-11-30 01:18:20 +0000";
layers = (
{
layerId = "1C6E6581-F718-4B48-B828-7898AD953AFB";
paths = (
{
closed = 1;
nodes = (
"984 0 LINE SMOOTH",
"1248 0 OFFCURVE",
"1354 102 OFFCURVE",
"1354 359 CURVE SMOOTH",
"1354 400 OFFCURVE",
"1348 461 OFFCURVE",
"1341 518 CURVE SMOOTH",
"1334 563 LINE SMOOTH",
"1298 770 OFFCURVE",
"1190 872 OFFCURVE",
"977 872 CURVE SMOOTH",
"898 872 OFFCURVE",
"819 870 OFFCURVE",
"741 867 CURVE SMOOTH",
"662 864 OFFCURVE",
"583 862 OFFCURVE",
"504 862 CURVE SMOOTH",
"483 862 OFFCURVE",
"463 862 OFFCURVE",
"444 863 CURVE SMOOTH",
"425 864 OFFCURVE",
"406 864 OFFCURVE",
"387 864 CURVE",
"387 872 LINE",
"417 900 LINE",
"500 980 LINE",
"543 1023 LINE",
"581 1062 LINE SMOOTH",
"593 1074 OFFCURVE",
"603 1084 OFFCURVE",
"611 1093 CURVE SMOOTH",
"713 1203 LINE",
"604 1294 LINE",
"189 830 LINE",
"237 728 LINE",
"266 721 OFFCURVE",
"417 712 OFFCURVE",
"514 712 CURVE SMOOTH",
"585 712 OFFCURVE",
"658 714 OFFCURVE",
"731 717 CURVE SMOOTH",
"804 720 OFFCURVE",
"876 722 OFFCURVE",
"947 722 CURVE SMOOTH",
"1017 722 OFFCURVE",
"1070 710 OFFCURVE",
"1105 687 CURVE SMOOTH",
"1175 640 OFFCURVE",
"1206 490 OFFCURVE",
"1206 359 CURVE SMOOTH",
"1206 206 OFFCURVE",
"1157 155 OFFCURVE",
"1026 155 CURVE SMOOTH",
"0 155 LINE SMOOTH",
"-44 155 OFFCURVE",
"-80 125 OFFCURVE",
"-80 77 CURVE SMOOTH",
"-80 29 OFFCURVE",
"-44 0 OFFCURVE",
"0 0 CURVE SMOOTH"
);
}
);
width = 1496;
}
);
note = g106;
},
{
glyphname = uni072E;
lastChange = "2016-11-30 01:18:20 +0000";
layers = (
{
layerId = "1C6E6581-F718-4B48-B828-7898AD953AFB";
paths = (
{
closed = 1;
nodes = (
"2712 -648 LINE",
"2317 -389 OFFCURVE",
"1781 107 OFFCURVE",
"1233 812 CURVE",
"1235 819 LINE",
"1254 811 OFFCURVE",
"1281 806 OFFCURVE",
"1308 806 CURVE SMOOTH",
"1435 806 OFFCURVE",
"1527 899 OFFCURVE",
"1527 1036 CURVE SMOOTH",
"1527 1063 OFFCURVE",
"1521 1093 OFFCURVE",
"1509 1126 CURVE",
"1496 1158 OFFCURVE",
"1463 1215 OFFCURVE",
"1408 1298 CURVE SMOOTH",
"1345 1392 LINE",
"1213 1316 LINE",
"1287 1209 LINE SMOOTH",
"1342 1132 OFFCURVE",
"1374 1083 OFFCURVE",
"1374 1036 CURVE SMOOTH",
"1374 968 OFFCURVE",
"1325 925 OFFCURVE",
"1249 925 CURVE SMOOTH",
"1185 925 OFFCURVE",
"1124 951 OFFCURVE",
"1087 1003 CURVE SMOOTH",
"1018 1098 LINE",
"875 1015 LINE",
"1250 492 OFFCURVE",
"1674 6 OFFCURVE",
"1961 -199 CURVE",
"1956 -205 LINE",
"1797 -106 OFFCURVE",
"1648 -34 OFFCURVE",
"1510 11 CURVE SMOOTH",
"1234 102 OFFCURVE",
"966 155 OFFCURVE",
"570 155 CURVE SMOOTH",
"439 155 OFFCURVE",
"215 140 OFFCURVE",
"100 119 CURVE",
"129 -25 LINE",
"226 -13 OFFCURVE",
"421 0 OFFCURVE",
"600 0 CURVE SMOOTH",
"901 0 OFFCURVE",
"1202 -48 OFFCURVE",
"1523 -159 CURVE SMOOTH",
"1844 -270 OFFCURVE",
"2070 -383 OFFCURVE",
"2502 -687 CURVE SMOOTH",
"2618 -769 LINE"
);
}
);
width = 2234;
}
);
note = uni072E;
unicode = 072E;
},
{
glyphname = g108;
lastChange = "2016-11-30 01:18:20 +0000";
layers = (
{
layerId = "1C6E6581-F718-4B48-B828-7898AD953AFB";
paths = (
{
closed = 1;
nodes = (
"2712 -648 LINE",
"2464 -485 OFFCURVE",
"2146 -205 OFFCURVE",
"1935 6 CURVE",
"1935 155 LINE",
"1791 155 LINE",
"1584 375 OFFCURVE",
"1397 601 OFFCURVE",
"1233 812 CURVE",
"1235 819 LINE",
"1254 811 OFFCURVE",
"1281 806 OFFCURVE",
"1308 806 CURVE SMOOTH",
"1435 806 OFFCURVE",
"1527 899 OFFCURVE",
"1527 1036 CURVE SMOOTH",
"1527 1063 OFFCURVE",
"1521 1093 OFFCURVE",
"1509 1126 CURVE",
"1496 1158 OFFCURVE",
"1463 1215 OFFCURVE",
"1408 1298 CURVE SMOOTH",
"1345 1392 LINE",
"1213 1316 LINE",
"1287 1209 LINE SMOOTH",
"1342 1132 OFFCURVE",
"1374 1083 OFFCURVE",
"1374 1036 CURVE SMOOTH",
"1374 968 OFFCURVE",
"1325 925 OFFCURVE",
"1249 925 CURVE SMOOTH",
"1185 925 OFFCURVE",
"1124 951 OFFCURVE",
"1087 1003 CURVE SMOOTH",
"1018 1098 LINE",
"875 1015 LINE",
"1250 492 OFFCURVE",
"1674 6 OFFCURVE",
"1961 -199 CURVE",
"1956 -205 LINE",
"1797 -106 OFFCURVE",
"1648 -34 OFFCURVE",
"1510 11 CURVE SMOOTH",
"1234 102 OFFCURVE",
"966 155 OFFCURVE",
"570 155 CURVE SMOOTH",
"439 155 OFFCURVE",
"215 140 OFFCURVE",
"100 119 CURVE",
"129 -25 LINE",
"226 -13 OFFCURVE",
"421 0 OFFCURVE",
"600 0 CURVE SMOOTH",
"901 0 OFFCURVE",
"1202 -48 OFFCURVE",
"1523 -159 CURVE SMOOTH",
"1844 -270 OFFCURVE",
"2070 -383 OFFCURVE",
"2502 -687 CURVE SMOOTH",
"2618 -769 LINE"
);
}
);
width = 1935;
}
);
note = g108;
},
{
glyphname = g109;
lastChange = "2016-11-30 01:18:20 +0000";
layers = (
{
layerId = "1C6E6581-F718-4B48-B828-7898AD953AFB";
paths = (
{
closed = 1;
nodes = (
"1948 -648 LINE",
"1719 -497 OFFCURVE",
"1442 -260 OFFCURVE",
"1170 7 CURVE",
"1170 155 LINE",
"1027 155 LINE",
"820 375 OFFCURVE",
"632 601 OFFCURVE",
"468 812 CURVE",
"470 819 LINE",
"489 811 OFFCURVE",
"516 806 OFFCURVE",
"543 806 CURVE SMOOTH",
"670 806 OFFCURVE",
"762 899 OFFCURVE",
"762 1036 CURVE SMOOTH",
"762 1063 OFFCURVE",
"756 1093 OFFCURVE",
"744 1126 CURVE",
"731 1158 OFFCURVE",
"698 1215 OFFCURVE",
"643 1298 CURVE SMOOTH",
"580 1392 LINE",
"448 1316 LINE",
"522 1209 LINE SMOOTH",
"577 1132 OFFCURVE",
"609 1083 OFFCURVE",
"609 1036 CURVE SMOOTH",
"609 968 OFFCURVE",
"560 925 OFFCURVE",
"484 925 CURVE SMOOTH",
"421 925 OFFCURVE",
"362 948 OFFCURVE",
"322 1003 CURVE SMOOTH",
"253 1098 LINE",
"110 1015 LINE",
"453 536 OFFCURVE",
"789 149 OFFCURVE",
"1101 -118 CURVE",
"1096 -125 LINE",
"696 92 OFFCURVE",
"416 155 OFFCURVE",
"0 155 CURVE SMOOTH",
"-44 155 OFFCURVE",
"-80 125 OFFCURVE",
"-80 77 CURVE SMOOTH",
"-80 29 OFFCURVE",
"-44 0 OFFCURVE",
"0 0 CURVE SMOOTH",
"308 0 OFFCURVE",
"577 -51 OFFCURVE",
"818 -142 CURVE SMOOTH",
"1059 -233 OFFCURVE",
"1268 -356 OFFCURVE",
"1536 -545 CURVE SMOOTH",
"1781 -718 LINE",
"1854 -769 LINE"
);
}
);
width = 1170;
}
);
note = g109;
},
{
glyphname = g110;
lastChange = "2016-11-30 01:18:20 +0000";
layers = (
{
layerId = "1C6E6581-F718-4B48-B828-7898AD953AFB";
paths = (
{
closed = 1;
nodes = (
"1948 -648 LINE",
"1557 -392 OFFCURVE",
"1015 108 OFFCURVE",
"468 812 CURVE",
"470 819 LINE",
"489 811 OFFCURVE",
"516 806 OFFCURVE",
"543 806 CURVE SMOOTH",
"670 806 OFFCURVE",
"762 899 OFFCURVE",
"762 1036 CURVE SMOOTH",
"762 1063 OFFCURVE",
"756 1093 OFFCURVE",
"744 1126 CURVE",
"731 1158 OFFCURVE",
"698 1215 OFFCURVE",
"643 1298 CURVE SMOOTH",
"580 1392 LINE",
"448 1316 LINE",
"522 1209 LINE SMOOTH",
"577 1132 OFFCURVE",
"609 1083 OFFCURVE",
"609 1036 CURVE SMOOTH",
"609 968 OFFCURVE",
"560 925 OFFCURVE",
"484 925 CURVE SMOOTH",
"421 925 OFFCURVE",
"362 948 OFFCURVE",
"322 1003 CURVE SMOOTH",
"253 1098 LINE",
"110 1015 LINE",
"453 536 OFFCURVE",
"789 149 OFFCURVE",
"1101 -118 CURVE",
"1096 -125 LINE",
"696 92 OFFCURVE",
"416 155 OFFCURVE",
"0 155 CURVE SMOOTH",
"-44 155 OFFCURVE",
"-80 125 OFFCURVE",
"-80 77 CURVE SMOOTH",
"-80 29 OFFCURVE",
"-44 0 OFFCURVE",
"0 0 CURVE SMOOTH",
"308 0 OFFCURVE",
"577 -51 OFFCURVE",
"818 -142 CURVE SMOOTH",
"1059 -233 OFFCURVE",
"1268 -356 OFFCURVE",
"1536 -545 CURVE SMOOTH",
"1781 -718 LINE",
"1854 -769 LINE"
);
}
);
width = 1470;
}
);
note = g110;
},
{
glyphname = g112;
lastChange = "2016-11-30 01:18:20 +0000";
layers = (
{
layerId = "1C6E6581-F718-4B48-B828-7898AD953AFB";
paths = (
{
closed = 1;
nodes = (
"962 -36 LINE",
"954 37 LINE",
"962 37 LINE",
"987 12 OFFCURVE",
"1031 0 OFFCURVE",
"1080 0 CURVE SMOOTH",
"1088 0 LINE",
"1088 155 LINE",
"1063 155 LINE SMOOTH",
"988 155 OFFCURVE",
"941 177 OFFCURVE",
"933 228 CURVE SMOOTH",
"911 380 LINE SMOOTH",
"882 581 OFFCURVE",
"857 714 OFFCURVE",
"837 777 CURVE SMOOTH",
"816 840 OFFCURVE",
"762 872 OFFCURVE",
"675 872 CURVE SMOOTH",
"90 872 LINE",
"90 722 LINE",
"698 722 LINE",
"730 623 OFFCURVE",
"792 189 OFFCURVE",
"816 -36 CURVE"
);
},
{
closed = 1;
nodes = (
"515 -317 OFFCURVE",
"554 -277 OFFCURVE",
"554 -202 CURVE SMOOTH",
"554 -126 OFFCURVE",
"516 -86 OFFCURVE",
"448 -86 CURVE SMOOTH",
"384 -86 OFFCURVE",
"347 -126 OFFCURVE",
"347 -202 CURVE SMOOTH",
"347 -285 OFFCURVE",
"389 -317 OFFCURVE",
"448 -317 CURVE SMOOTH"
);
},
{
closed = 1;
nodes = (
"308 -26 OFFCURVE",
"347 14 OFFCURVE",
"347 89 CURVE SMOOTH",
"347 165 OFFCURVE",
"309 205 OFFCURVE",
"241 205 CURVE SMOOTH",
"177 205 OFFCURVE",
"140 165 OFFCURVE",
"140 89 CURVE SMOOTH",
"140 6 OFFCURVE",
"182 -26 OFFCURVE",
"241 -26 CURVE SMOOTH"
);
}
);
width = 1088;
}
);
note = g112;
},
{
glyphname = uni074D;
lastChange = "2016-11-30 01:18:20 +0000";
layers = (
{
layerId = "1C6E6581-F718-4B48-B828-7898AD953AFB";
paths = (
{
closed = 1;
nodes = (
"620 -740 LINE",
"800 -491 OFFCURVE",
"1018 40 OFFCURVE",
"1054 503 CURVE",
"913 503 LINE",
"886 192 OFFCURVE",
"776 -204 OFFCURVE",
"584 -552 CURVE",
"456 -225 OFFCURVE",
"360 120 OFFCURVE",
"287 503 CURVE",
"140 503 LINE",
"189 148 OFFCURVE",
"366 -448 OFFCURVE",
"499 -740 CURVE"
);
}
);
width = 1194;
}
);
note = uni074D;
unicode = 074D;
},
{
glyphname = g114;
lastChange = "2016-11-30 01:18:20 +0000";
layers = (
{
layerId = "1C6E6581-F718-4B48-B828-7898AD953AFB";
paths = (
{
closed = 1;
nodes = (
"620 -740 LINE",
"748 -563 OFFCURVE",
"902 -217 OFFCURVE",
"977 66 CURVE",
"983 66 LINE",
"1022 23 OFFCURVE",
"1082 0 OFFCURVE",
"1194 0 CURVE",
"1194 155 LINE",
"1149 156 LINE SMOOTH",
"1090 156 OFFCURVE",
"1033 168 OFFCURVE",
"1009 192 CURVE",
"1030 288 OFFCURVE",
"1046 387 OFFCURVE",
"1054 503 CURVE",
"913 503 LINE",
"886 192 OFFCURVE",
"776 -204 OFFCURVE",
"584 -552 CURVE",
"456 -225 OFFCURVE",
"360 120 OFFCURVE",
"287 503 CURVE",
"140 503 LINE",
"189 148 OFFCURVE",
"366 -448 OFFCURVE",
"499 -740 CURVE"
);
}
);
width = 1194;
}
);
note = g114;
},
{
glyphname = uni074E;
lastChange = "2016-11-30 01:18:20 +0000";
layers = (
{
layerId = "1C6E6581-F718-4B48-B828-7898AD953AFB";
paths = (
{
closed = 1;
nodes = (
"1457 0 LINE SMOOTH",
"1550 0 OFFCURVE",
"1607 61 OFFCURVE",
"1607 172 CURVE SMOOTH",
"1607 247 OFFCURVE",
"1524 474 OFFCURVE",
"1444 661 CURVE SMOOTH",
"1399 764 LINE SMOOTH",
"1370 831 OFFCURVE",
"1339 891 OFFCURVE",
"1300 934 CURVE",
"1302 942 LINE",
"1317 938 OFFCURVE",
"1334 937 OFFCURVE",
"1343 937 CURVE SMOOTH",
"1474 937 OFFCURVE",
"1555 1027 OFFCURVE",
"1555 1160 CURVE SMOOTH",
"1555 1191 OFFCURVE",
"1548 1224 OFFCURVE",
"1534 1259 CURVE SMOOTH",
"1520 1294 OFFCURVE",
"1489 1348 OFFCURVE",
"1440 1421 CURVE SMOOTH",
"1377 1515 LINE",
"1245 1439 LINE",
"1319 1332 LINE SMOOTH",
"1374 1255 OFFCURVE",
"1406 1206 OFFCURVE",
"1406 1159 CURVE SMOOTH",
"1406 1091 OFFCURVE",
"1363 1056 OFFCURVE",
"1287 1056 CURVE SMOOTH",
"1267 1056 OFFCURVE",
"1221 1069 OFFCURVE",
"1181 1084 CURVE SMOOTH",
"1123 1106 LINE SMOOTH",
"1082 1121 OFFCURVE",
"1053 1130 OFFCURVE",
"997 1139 CURVE",
"962 1001 LINE",
"1021 987 OFFCURVE",
"1062 974 OFFCURVE",
"1086 961 CURVE SMOOTH",
"1134 935 OFFCURVE",
"1182 884 OFFCURVE",
"1239 759 CURVE SMOOTH",
"1289 645 LINE SMOOTH",
"1376 441 OFFCURVE",
"1454 231 OFFCURVE",
"1465 155 CURVE",
"548 155 LINE SMOOTH",
"345 155 OFFCURVE",
"272 175 OFFCURVE",
"207 268 CURVE",
"100 174 LINE",
"156 49 OFFCURVE",
"272 0 OFFCURVE",
"472 0 CURVE SMOOTH"
);
}
);
width = 1727;
}
);
note = uni074E;
unicode = 074E;
},
{
glyphname = g116;
lastChange = "2016-11-30 01:18:20 +0000";
layers = (
{
layerId = "1C6E6581-F718-4B48-B828-7898AD953AFB";
paths = (
{
closed = 1;
nodes = (
"1211 0 LINE SMOOTH",
"1366 0 OFFCURVE",
"1470 42 OFFCURVE",
"1523 102 CURVE",
"1531 102 LINE",
"1580 29 OFFCURVE",
"1649 0 OFFCURVE",
"1733 0 CURVE",
"1733 155 LINE",
"1669 155 OFFCURVE",
"1629 198 OFFCURVE",
"1590 309 CURVE SMOOTH",
"1550 417 LINE SMOOTH",
"1486 585 OFFCURVE",
"1382 854 OFFCURVE",
"1310 934 CURVE",
"1312 942 LINE",
"1327 938 OFFCURVE",
"1344 937 OFFCURVE",
"1353 937 CURVE SMOOTH",
"1484 937 OFFCURVE",
"1565 1027 OFFCURVE",
"1565 1160 CURVE SMOOTH",
"1565 1191 OFFCURVE",
"1558 1224 OFFCURVE",
"1544 1259 CURVE SMOOTH",
"1530 1294 OFFCURVE",
"1499 1348 OFFCURVE",
"1450 1421 CURVE SMOOTH",
"1387 1515 LINE",
"1255 1439 LINE",
"1329 1332 LINE SMOOTH",
"1384 1255 OFFCURVE",
"1416 1206 OFFCURVE",
"1416 1159 CURVE SMOOTH",
"1416 1091 OFFCURVE",
"1373 1056 OFFCURVE",
"1297 1056 CURVE SMOOTH",
"1277 1056 OFFCURVE",
"1231 1069 OFFCURVE",
"1191 1084 CURVE SMOOTH",
"1133 1106 LINE SMOOTH",
"1092 1121 OFFCURVE",
"1063 1130 OFFCURVE",
"1007 1139 CURVE",
"972 1001 LINE",
"1091 972 OFFCURVE",
"1118 964 OFFCURVE",
"1195 863 CURVE SMOOTH",
"1233 812 OFFCURVE",
"1320 605 OFFCURVE",
"1457 241 CURVE",
"1428 182 OFFCURVE",
"1334 155 OFFCURVE",
"1233 155 CURVE SMOOTH",
"548 155 LINE SMOOTH",
"345 155 OFFCURVE",
"272 175 OFFCURVE",
"207 268 CURVE",
"100 174 LINE",
"156 49 OFFCURVE",
"272 0 OFFCURVE",
"472 0 CURVE SMOOTH"
);
}
);
width = 1733;
}
);
note = g116;
},
{
glyphname = g117;
lastChange = "2016-11-30 01:18:20 +0000";
layers = (
{
layerId = "1C6E6581-F718-4B48-B828-7898AD953AFB";
paths = (
{
closed = 1;
nodes = (
"697 0 LINE SMOOTH",
"852 0 OFFCURVE",
"956 42 OFFCURVE",
"1009 102 CURVE",
"1017 102 LINE",
"1066 29 OFFCURVE",
"1135 0 OFFCURVE",
"1219 0 CURVE",
"1219 155 LINE",
"1155 155 OFFCURVE",
"1115 198 OFFCURVE",
"1076 309 CURVE SMOOTH",
"1036 417 LINE SMOOTH",
"972 585 OFFCURVE",
"868 854 OFFCURVE",
"796 934 CURVE",
"798 942 LINE",
"813 938 OFFCURVE",
"830 937 OFFCURVE",
"839 937 CURVE SMOOTH",
"970 937 OFFCURVE",
"1051 1027 OFFCURVE",
"1051 1160 CURVE SMOOTH",
"1051 1191 OFFCURVE",
"1044 1224 OFFCURVE",
"1030 1259 CURVE SMOOTH",
"1016 1294 OFFCURVE",
"985 1348 OFFCURVE",
"936 1421 CURVE SMOOTH",
"873 1515 LINE",
"741 1439 LINE",
"815 1332 LINE SMOOTH",
"870 1255 OFFCURVE",
"902 1206 OFFCURVE",
"902 1159 CURVE SMOOTH",
"902 1091 OFFCURVE",
"859 1056 OFFCURVE",
"783 1056 CURVE SMOOTH",
"763 1056 OFFCURVE",
"717 1069 OFFCURVE",
"677 1084 CURVE SMOOTH",
"619 1106 LINE SMOOTH",
"578 1121 OFFCURVE",
"549 1130 OFFCURVE",
"493 1139 CURVE",
"458 1001 LINE",
"577 972 OFFCURVE",
"604 964 OFFCURVE",
"681 863 CURVE SMOOTH",
"719 812 OFFCURVE",
"806 605 OFFCURVE",
"943 241 CURVE",
"914 182 OFFCURVE",
"820 155 OFFCURVE",
"719 155 CURVE SMOOTH",
"0 155 LINE SMOOTH",
"-44 155 OFFCURVE",
"-80 125 OFFCURVE",
"-80 77 CURVE SMOOTH",
"-80 29 OFFCURVE",
"-44 0 OFFCURVE",
"0 0 CURVE SMOOTH"
);
}
);
width = 1219;
}
);
note = g117;
},
{
glyphname = g118;
lastChange = "2016-11-30 01:18:20 +0000";
layers = (
{
layerId = "1C6E6581-F718-4B48-B828-7898AD953AFB";
paths = (
{
closed = 1;
nodes = (
"941 0 LINE SMOOTH",
"1034 0 OFFCURVE",
"1091 61 OFFCURVE",
"1091 172 CURVE SMOOTH",
"1091 247 OFFCURVE",
"1008 474 OFFCURVE",
"928 661 CURVE SMOOTH",
"883 764 LINE SMOOTH",
"854 831 OFFCURVE",
"823 891 OFFCURVE",
"784 934 CURVE",
"786 942 LINE",
"801 938 OFFCURVE",
"818 937 OFFCURVE",
"827 937 CURVE SMOOTH",
"958 937 OFFCURVE",
"1039 1027 OFFCURVE",
"1039 1160 CURVE SMOOTH",
"1039 1191 OFFCURVE",
"1032 1224 OFFCURVE",
"1018 1259 CURVE SMOOTH",
"1004 1294 OFFCURVE",
"973 1348 OFFCURVE",
"924 1421 CURVE SMOOTH",
"861 1515 LINE",
"729 1439 LINE",
"803 1332 LINE SMOOTH",
"858 1255 OFFCURVE",
"890 1206 OFFCURVE",
"890 1159 CURVE SMOOTH",
"890 1091 OFFCURVE",
"847 1056 OFFCURVE",
"771 1056 CURVE SMOOTH",
"751 1056 OFFCURVE",
"705 1069 OFFCURVE",
"665 1084 CURVE SMOOTH",
"607 1106 LINE SMOOTH",
"566 1121 OFFCURVE",
"537 1130 OFFCURVE",
"481 1139 CURVE",
"446 1001 LINE",
"505 987 OFFCURVE",
"546 974 OFFCURVE",
"570 961 CURVE SMOOTH",
"618 935 OFFCURVE",
"666 884 OFFCURVE",
"723 759 CURVE SMOOTH",
"773 645 LINE SMOOTH",
"860 441 OFFCURVE",
"938 231 OFFCURVE",
"949 155 CURVE",
"0 155 LINE SMOOTH",
"-44 155 OFFCURVE",
"-80 125 OFFCURVE",
"-80 77 CURVE SMOOTH",
"-80 29 OFFCURVE",
"-44 0 OFFCURVE",
"0 0 CURVE SMOOTH"
);
}
);
width = 1211;
}
);
note = g118;
},
{
glyphname = uni074F;
lastChange = "2016-11-30 01:18:20 +0000";
layers = (
{
layerId = "1C6E6581-F718-4B48-B828-7898AD953AFB";
paths = (
{
closed = 1;
nodes = (
"1113 0 LINE SMOOTH",
"1176 0 OFFCURVE",
"1210 48 OFFCURVE",
"1210 125 CURVE SMOOTH",
"1210 166 OFFCURVE",
"1203 212 OFFCURVE",
"1189 265 CURVE SMOOTH",
"1175 317 OFFCURVE",
"1145 409 OFFCURVE",
"1099 540 CURVE",
"1106 543 LINE",
"1119 539 OFFCURVE",
"1131 537 OFFCURVE",
"1143 537 CURVE SMOOTH",
"1247 537 OFFCURVE",
"1324 617 OFFCURVE",
"1324 732 CURVE SMOOTH",
"1324 848 OFFCURVE",
"1249 925 OFFCURVE",
"1130 925 CURVE SMOOTH",
"1075 925 OFFCURVE",
"1024 906 OFFCURVE",
"992 863 CURVE",
"983 863 LINE",
"960 927 OFFCURVE",
"934 997 OFFCURVE",
"910 1061 CURVE SMOOTH",
"856 1200 LINE",
"709 1142 LINE",
"715 1129 OFFCURVE",
"724 1106 OFFCURVE",
"737 1074 CURVE SMOOTH",
"782 961 LINE",
"837 817 LINE SMOOTH",
"938 553 OFFCURVE",
"1053 224 OFFCURVE",
"1061 155 CURVE",
"548 155 LINE SMOOTH",
"345 155 OFFCURVE",
"272 175 OFFCURVE",
"207 268 CURVE",
"100 174 LINE",
"156 49 OFFCURVE",
"272 0 OFFCURVE",
"472 0 CURVE SMOOTH"
);
},
{
closed = 1;
nodes = (
"1070 624 OFFCURVE",
"1027 662 OFFCURVE",
"1027 729 CURVE SMOOTH",
"1027 796 OFFCURVE",
"1066 834 OFFCURVE",
"1126 834 CURVE SMOOTH",
"1183 834 OFFCURVE",
"1226 796 OFFCURVE",
"1226 729 CURVE SMOOTH",
"1226 662 OFFCURVE",
"1185 624 OFFCURVE",
"1126 624 CURVE SMOOTH"
);
}
);
width = 1343;
}
);
note = uni074F;
unicode = 074F;
},
{
glyphname = g120;
lastChange = "2016-11-30 01:18:20 +0000";
layers = (
{
layerId = "1C6E6581-F718-4B48-B828-7898AD953AFB";
paths = (
{
closed = 1;
nodes = (
"803 0 LINE SMOOTH",
"952 0 OFFCURVE",
"1056 42 OFFCURVE",
"1107 102 CURVE",
"1115 102 LINE",
"1162 41 OFFCURVE",
"1227 0 OFFCURVE",
"1335 0 CURVE SMOOTH",
"1365 0 LINE",
"1365 155 LINE",
"1339 155 LINE SMOOTH",
"1270 155 OFFCURVE",
"1217 206 OFFCURVE",
"1177 319 CURVE SMOOTH",
"1098 540 LINE",
"1105 543 LINE",
"1118 539 OFFCURVE",
"1130 537 OFFCURVE",
"1142 537 CURVE SMOOTH",
"1246 537 OFFCURVE",
"1323 617 OFFCURVE",
"1323 732 CURVE SMOOTH",
"1323 848 OFFCURVE",
"1248 925 OFFCURVE",
"1129 925 CURVE SMOOTH",
"1074 925 OFFCURVE",
"1023 906 OFFCURVE",
"991 863 CURVE",
"983 863 LINE",
"969 901 OFFCURVE",
"955 937 OFFCURVE",
"942 972 CURVE SMOOTH",
"855 1200 LINE",
"708 1142 LINE",
"764 1014 OFFCURVE",
"971 471 OFFCURVE",
"1040 243 CURVE",
"1015 186 OFFCURVE",
"926 155 OFFCURVE",
"825 155 CURVE SMOOTH",
"547 155 LINE SMOOTH",
"344 155 OFFCURVE",
"271 175 OFFCURVE",
"206 268 CURVE",
"99 174 LINE",
"155 49 OFFCURVE",
"271 0 OFFCURVE",
"471 0 CURVE SMOOTH"
);
},
{
closed = 1;
nodes = (
"1069 624 OFFCURVE",
"1026 662 OFFCURVE",
"1026 729 CURVE SMOOTH",
"1026 796 OFFCURVE",
"1065 834 OFFCURVE",
"1125 834 CURVE SMOOTH",
"1182 834 OFFCURVE",
"1225 796 OFFCURVE",
"1225 729 CURVE SMOOTH",
"1225 662 OFFCURVE",
"1184 624 OFFCURVE",
"1125 624 CURVE SMOOTH"
);
}
);
width = 1365;
}
);
note = g120;
},
{
glyphname = g121;
lastChange = "2016-11-30 01:18:20 +0000";
layers = (
{
layerId = "1C6E6581-F718-4B48-B828-7898AD953AFB";
paths = (
{
closed = 1;
nodes = (
"155 0 LINE SMOOTH",
"304 0 OFFCURVE",
"408 42 OFFCURVE",
"459 102 CURVE",
"467 102 LINE",
"514 41 OFFCURVE",
"579 0 OFFCURVE",
"687 0 CURVE SMOOTH",
"717 0 LINE",
"717 155 LINE",
"691 155 LINE SMOOTH",
"622 155 OFFCURVE",
"569 206 OFFCURVE",
"529 319 CURVE SMOOTH",
"450 540 LINE",
"457 543 LINE",
"470 539 OFFCURVE",
"482 537 OFFCURVE",
"494 537 CURVE SMOOTH",
"598 537 OFFCURVE",
"675 617 OFFCURVE",
"675 732 CURVE SMOOTH",
"675 848 OFFCURVE",
"600 925 OFFCURVE",
"481 925 CURVE SMOOTH",
"426 925 OFFCURVE",
"375 906 OFFCURVE",
"343 863 CURVE",
"335 863 LINE",
"321 901 OFFCURVE",
"307 937 OFFCURVE",
"294 972 CURVE SMOOTH",
"207 1200 LINE",
"60 1142 LINE",
"116 1014 OFFCURVE",
"323 471 OFFCURVE",
"392 243 CURVE",
"367 186 OFFCURVE",
"278 155 OFFCURVE",
"177 155 CURVE SMOOTH",
"0 155 LINE SMOOTH",
"-44 155 OFFCURVE",
"-80 125 OFFCURVE",
"-80 77 CURVE SMOOTH",
"-80 29 OFFCURVE",
"-44 0 OFFCURVE",
"0 0 CURVE SMOOTH"
);
},
{
closed = 1;
nodes = (
"421 624 OFFCURVE",
"378 662 OFFCURVE",
"378 729 CURVE SMOOTH",
"378 796 OFFCURVE",
"417 834 OFFCURVE",
"477 834 CURVE SMOOTH",
"534 834 OFFCURVE",
"577 796 OFFCURVE",
"577 729 CURVE SMOOTH",
"577 662 OFFCURVE",
"536 624 OFFCURVE",
"477 624 CURVE SMOOTH"
);
}
);
width = 717;
}
);
note = g121;
},
{
glyphname = g122;
lastChange = "2016-11-30 01:18:20 +0000";
layers = (
{
layerId = "1C6E6581-F718-4B48-B828-7898AD953AFB";
paths = (
{
closed = 1;
nodes = (
"464 0 LINE SMOOTH",
"527 0 OFFCURVE",
"561 48 OFFCURVE",
"561 125 CURVE SMOOTH",
"561 166 OFFCURVE",
"554 212 OFFCURVE",
"540 265 CURVE SMOOTH",
"526 317 OFFCURVE",
"496 409 OFFCURVE",
"450 540 CURVE",
"457 543 LINE",
"470 539 OFFCURVE",
"482 537 OFFCURVE",
"494 537 CURVE SMOOTH",
"598 537 OFFCURVE",
"675 617 OFFCURVE",
"675 732 CURVE SMOOTH",
"675 848 OFFCURVE",
"600 925 OFFCURVE",
"481 925 CURVE SMOOTH",
"426 925 OFFCURVE",
"375 906 OFFCURVE",
"343 863 CURVE",
"334 863 LINE",
"311 927 OFFCURVE",
"285 997 OFFCURVE",
"261 1061 CURVE SMOOTH",
"207 1200 LINE",
"60 1142 LINE",
"66 1129 OFFCURVE",
"75 1106 OFFCURVE",
"88 1074 CURVE SMOOTH",
"133 961 LINE",
"188 817 LINE SMOOTH",
"289 553 OFFCURVE",
"404 224 OFFCURVE",
"412 155 CURVE",
"0 155 LINE SMOOTH",
"-44 155 OFFCURVE",
"-80 125 OFFCURVE",
"-80 77 CURVE SMOOTH",
"-80 29 OFFCURVE",
"-44 0 OFFCURVE",
"0 0 CURVE SMOOTH"
);
},
{
closed = 1;
nodes = (
"421 624 OFFCURVE",
"378 662 OFFCURVE",
"378 729 CURVE SMOOTH",
"378 796 OFFCURVE",
"417 834 OFFCURVE",
"477 834 CURVE SMOOTH",
"534 834 OFFCURVE",
"577 796 OFFCURVE",
"577 729 CURVE SMOOTH",
"577 662 OFFCURVE",
"536 624 OFFCURVE",
"477 624 CURVE SMOOTH"
);
}
);
width = 694;
}
);
note = g122;
},
{
glyphname = afii57409;
lastChange = "2016-11-30 01:18:20 +0000";
layers = (
{
layerId = "1C6E6581-F718-4B48-B828-7898AD953AFB";
paths = (
{
closed = 1;
nodes = (
"802 15 LINE",
"802 155 LINE",
"594 155 LINE SMOOTH",
"527 155 OFFCURVE",
"476 164 OFFCURVE",
"439 183 CURVE SMOOTH",
"365 219 OFFCURVE",
"308 303 OFFCURVE",
"308 395 CURVE SMOOTH",
"308 530 OFFCURVE",
"403 614 OFFCURVE",
"550 614 CURVE SMOOTH",
"599 614 OFFCURVE",
"651 606 OFFCURVE",
"707 591 CURVE",
"753 713 LINE",
"681 745 OFFCURVE",
"597 752 OFFCURVE",
"534 752 CURVE SMOOTH",
"326 752 OFFCURVE",
"160 604 OFFCURVE",
"160 392 CURVE SMOOTH",
"160 293 OFFCURVE",
"200 206 OFFCURVE",
"285 150 CURVE",
"285 144 LINE",
"91 144 LINE",
"91 15 LINE"
);
}
);
width = 946;
}
);
note = afii57409;
unicode = 0621;
},
{
glyphname = afii57440;
lastChange = "2016-11-30 01:18:20 +0000";
layers = (
{
layerId = "1C6E6581-F718-4B48-B828-7898AD953AFB";
paths = (
{
closed = 1;
nodes = (
"777 0 LINE",
"777 155 LINE",
"0 155 LINE SMOOTH",
"-44 155 OFFCURVE",
"-80 125 OFFCURVE",
"-80 77 CURVE SMOOTH",
"-80 29 OFFCURVE",
"-44 0 OFFCURVE",
"0 0 CURVE SMOOTH"
);
}
);
width = 777;
}
);
note = afii57440;
unicode = 0640;
},
{
glyphname = uni070A;
lastChange = "2016-11-30 01:18:20 +0000";
layers = (
{
layerId = "1C6E6581-F718-4B48-B828-7898AD953AFB";
paths = (
{
closed = 1;
nodes = (
"941 871 LINE",
"941 996 LINE",
"879 996 LINE SMOOTH",
"819 996 OFFCURVE",
"790 1020 OFFCURVE",
"790 1075 CURVE SMOOTH",
"790 1174 LINE",
"700 1174 LINE",
"700 1075 LINE SMOOTH",
"700 1020 OFFCURVE",
"668 996 OFFCURVE",
"607 996 CURVE SMOOTH",
"579 996 LINE SMOOTH",
"518 996 OFFCURVE",
"486 1020 OFFCURVE",
"486 1075 CURVE SMOOTH",
"486 1174 LINE",
"396 1174 LINE",
"396 1075 LINE SMOOTH",
"396 1020 OFFCURVE",
"367 996 OFFCURVE",
"307 996 CURVE SMOOTH",
"245 996 LINE",
"245 871 LINE"
);
},
{
closed = 1;
nodes = (
"650 -23 OFFCURVE",
"700 14 OFFCURVE",
"700 94 CURVE SMOOTH",
"700 167 OFFCURVE",
"658 210 OFFCURVE",
"594 210 CURVE SMOOTH",
"533 210 OFFCURVE",
"487 175 OFFCURVE",
"487 94 CURVE SMOOTH",
"487 14 OFFCURVE",
"533 -23 OFFCURVE",
"594 -23 CURVE SMOOTH"
);
},
{
closed = 1;
nodes = (
"650 440 OFFCURVE",
"700 477 OFFCURVE",
"700 557 CURVE SMOOTH",
"700 630 OFFCURVE",
"658 673 OFFCURVE",
"594 673 CURVE SMOOTH",
"533 673 OFFCURVE",
"487 638 OFFCURVE",
"487 557 CURVE SMOOTH",
"487 477 OFFCURVE",
"533 440 OFFCURVE",
"594 440 CURVE SMOOTH"
);
}
);
width = 1186;
}
);
note = uni070A;
unicode = 070A;
},
{
glyphname = uni070B;
lastChange = "2016-11-30 01:18:20 +0000";
layers = (
{
layerId = "1C6E6581-F718-4B48-B828-7898AD953AFB";
paths = (
{
closed = 1;
nodes = (
"1646 1200 LINE",
"1646 1325 LINE",
"244 1325 LINE",
"244 1200 LINE"
);
},
{
closed = 1;
nodes = (
"1002 803 OFFCURVE",
"1052 840 OFFCURVE",
"1052 920 CURVE SMOOTH",
"1052 993 OFFCURVE",
"1010 1036 OFFCURVE",
"946 1036 CURVE SMOOTH",
"885 1036 OFFCURVE",
"839 1001 OFFCURVE",
"839 920 CURVE SMOOTH",
"839 840 OFFCURVE",
"885 803 OFFCURVE",
"946 803 CURVE SMOOTH"
);
}
);
width = 1890;
}
);
note = uni070B;
unicode = 070B;
},
{
glyphname = uni070C;
lastChange = "2016-11-30 01:18:20 +0000";
layers = (
{
layerId = "1C6E6581-F718-4B48-B828-7898AD953AFB";
paths = (
{
closed = 1;
nodes = (
"1162 743 OFFCURVE",
"1158 837 OFFCURVE",
"1149 940 CURVE",
"1139 940 LINE",
"1069 808 LINE",
"334 1543 LINE",
"260 1472 LINE",
"995 734 LINE",
"867 663 LINE",
"867 653 LINE",
"968 644 OFFCURVE",
"1061 640 OFFCURVE",
"1162 640 CURVE"
);
}
);
width = 1422;
}
);
note = uni070C;
unicode = 070C;
},
{
glyphname = uni070D;
lastChange = "2016-11-30 01:18:20 +0000";
layers = (
{
layerId = "1C6E6581-F718-4B48-B828-7898AD953AFB";
paths = (
{
closed = 1;
nodes = (
"829 142 LINE",
"829 661 LINE",
"1328 661 LINE",
"1328 766 LINE",
"829 766 LINE",
"829 1285 LINE",
"724 1285 LINE",
"724 766 LINE",
"225 766 LINE",
"225 661 LINE",
"724 661 LINE",
"724 142 LINE"
);
},
{
closed = 1;
nodes = (
"570 364 OFFCURVE",
"610 394 OFFCURVE",
"610 458 CURVE SMOOTH",
"610 523 OFFCURVE",
"570 551 OFFCURVE",
"525 551 CURVE SMOOTH",
"476 551 OFFCURVE",
"439 523 OFFCURVE",
"439 458 CURVE SMOOTH",
"439 394 OFFCURVE",
"476 364 OFFCURVE",
"525 364 CURVE SMOOTH"
);
},
{
closed = 1;
nodes = (
"1074 364 OFFCURVE",
"1114 394 OFFCURVE",
"1114 458 CURVE SMOOTH",
"1114 523 OFFCURVE",
"1074 551 OFFCURVE",
"1029 551 CURVE SMOOTH",
"980 551 OFFCURVE",
"943 523 OFFCURVE",
"943 458 CURVE SMOOTH",
"943 394 OFFCURVE",
"980 364 OFFCURVE",
"1029 364 CURVE SMOOTH"
);
},
{
closed = 1;
nodes = (
"570 876 OFFCURVE",
"610 906 OFFCURVE",
"610 970 CURVE SMOOTH",
"610 1035 OFFCURVE",
"570 1063 OFFCURVE",
"525 1063 CURVE SMOOTH",
"476 1063 OFFCURVE",
"439 1035 OFFCURVE",
"439 970 CURVE SMOOTH",
"439 906 OFFCURVE",
"476 876 OFFCURVE",
"525 876 CURVE SMOOTH"
);
},
{
closed = 1;
nodes = (
"1074 876 OFFCURVE",
"1114 906 OFFCURVE",
"1114 970 CURVE SMOOTH",
"1114 1035 OFFCURVE",
"1074 1063 OFFCURVE",
"1029 1063 CURVE SMOOTH",
"980 1063 OFFCURVE",
"943 1035 OFFCURVE",
"943 970 CURVE SMOOTH",
"943 906 OFFCURVE",
"980 876 OFFCURVE",
"1029 876 CURVE SMOOTH"
);
}
);
width = 1553;
}
);
note = uni070D;
unicode = 070D;
},
{
glyphname = uni070F;
lastChange = "2016-11-30 01:18:20 +0000";
layers = (
{
layerId = "1C6E6581-F718-4B48-B828-7898AD953AFB";
paths = (
{
closed = 1;
nodes = (
"49 -185 LINE",
"49 1595 LINE",
"199 1595 LINE",
"199 1665 LINE",
"-176 1665 LINE",
"-176 1595 LINE",
"-26 1595 LINE",
"-26 -185 LINE"
);
}
);
width = 0;
}
);
note = uni070F;
unicode = 070F;
},
{
glyphname = uni0730;
lastChange = "2016-11-30 01:18:20 +0000";
layers = (
{
layerId = "1C6E6581-F718-4B48-B828-7898AD953AFB";
paths = (
{
closed = 1;
nodes = (
"229 1481 LINE",
"180 1534 LINE",
"124 1483 LINE",
"-179 1507 LINE",
"-183 1198 LINE",
"-243 1144 LINE",
"-194 1091 LINE"
);
},
{
closed = 1;
nodes = (
"-109 1427 LINE",
"53 1417 LINE",
"-115 1263 LINE"
);
}
);
width = 0;
}
);
note = uni0730;
unicode = 0730;
},
{
glyphname = uni0731;
lastChange = "2016-11-30 01:18:20 +0000";
layers = (
{
layerId = "1C6E6581-F718-4B48-B828-7898AD953AFB";
paths = (
{
closed = 1;
nodes = (
"-124 -374 LINE",
"179 -398 LINE",
"183 -89 LINE",
"243 -35 LINE",
"193 18 LINE",
"-230 -372 LINE",
"-180 -425 LINE"
);
},
{
closed = 1;
nodes = (
"-53 -308 LINE",
"115 -153 LINE",
"109 -318 LINE"
);
}
);
width = 0;
}
);
note = uni0731;
unicode = 0731;
},
{
glyphname = uni0733;
lastChange = "2016-11-30 01:18:20 +0000";
layers = (
{
layerId = "1C6E6581-F718-4B48-B828-7898AD953AFB";
paths = (
{
closed = 1;
nodes = (
"-13 1172 OFFCURVE",
"68 1237 OFFCURVE",
"105 1281 CURVE SMOOTH",
"142 1325 OFFCURVE",
"160 1370 OFFCURVE",
"160 1415 CURVE SMOOTH",
"160 1487 OFFCURVE",
"114 1542 OFFCURVE",
"30 1542 CURVE SMOOTH",
"-67 1542 OFFCURVE",
"-123 1464 OFFCURVE",
"-123 1361 CURVE SMOOTH",
"-123 1308 OFFCURVE",
"-110 1263 OFFCURVE",
"-86 1210 CURVE",
"-98 1201 OFFCURVE",
"-112 1191 OFFCURVE",
"-127 1181 CURVE SMOOTH",
"-143 1170 OFFCURVE",
"-160 1158 OFFCURVE",
"-178 1145 CURVE",
"-136 1087 LINE"
);
},
{
closed = 1;
nodes = (
"-38 1286 OFFCURVE",
"-50 1322 OFFCURVE",
"-50 1361 CURVE SMOOTH",
"-50 1421 OFFCURVE",
"-23 1468 OFFCURVE",
"26 1468 CURVE SMOOTH",
"61 1468 OFFCURVE",
"83 1444 OFFCURVE",
"83 1407 CURVE SMOOTH",
"83 1358 OFFCURVE",
"41 1310 OFFCURVE",
"-23 1259 CURVE"
);
}
);
width = 0;
}
);
note = uni0733;
unicode = 0733;
},
{
glyphname = uni0734;
lastChange = "2016-11-30 01:18:20 +0000";
layers = (
{
layerId = "1C6E6581-F718-4B48-B828-7898AD953AFB";
paths = (
{
closed = 1;
nodes = (
"67 -439 OFFCURVE",
"124 -362 OFFCURVE",
"124 -257 CURVE SMOOTH",
"124 -205 OFFCURVE",
"112 -159 OFFCURVE",
"88 -106 CURVE",
"112 -87 OFFCURVE",
"144 -65 OFFCURVE",
"180 -41 CURVE",
"137 18 LINE",
"18 -64 OFFCURVE",
"-61 -127 OFFCURVE",
"-100 -172 CURVE SMOOTH",
"-139 -217 OFFCURVE",
"-159 -264 OFFCURVE",
"-159 -311 CURVE SMOOTH",
"-159 -383 OFFCURVE",
"-112 -439 OFFCURVE",
"-29 -439 CURVE SMOOTH"
);
},
{
closed = 1;
nodes = (
"-60 -363 OFFCURVE",
"-81 -340 OFFCURVE",
"-81 -303 CURVE SMOOTH",
"-81 -276 OFFCURVE",
"-70 -244 OFFCURVE",
"-35 -209 CURVE SMOOTH",
"-7 -181 LINE SMOOTH",
"2 -172 OFFCURVE",
"13 -163 OFFCURVE",
"25 -154 CURVE",
"40 -182 OFFCURVE",
"52 -218 OFFCURVE",
"52 -257 CURVE SMOOTH",
"52 -317 OFFCURVE",
"26 -363 OFFCURVE",
"-25 -363 CURVE SMOOTH"
);
}
);
width = 0;
}
);
note = uni0734;
unicode = 0734;
},
{
glyphname = uni0735;
lastChange = "2016-11-30 01:18:20 +0000";
layers = (
{
layerId = "1C6E6581-F718-4B48-B828-7898AD953AFB";
paths = (
{
closed = 1;
nodes = (
"-21 1363 OFFCURVE",
"65 1479 OFFCURVE",
"65 1530 CURVE SMOOTH",
"65 1555 OFFCURVE",
"47 1577 OFFCURVE",
"18 1577 CURVE SMOOTH",
"-35 1577 OFFCURVE",
"-120 1461 OFFCURVE",
"-120 1410 CURVE SMOOTH",
"-120 1383 OFFCURVE",
"-104 1363 OFFCURVE",
"-73 1363 CURVE SMOOTH"
);
},
{
closed = 1;
nodes = (
"39 1117 OFFCURVE",
"125 1233 OFFCURVE",
"125 1284 CURVE SMOOTH",
"125 1309 OFFCURVE",
"107 1331 OFFCURVE",
"78 1331 CURVE SMOOTH",
"25 1331 OFFCURVE",
"-60 1216 OFFCURVE",
"-60 1164 CURVE SMOOTH",
"-60 1137 OFFCURVE",
"-44 1117 OFFCURVE",
"-13 1117 CURVE SMOOTH"
);
}
);
width = 0;
}
);
note = uni0735;
unicode = 0735;
},
{
glyphname = uni0736;
lastChange = "2016-11-30 01:18:20 +0000";
layers = (
{
layerId = "1C6E6581-F718-4B48-B828-7898AD953AFB";
paths = (
{
closed = 1;
nodes = (
"222 1134 OFFCURVE",
"228 1171 OFFCURVE",
"228 1206 CURVE SMOOTH",
"228 1381 OFFCURVE",
"134 1448 OFFCURVE",
"7 1448 CURVE SMOOTH",
"-104 1448 OFFCURVE",
"-182 1391 OFFCURVE",
"-247 1244 CURVE",
"-177 1218 LINE",
"-125 1333 OFFCURVE",
"-72 1379 OFFCURVE",
"3 1379 CURVE",
"18 1378 LINE",
"-59 1175 LINE",
"12 1152 LINE",
"89 1356 LINE",
"130 1332 OFFCURVE",
"151 1286 OFFCURVE",
"151 1199 CURVE SMOOTH",
"151 1180 OFFCURVE",
"146 1144 OFFCURVE",
"142 1123 CURVE",
"215 1106 LINE"
);
}
);
width = 0;
}
);
note = uni0736;
unicode = 0736;
},
{
glyphname = uni0737;
lastChange = "2016-11-30 01:18:20 +0000";
layers = (
{
layerId = "1C6E6581-F718-4B48-B828-7898AD953AFB";
paths = (
{
closed = 1;
nodes = (
"104 -339 OFFCURVE",
"182 -282 OFFCURVE",
"247 -135 CURVE",
"177 -109 LINE",
"128 -216 OFFCURVE",
"80 -270 OFFCURVE",
"-3 -270 CURVE",
"-18 -269 LINE",
"59 -66 LINE",
"-12 -43 LINE",
"-89 -247 LINE",
"-130 -223 OFFCURVE",
"-151 -177 OFFCURVE",
"-151 -90 CURVE SMOOTH",
"-151 -71 OFFCURVE",
"-146 -35 OFFCURVE",
"-142 -14 CURVE",
"-215 3 LINE",
"-222 -25 OFFCURVE",
"-228 -62 OFFCURVE",
"-228 -97 CURVE SMOOTH",
"-228 -272 OFFCURVE",
"-134 -339 OFFCURVE",
"-7 -339 CURVE SMOOTH"
);
}
);
width = 0;
}
);
note = uni0737;
unicode = 0737;
},
{
glyphname = uni073A;
lastChange = "2016-11-30 01:18:20 +0000";
layers = (
{
layerId = "1C6E6581-F718-4B48-B828-7898AD953AFB";
paths = (
{
closed = 1;
nodes = (
"226 1358 LINE",
"178 1408 LINE",
"54 1300 LINE",
"-10 1373 LINE",
"116 1483 LINE",
"67 1533 LINE",
"-240 1268 LINE",
"-191 1216 LINE",
"-65 1325 LINE",
"-1 1253 LINE",
"-128 1142 LINE",
"-81 1091 LINE"
);
}
);
width = 0;
}
);
note = uni073A;
unicode = 073A;
},
{
glyphname = uni073B;
lastChange = "2016-11-30 01:18:20 +0000";
layers = (
{
layerId = "1C6E6581-F718-4B48-B828-7898AD953AFB";
paths = (
{
closed = 1;
nodes = (
"240 -159 LINE",
"191 -107 LINE",
"65 -216 LINE",
"1 -144 LINE",
"128 -34 LINE",
"81 18 LINE",
"-226 -249 LINE",
"-178 -299 LINE",
"-54 -191 LINE",
"10 -264 LINE",
"-116 -374 LINE",
"-68 -425 LINE"
);
}
);
width = 0;
}
);
note = uni073B;
unicode = 073B;
},
{
glyphname = uni073D;
lastChange = "2016-11-30 01:18:20 +0000";
layers = (
{
layerId = "1C6E6581-F718-4B48-B828-7898AD953AFB";
paths = (
{
closed = 1;
nodes = (
"213 1226 LINE",
"46 1407 LINE",
"143 1517 LINE",
"86 1561 LINE",
"-214 1225 LINE",
"-158 1180 LINE",
"-4 1351 LINE",
"158 1174 LINE"
);
},
{
closed = 1;
nodes = (
"31 1109 OFFCURVE",
"59 1131 OFFCURVE",
"59 1179 CURVE SMOOTH",
"59 1226 OFFCURVE",
"31 1246 OFFCURVE",
"-2 1246 CURVE SMOOTH",
"-38 1246 OFFCURVE",
"-64 1226 OFFCURVE",
"-64 1179 CURVE SMOOTH",
"-64 1131 OFFCURVE",
"-38 1109 OFFCURVE",
"-2 1109 CURVE SMOOTH"
);
}
);
width = 0;
}
);
note = uni073D;
unicode = 073D;
},
{
glyphname = uni073E;
lastChange = "2016-11-30 01:18:20 +0000";
layers = (
{
layerId = "1C6E6581-F718-4B48-B828-7898AD953AFB";
paths = (
{
closed = 1;
nodes = (
"214 -116 LINE",
"159 -71 LINE",
"4 -242 LINE",
"-158 -65 LINE",
"-214 -117 LINE",
"-47 -298 LINE",
"-143 -408 LINE",
"-87 -452 LINE"
);
},
{
closed = 1;
nodes = (
"38 -137 OFFCURVE",
"64 -117 OFFCURVE",
"64 -70 CURVE SMOOTH",
"64 -23 OFFCURVE",
"38 0 OFFCURVE",
"2 0 CURVE SMOOTH",
"-30 0 OFFCURVE",
"-60 -23 OFFCURVE",
"-60 -70 CURVE SMOOTH",
"-60 -117 OFFCURVE",
"-30 -137 OFFCURVE",
"2 -137 CURVE SMOOTH"
);
}
);
width = 0;
}
);
note = uni073E;
unicode = 073E;
},
{
glyphname = uni0747;
lastChange = "2016-11-30 01:18:20 +0000";
layers = (
{
layerId = "1C6E6581-F718-4B48-B828-7898AD953AFB";
paths = (
{
closed = 1;
nodes = (
"208 1391 LINE",
"151 1452 LINE",
"-231 1134 LINE",
"-173 1073 LINE"
);
}
);
width = 0;
}
);
note = uni0747;
unicode = 0747;
},
{
glyphname = uni0748;
lastChange = "2016-11-30 01:15:49 +0000";
layers = (
{
layerId = "1C6E6581-F718-4B48-B828-7898AD953AFB";
paths = (
{
closed = 1;
nodes = (
"208 -282 LINE",
"-173 36 LINE",
"-232 -27 LINE",
"150 -345 LINE"
);
}
);
width = 0;
}
);
note = uni0748;
unicode = 0748;
},
{
glyphname = uni0749;
lastChange = "2016-11-30 01:18:20 +0000";
layers = (
{
layerId = "1C6E6581-F718-4B48-B828-7898AD953AFB";
paths = (
{
closed = 1;
nodes = (
"188 1216 LINE",
"334 1133 LINE",
"361 1176 LINE",
"214 1261 LINE",
"273 1363 LINE",
"232 1387 LINE",
"173 1286 LINE",
"124 1314 LINE",
"183 1414 LINE",
"142 1439 LINE",
"83 1337 LINE",
"34 1365 LINE",
"92 1467 LINE",
"51 1490 LINE",
"-7 1390 LINE",
"-56 1417 LINE",
"2 1517 LINE",
"-41 1543 LINE",
"-98 1442 LINE",
"-146 1470 LINE",
"-89 1570 LINE",
"-132 1594 LINE",
"-189 1494 LINE",
"-326 1574 LINE",
"-353 1530 LINE",
"-214 1449 LINE",
"-277 1343 LINE",
"-235 1319 LINE",
"-173 1426 LINE",
"-124 1397 LINE",
"-187 1291 LINE",
"-145 1268 LINE",
"-83 1372 LINE",
"-34 1345 LINE",
"-95 1238 LINE",
"-53 1215 LINE",
"8 1320 LINE",
"56 1292 LINE",
"-5 1188 LINE",
"37 1163 LINE",
"98 1269 LINE",
"146 1241 LINE",
"85 1135 LINE",
"127 1111 LINE"
);
}
);
width = 0;
}
);
note = uni0749;
unicode = 0749;
},
{
glyphname = uni074A;
lastChange = "2016-11-30 01:18:20 +0000";
layers = (
{
layerId = "1C6E6581-F718-4B48-B828-7898AD953AFB";
paths = (
{
closed = 1;
nodes = (
"24 1109 LINE",
"24 1342 LINE",
"247 1342 LINE",
"247 1390 LINE",
"24 1390 LINE",
"24 1623 LINE",
"-25 1623 LINE",
"-25 1390 LINE",
"-249 1390 LINE",
"-249 1342 LINE",
"-25 1342 LINE",
"-25 1109 LINE"
);
},
{
closed = 1;
nodes = (
"-93 1209 OFFCURVE",
"-75 1223 OFFCURVE",
"-75 1251 CURVE SMOOTH",
"-75 1280 OFFCURVE",
"-93 1292 OFFCURVE",
"-114 1292 CURVE SMOOTH",
"-137 1292 OFFCURVE",
"-152 1280 OFFCURVE",
"-152 1251 CURVE SMOOTH",
"-152 1223 OFFCURVE",
"-137 1209 OFFCURVE",
"-114 1209 CURVE SMOOTH"
);
},
{
closed = 1;
nodes = (
"133 1209 OFFCURVE",
"151 1223 OFFCURVE",
"151 1251 CURVE SMOOTH",
"151 1280 OFFCURVE",
"133 1292 OFFCURVE",
"114 1292 CURVE SMOOTH",
"91 1292 OFFCURVE",
"74 1280 OFFCURVE",
"74 1251 CURVE SMOOTH",
"74 1223 OFFCURVE",
"91 1209 OFFCURVE",
"114 1209 CURVE SMOOTH"
);
},
{
closed = 1;
nodes = (
"-93 1440 OFFCURVE",
"-75 1453 OFFCURVE",
"-75 1481 CURVE SMOOTH",
"-75 1512 OFFCURVE",
"-93 1523 OFFCURVE",
"-114 1523 CURVE SMOOTH",
"-137 1523 OFFCURVE",
"-152 1512 OFFCURVE",
"-152 1481 CURVE SMOOTH",
"-152 1453 OFFCURVE",
"-137 1440 OFFCURVE",
"-114 1440 CURVE SMOOTH"
);
},
{
closed = 1;
nodes = (
"133 1440 OFFCURVE",
"151 1453 OFFCURVE",
"151 1481 CURVE SMOOTH",
"151 1512 OFFCURVE",
"133 1523 OFFCURVE",
"114 1523 CURVE SMOOTH",
"91 1523 OFFCURVE",
"74 1512 OFFCURVE",
"74 1481 CURVE SMOOTH",
"74 1453 OFFCURVE",
"91 1440 OFFCURVE",
"114 1440 CURVE SMOOTH"
);
}
);
width = 0;
}
);
note = uni074A;
unicode = 074A;
},
{
glyphname = tildecomb;
lastChange = "2016-11-30 01:18:20 +0000";
layers = (
{
layerId = "1C6E6581-F718-4B48-B828-7898AD953AFB";
paths = (
{
closed = 1;
nodes = (
"201 1108 OFFCURVE",
"257 1172 OFFCURVE",
"268 1289 CURVE",
"193 1289 LINE",
"182 1229 OFFCURVE",
"163 1205 OFFCURVE",
"116 1205 CURVE SMOOTH",
"94 1205 OFFCURVE",
"60 1219 OFFCURVE",
"14 1248 CURVE SMOOTH",
"-33 1277 OFFCURVE",
"-73 1291 OFFCURVE",
"-108 1291 CURVE SMOOTH",
"-199 1291 OFFCURVE",
"-255 1226 OFFCURVE",
"-267 1109 CURVE",
"-191 1109 LINE",
"-182 1169 OFFCURVE",
"-162 1193 OFFCURVE",
"-115 1193 CURVE SMOOTH",
"-90 1193 OFFCURVE",
"-55 1179 OFFCURVE",
"-8 1151 CURVE SMOOTH",
"39 1122 OFFCURVE",
"78 1108 OFFCURVE",
"110 1108 CURVE SMOOTH"
);
}
);
width = 0;
}
);
note = tildecomb;
unicode = 0303;
},
{
glyphname = uni0304;
lastChange = "2016-11-30 01:15:49 +0000";
layers = (
{
layerId = "1C6E6581-F718-4B48-B828-7898AD953AFB";
paths = (
{
closed = 1;
nodes = (
"261 1127 LINE",
"261 1220 LINE",
"-261 1220 LINE",
"-261 1127 LINE"
);
}
);
width = 0;
}
);
note = uni0304;
unicode = 0304;
},
{
glyphname = uni030A;
lastChange = "2016-11-30 01:15:49 +0000";
layers = (
{
layerId = "1C6E6581-F718-4B48-B828-7898AD953AFB";
paths = (
{
closed = 1;
nodes = (
"73 1121 OFFCURVE",
"132 1175 OFFCURVE",
"132 1255 CURVE SMOOTH",
"132 1338 OFFCURVE",
"76 1383 OFFCURVE",
"0 1383 CURVE SMOOTH",
"-77 1383 OFFCURVE",
"-132 1327 OFFCURVE",
"-132 1250 CURVE SMOOTH",
"-132 1170 OFFCURVE",
"-77 1121 OFFCURVE",
"0 1121 CURVE SMOOTH"
);
},
{
closed = 1;
nodes = (
"-39 1182 OFFCURVE",
"-67 1208 OFFCURVE",
"-67 1252 CURVE SMOOTH",
"-67 1296 OFFCURVE",
"-39 1322 OFFCURVE",
"0 1322 CURVE SMOOTH",
"37 1322 OFFCURVE",
"66 1296 OFFCURVE",
"66 1252 CURVE SMOOTH",
"66 1208 OFFCURVE",
"39 1182 OFFCURVE",
"0 1182 CURVE SMOOTH"
);
}
);
width = 0;
}
);
note = uni030A;
unicode = 030A;
},
{
glyphname = dotbelowcomb;
lastChange = "2016-11-30 01:18:20 +0000";
layers = (
{
layerId = "1C6E6581-F718-4B48-B828-7898AD953AFB";
paths = (
{
closed = 1;
nodes = (
"66 -236 OFFCURVE",
"105 -196 OFFCURVE",
"105 -121 CURVE SMOOTH",
"105 -45 OFFCURVE",
"67 -5 OFFCURVE",
"-1 -5 CURVE SMOOTH",
"-65 -5 OFFCURVE",
"-102 -45 OFFCURVE",
"-102 -121 CURVE SMOOTH",
"-102 -204 OFFCURVE",
"-60 -236 OFFCURVE",
"-1 -236 CURVE SMOOTH"
);
}
);
width = 0;
}
);
note = dotbelowcomb;
unicode = 0323;
},
{
glyphname = uni0325;
lastChange = "2016-11-30 01:18:20 +0000";
layers = (
{
layerId = "1C6E6581-F718-4B48-B828-7898AD953AFB";
paths = (
{
closed = 1;
nodes = (
"77 -274 OFFCURVE",
"132 -218 OFFCURVE",
"132 -141 CURVE SMOOTH",
"132 -61 OFFCURVE",
"77 -12 OFFCURVE",
"0 -12 CURVE SMOOTH",
"-73 -12 OFFCURVE",
"-132 -66 OFFCURVE",
"-132 -146 CURVE SMOOTH",
"-132 -229 OFFCURVE",
"-76 -274 OFFCURVE",
"0 -274 CURVE SMOOTH"
);
},
{
closed = 1;
nodes = (
"-37 -213 OFFCURVE",
"-66 -187 OFFCURVE",
"-66 -143 CURVE SMOOTH",
"-66 -99 OFFCURVE",
"-39 -73 OFFCURVE",
"0 -73 CURVE SMOOTH",
"39 -73 OFFCURVE",
"67 -99 OFFCURVE",
"67 -143 CURVE SMOOTH",
"67 -187 OFFCURVE",
"39 -213 OFFCURVE",
"0 -213 CURVE SMOOTH"
);
}
);
width = 0;
}
);
note = uni0325;
unicode = 0325;
},
{
glyphname = uni032D;
lastChange = "2016-11-30 01:15:49 +0000";
layers = (
{
layerId = "1C6E6581-F718-4B48-B828-7898AD953AFB";
paths = (
{
closed = 1;
nodes = (
"-154 -205 LINE",
"-131 -187 OFFCURVE",
"-106 -167 OFFCURVE",
"-79 -146 CURVE SMOOTH",
"-2 -83 LINE",
"73 -148 LINE SMOOTH",
"98 -170 OFFCURVE",
"121 -189 OFFCURVE",
"142 -205 CURVE",
"245 -205 LINE",
"245 -196 LINE",
"195 -149 LINE SMOOTH",
"142 -98 OFFCURVE",
"85 -43 OFFCURVE",
"46 0 CURVE",
"-43 0 LINE",
"-89 -46 LINE SMOOTH",
"-106 -63 OFFCURVE",
"-123 -81 OFFCURVE",
"-141 -98 CURVE SMOOTH",
"-194 -149 LINE",
"-245 -196 LINE",
"-245 -205 LINE"
);
}
);
width = 0;
}
);
note = uni032D;
unicode = 032D;
},
{
glyphname = uni032E;
lastChange = "2016-11-30 01:18:20 +0000";
layers = (
{
layerId = "1C6E6581-F718-4B48-B828-7898AD953AFB";
paths = (
{
closed = 1;
nodes = (
"144 -124 OFFCURVE",
"251 -34 OFFCURVE",
"262 101 CURVE",
"183 101 LINE",
"168 25 OFFCURVE",
"104 -29 OFFCURVE",
"0 -29 CURVE SMOOTH",
"-101 -29 OFFCURVE",
"-161 16 OFFCURVE",
"-180 101 CURVE",
"-259 101 LINE",
"-252 -43 OFFCURVE",
"-155 -124 OFFCURVE",
"-4 -124 CURVE SMOOTH"
);
}
);
width = 0;
}
);
note = uni032E;
unicode = 032E;
},
{
glyphname = uni0330;
lastChange = "2016-11-30 01:18:20 +0000";
layers = (
{
layerId = "1C6E6581-F718-4B48-B828-7898AD953AFB";
paths = (
{
closed = 1;
nodes = (
"199 -182 OFFCURVE",
"255 -117 OFFCURVE",
"267 0 CURVE",
"191 0 LINE",
"182 -60 OFFCURVE",
"162 -83 OFFCURVE",
"115 -83 CURVE SMOOTH",
"90 -83 OFFCURVE",
"55 -69 OFFCURVE",
"8 -40 CURVE SMOOTH",
"-39 -12 OFFCURVE",
"-78 2 OFFCURVE",
"-110 2 CURVE SMOOTH",
"-201 2 OFFCURVE",
"-257 -63 OFFCURVE",
"-268 -180 CURVE",
"-194 -180 LINE",
"-183 -120 OFFCURVE",
"-163 -97 OFFCURVE",
"-116 -97 CURVE SMOOTH",
"-93 -97 OFFCURVE",
"-59 -111 OFFCURVE",
"-13 -139 CURVE SMOOTH",
"33 -168 OFFCURVE",
"73 -182 OFFCURVE",
"108 -182 CURVE SMOOTH"
);
}
);
width = 0;
}
);
note = uni0330;
unicode = 0330;
},
{
glyphname = uni0320;
lastChange = "2016-11-30 01:18:20 +0000";
layers = (
{
layerId = "1C6E6581-F718-4B48-B828-7898AD953AFB";
paths = (
{
closed = 1;
nodes = (
"261 -106 LINE",
"261 -18 LINE",
"-261 -18 LINE",
"-261 -106 LINE"
);
}
);
width = 0;
}
);
note = uni0320;
unicode = 0320;
},
{
glyphname = afii57451;
lastChange = "2016-11-30 01:18:20 +0000";
layers = (
{
layerId = "1C6E6581-F718-4B48-B828-7898AD953AFB";
paths = (
{
closed = 1;
nodes = (
"180 1398 LINE",
"177 1470 LINE",
"-200 1328 LINE",
"-197 1256 LINE"
);
},
{
closed = 1;
nodes = (
"191 1243 LINE",
"188 1314 LINE",
"-189 1172 LINE",
"-186 1101 LINE"
);
}
);
width = 0;
}
);
note = afii57451;
unicode = 064B;
},
{
glyphname = afii57452;
lastChange = "2016-11-30 01:18:20 +0000";
layers = (
{
layerId = "1C6E6581-F718-4B48-B828-7898AD953AFB";
paths = (
{
closed = 1;
nodes = (
"-82 1142 LINE SMOOTH",
"23 1181 OFFCURVE",
"95 1215 OFFCURVE",
"133 1243 CURVE SMOOTH",
"170 1270 OFFCURVE",
"189 1308 OFFCURVE",
"189 1355 CURVE SMOOTH",
"189 1422 OFFCURVE",
"137 1468 OFFCURVE",
"73 1468 CURVE SMOOTH",
"2 1468 OFFCURVE",
"-55 1412 OFFCURVE",
"-55 1341 CURVE SMOOTH",
"-55 1300 OFFCURVE",
"-37 1264 OFFCURVE",
"-10 1243 CURVE",
"-27 1235 OFFCURVE",
"-47 1227 OFFCURVE",
"-68 1218 CURVE SMOOTH",
"-132 1191 LINE",
"-121 1208 OFFCURVE",
"-120 1228 OFFCURVE",
"-120 1244 CURVE SMOOTH",
"-120 1312 OFFCURVE",
"-170 1349 OFFCURVE",
"-238 1349 CURVE",
"-235 1281 LINE",
"-199 1278 OFFCURVE",
"-183 1252 OFFCURVE",
"-183 1225 CURVE SMOOTH",
"-183 1204 OFFCURVE",
"-188 1186 OFFCURVE",
"-201 1167 CURVE",
"-195 1100 LINE"
);
},
{
closed = 1;
nodes = (
"27 1287 OFFCURVE",
"11 1312 OFFCURVE",
"11 1341 CURVE SMOOTH",
"11 1376 OFFCURVE",
"37 1397 OFFCURVE",
"68 1397 CURVE SMOOTH",
"99 1397 OFFCURVE",
"120 1377 OFFCURVE",
"120 1346 CURVE SMOOTH",
"120 1311 OFFCURVE",
"93 1288 OFFCURVE",
"61 1275 CURVE SMOOTH",
"54 1272 LINE"
);
}
);
width = 0;
}
);
note = afii57452;
unicode = 064C;
},
{
glyphname = afii57453;
lastChange = "2016-11-30 01:18:20 +0000";
layers = (
{
layerId = "1C6E6581-F718-4B48-B828-7898AD953AFB";
paths = (
{
closed = 1;
nodes = (
"180 -61 LINE",
"177 11 LINE",
"-200 -131 LINE",
"-197 -203 LINE"
);
},
{
closed = 1;
nodes = (
"191 -216 LINE",
"188 -145 LINE",
"-189 -287 LINE",
"-186 -358 LINE"
);
}
);
width = 0;
}
);
note = afii57453;
unicode = 064D;
},
{
glyphname = afii57454;
lastChange = "2016-11-30 01:18:20 +0000";
layers = (
{
layerId = "1C6E6581-F718-4B48-B828-7898AD953AFB";
paths = (
{
closed = 1;
nodes = (
"191 1243 LINE",
"188 1314 LINE",
"-189 1172 LINE",
"-186 1101 LINE"
);
}
);
width = 0;
}
);
note = afii57454;
unicode = 064E;
},
{
glyphname = afii57455;
lastChange = "2016-11-30 01:18:20 +0000";
layers = (
{
layerId = "1C6E6581-F718-4B48-B828-7898AD953AFB";
paths = (
{
closed = 1;
nodes = (
"-33 1156 OFFCURVE",
"69 1198 OFFCURVE",
"115 1228 CURVE SMOOTH",
"161 1258 OFFCURVE",
"184 1299 OFFCURVE",
"184 1351 CURVE SMOOTH",
"184 1418 OFFCURVE",
"128 1464 OFFCURVE",
"64 1464 CURVE SMOOTH",
"-8 1464 OFFCURVE",
"-69 1407 OFFCURVE",
"-69 1335 CURVE SMOOTH",
"-69 1290 OFFCURVE",
"-47 1261 OFFCURVE",
"-20 1240 CURVE",
"-34 1234 OFFCURVE",
"-49 1228 OFFCURVE",
"-65 1222 CURVE SMOOTH",
"-158 1187 LINE",
"-173 1182 OFFCURVE",
"-185 1177 OFFCURVE",
"-195 1174 CURVE",
"-192 1101 LINE"
);
},
{
closed = 1;
nodes = (
"18 1282 OFFCURVE",
"0 1306 OFFCURVE",
"0 1335 CURVE SMOOTH",
"0 1370 OFFCURVE",
"27 1391 OFFCURVE",
"59 1391 CURVE SMOOTH",
"98 1391 OFFCURVE",
"116 1369 OFFCURVE",
"116 1342 CURVE SMOOTH",
"116 1311 OFFCURVE",
"95 1289 OFFCURVE",
"52 1269 CURVE",
"45 1267 LINE"
);
}
);
width = 0;
}
);
note = afii57455;
unicode = 064F;
},
{
glyphname = afii57456;
lastChange = "2016-11-30 01:18:20 +0000";
layers = (
{
layerId = "1C6E6581-F718-4B48-B828-7898AD953AFB";
paths = (
{
closed = 1;
nodes = (
"180 -61 LINE",
"177 11 LINE",
"-200 -131 LINE",
"-197 -203 LINE"
);
}
);
width = 0;
}
);
note = afii57456;
unicode = 0650;
},
{
glyphname = afii57457;
lastChange = "2016-11-30 01:18:20 +0000";
layers = (
{
layerId = "1C6E6581-F718-4B48-B828-7898AD953AFB";
paths = (
{
closed = 1;
nodes = (
"-60 1113 OFFCURVE",
"-23 1154 OFFCURVE",
"-15 1222 CURVE",
"2 1194 OFFCURVE",
"33 1180 OFFCURVE",
"66 1180 CURVE SMOOTH",
"129 1180 OFFCURVE",
"175 1227 OFFCURVE",
"175 1304 CURVE SMOOTH",
"175 1347 OFFCURVE",
"159 1383 OFFCURVE",
"132 1410 CURVE",
"72 1387 LINE",
"88 1368 OFFCURVE",
"110 1341 OFFCURVE",
"110 1305 CURVE SMOOTH",
"110 1274 OFFCURVE",
"97 1250 OFFCURVE",
"62 1250 CURVE SMOOTH",
"46 1250 OFFCURVE",
"32 1257 OFFCURVE",
"20 1270 CURVE SMOOTH",
"8 1283 OFFCURVE",
"-3 1308 OFFCURVE",
"-14 1345 CURVE",
"-77 1321 LINE",
"-70 1302 OFFCURVE",
"-65 1277 OFFCURVE",
"-65 1254 CURVE SMOOTH",
"-65 1218 OFFCURVE",
"-79 1183 OFFCURVE",
"-120 1183 CURVE SMOOTH",
"-161 1183 OFFCURVE",
"-182 1225 OFFCURVE",
"-182 1288 CURVE",
"-241 1270 LINE",
"-241 1261 LINE SMOOTH",
"-241 1176 OFFCURVE",
"-196 1113 OFFCURVE",
"-124 1113 CURVE SMOOTH"
);
}
);
width = 0;
}
);
note = afii57457;
unicode = 0651;
},
{
glyphname = afii57458;
lastChange = "2016-11-30 01:18:20 +0000";
layers = (
{
layerId = "1C6E6581-F718-4B48-B828-7898AD953AFB";
paths = (
{
closed = 1;
nodes = (
"68 1109 OFFCURVE",
"128 1167 OFFCURVE",
"128 1238 CURVE SMOOTH",
"128 1321 OFFCURVE",
"67 1381 OFFCURVE",
"-12 1381 CURVE SMOOTH",
"-81 1381 OFFCURVE",
"-146 1317 OFFCURVE",
"-146 1242 CURVE SMOOTH",
"-146 1163 OFFCURVE",
"-89 1109 OFFCURVE",
"-9 1109 CURVE SMOOTH"
);
},
{
closed = 1;
nodes = (
"-54 1174 OFFCURVE",
"-82 1205 OFFCURVE",
"-82 1244 CURVE SMOOTH",
"-82 1283 OFFCURVE",
"-52 1315 OFFCURVE",
"-9 1315 CURVE SMOOTH",
"34 1315 OFFCURVE",
"64 1288 OFFCURVE",
"64 1245 CURVE SMOOTH",
"64 1206 OFFCURVE",
"38 1174 OFFCURVE",
"-11 1174 CURVE SMOOTH"
);
}
);
width = 0;
}
);
note = afii57458;
unicode = 0652;
},
{
glyphname = uni0653;
lastChange = "2016-11-30 01:15:49 +0000";
layers = (
{
layerId = "1C6E6581-F718-4B48-B828-7898AD953AFB";
paths = (
{
closed = 1;
nodes = (
"-170 1133 LINE SMOOTH",
"-159 1146 OFFCURVE",
"-150 1156 OFFCURVE",
"-145 1161 CURVE",
"-96 1138 OFFCURVE",
"-46 1125 OFFCURVE",
"30 1125 CURVE SMOOTH",
"101 1125 OFFCURVE",
"192 1152 OFFCURVE",
"237 1188 CURVE",
"195 1248 LINE",
"154 1223 OFFCURVE",
"98 1206 OFFCURVE",
"41 1206 CURVE SMOOTH",
"-18 1206 OFFCURVE",
"-69 1213 OFFCURVE",
"-160 1246 CURVE",
"-166 1241 OFFCURVE",
"-173 1233 OFFCURVE",
"-181 1224 CURVE SMOOTH",
"-208 1193 LINE SMOOTH",
"-227 1170 OFFCURVE",
"-245 1147 OFFCURVE",
"-260 1127 CURVE",
"-204 1092 LINE"
);
}
);
width = 0;
}
);
note = uni0653;
unicode = 0653;
},
{
glyphname = uni0654;
lastChange = "2016-11-30 01:18:20 +0000";
layers = (
{
layerId = "1C6E6581-F718-4B48-B828-7898AD953AFB";
paths = (
{
closed = 1;
nodes = (
"138 1144 LINE",
"138 1220 LINE",
"46 1210 LINE",
"43 1209 OFFCURVE",
"39 1209 OFFCURVE",
"34 1209 CURVE",
"19 1208 LINE",
"-28 1208 OFFCURVE",
"-56 1244 OFFCURVE",
"-56 1281 CURVE SMOOTH",
"-56 1328 OFFCURVE",
"-23 1355 OFFCURVE",
"28 1355 CURVE SMOOTH",
"49 1355 OFFCURVE",
"72 1353 OFFCURVE",
"97 1344 CURVE",
"120 1410 LINE",
"89 1426 OFFCURVE",
"48 1432 OFFCURVE",
"21 1432 CURVE SMOOTH",
"-64 1432 OFFCURVE",
"-135 1369 OFFCURVE",
"-135 1280 CURVE SMOOTH",
"-135 1253 OFFCURVE",
"-126 1218 OFFCURVE",
"-97 1191 CURVE",
"-159 1184 LINE",
"-159 1109 LINE"
);
}
);
width = 0;
}
);
note = uni0654;
unicode = 0654;
},
{
glyphname = uni0655;
lastChange = "2016-11-30 01:18:20 +0000";
layers = (
{
layerId = "1C6E6581-F718-4B48-B828-7898AD953AFB";
paths = (
{
closed = 1;
nodes = (
"138 -288 LINE",
"138 -212 LINE",
"29 -223 LINE",
"26 -224 OFFCURVE",
"22 -224 OFFCURVE",
"19 -224 CURVE SMOOTH",
"-24 -224 OFFCURVE",
"-56 -192 OFFCURVE",
"-56 -151 CURVE SMOOTH",
"-56 -104 OFFCURVE",
"-23 -75 OFFCURVE",
"28 -75 CURVE SMOOTH",
"50 -75 OFFCURVE",
"73 -79 OFFCURVE",
"97 -88 CURVE",
"120 -20 LINE",
"89 -5 OFFCURVE",
"48 0 OFFCURVE",
"21 0 CURVE SMOOTH",
"-63 0 OFFCURVE",
"-135 -62 OFFCURVE",
"-135 -151 CURVE SMOOTH",
"-135 -178 OFFCURVE",
"-126 -214 OFFCURVE",
"-97 -241 CURVE",
"-159 -248 LINE",
"-159 -322 LINE"
);
}
);
width = 0;
}
);
note = uni0655;
unicode = 0655;
},
{
glyphname = uni0670;
lastChange = "2016-11-30 01:18:20 +0000";
layers = (
{
layerId = "1C6E6581-F718-4B48-B828-7898AD953AFB";
paths = (
{
closed = 1;
nodes = (
"47 1109 LINE",
"47 1478 LINE",
"-47 1478 LINE",
"-47 1109 LINE"
);
}
);
width = 0;
}
);
note = uni0670;
unicode = 0670;
},
{
glyphname = g191;
lastChange = "2016-11-30 01:18:20 +0000";
layers = (
{
layerId = "1C6E6581-F718-4B48-B828-7898AD953AFB";
paths = (
{
closed = 1;
nodes = (
"-129 1432 LINE SMOOTH",
"-24 1471 OFFCURVE",
"48 1505 OFFCURVE",
"86 1533 CURVE SMOOTH",
"123 1560 OFFCURVE",
"142 1598 OFFCURVE",
"142 1645 CURVE SMOOTH",
"142 1712 OFFCURVE",
"90 1758 OFFCURVE",
"26 1758 CURVE SMOOTH",
"-45 1758 OFFCURVE",
"-102 1702 OFFCURVE",
"-102 1631 CURVE SMOOTH",
"-102 1590 OFFCURVE",
"-84 1554 OFFCURVE",
"-57 1533 CURVE",
"-74 1525 OFFCURVE",
"-94 1517 OFFCURVE",
"-115 1508 CURVE SMOOTH",
"-179 1481 LINE",
"-168 1498 OFFCURVE",
"-167 1518 OFFCURVE",
"-167 1534 CURVE SMOOTH",
"-167 1602 OFFCURVE",
"-217 1639 OFFCURVE",
"-285 1639 CURVE",
"-282 1571 LINE",
"-246 1568 OFFCURVE",
"-230 1542 OFFCURVE",
"-230 1515 CURVE SMOOTH",
"-230 1494 OFFCURVE",
"-235 1476 OFFCURVE",
"-248 1457 CURVE",
"-242 1390 LINE"
);
},
{
closed = 1;
nodes = (
"-60 1113 OFFCURVE",
"-23 1154 OFFCURVE",
"-15 1222 CURVE",
"2 1194 OFFCURVE",
"33 1180 OFFCURVE",
"66 1180 CURVE SMOOTH",
"129 1180 OFFCURVE",
"175 1227 OFFCURVE",
"175 1304 CURVE SMOOTH",
"175 1347 OFFCURVE",
"159 1383 OFFCURVE",
"132 1410 CURVE",
"72 1387 LINE",
"88 1368 OFFCURVE",
"110 1341 OFFCURVE",
"110 1305 CURVE SMOOTH",
"110 1274 OFFCURVE",
"97 1250 OFFCURVE",
"62 1250 CURVE SMOOTH",
"46 1250 OFFCURVE",
"32 1257 OFFCURVE",
"20 1270 CURVE SMOOTH",
"8 1283 OFFCURVE",
"-3 1308 OFFCURVE",
"-14 1345 CURVE",
"-77 1321 LINE",
"-70 1302 OFFCURVE",
"-65 1277 OFFCURVE",
"-65 1254 CURVE SMOOTH",
"-65 1218 OFFCURVE",
"-79 1183 OFFCURVE",
"-120 1183 CURVE SMOOTH",
"-161 1183 OFFCURVE",
"-182 1225 OFFCURVE",
"-182 1288 CURVE",
"-241 1270 LINE",
"-241 1261 LINE SMOOTH",
"-241 1176 OFFCURVE",
"-196 1113 OFFCURVE",
"-124 1113 CURVE SMOOTH"
);
},
{
closed = 1;
nodes = (
"-20 1577 OFFCURVE",
"-36 1602 OFFCURVE",
"-36 1631 CURVE SMOOTH",
"-36 1666 OFFCURVE",
"-10 1687 OFFCURVE",
"21 1687 CURVE SMOOTH",
"52 1687 OFFCURVE",
"73 1667 OFFCURVE",
"73 1636 CURVE SMOOTH",
"73 1601 OFFCURVE",
"46 1578 OFFCURVE",
"14 1565 CURVE SMOOTH",
"7 1562 LINE"
);
}
);
width = 0;
}
);
note = g191;
},
{
glyphname = g192;
lastChange = "2016-11-30 01:18:20 +0000";
layers = (
{
layerId = "1C6E6581-F718-4B48-B828-7898AD953AFB";
paths = (
{
closed = 1;
nodes = (
"-62 1476 OFFCURVE",
"-25 1517 OFFCURVE",
"-17 1585 CURVE",
"0 1557 OFFCURVE",
"31 1543 OFFCURVE",
"64 1543 CURVE SMOOTH",
"127 1543 OFFCURVE",
"173 1590 OFFCURVE",
"173 1667 CURVE SMOOTH",
"173 1710 OFFCURVE",
"157 1746 OFFCURVE",
"130 1773 CURVE",
"70 1750 LINE",
"86 1731 OFFCURVE",
"108 1704 OFFCURVE",
"108 1668 CURVE SMOOTH",
"108 1637 OFFCURVE",
"95 1613 OFFCURVE",
"60 1613 CURVE SMOOTH",
"44 1613 OFFCURVE",
"30 1620 OFFCURVE",
"18 1633 CURVE SMOOTH",
"6 1646 OFFCURVE",
"-5 1671 OFFCURVE",
"-16 1708 CURVE",
"-79 1684 LINE",
"-72 1665 OFFCURVE",
"-67 1640 OFFCURVE",
"-67 1617 CURVE SMOOTH",
"-67 1581 OFFCURVE",
"-81 1546 OFFCURVE",
"-122 1546 CURVE SMOOTH",
"-163 1546 OFFCURVE",
"-184 1588 OFFCURVE",
"-184 1651 CURVE",
"-243 1633 LINE",
"-243 1624 LINE SMOOTH",
"-243 1539 OFFCURVE",
"-198 1476 OFFCURVE",
"-126 1476 CURVE SMOOTH"
);
},
{
closed = 1;
nodes = (
"191 1243 LINE",
"188 1314 LINE",
"-189 1172 LINE",
"-186 1101 LINE"
);
},
{
closed = 1;
nodes = (
"180 1398 LINE",
"177 1470 LINE",
"-200 1328 LINE",
"-197 1256 LINE"
);
}
);
width = 0;
}
);
note = g192;
},
{
glyphname = g193;
lastChange = "2016-11-30 01:18:20 +0000";
layers = (
{
layerId = "1C6E6581-F718-4B48-B828-7898AD953AFB";
paths = (
{
closed = 1;
nodes = (
"-60 1113 OFFCURVE",
"-23 1154 OFFCURVE",
"-15 1222 CURVE",
"2 1194 OFFCURVE",
"33 1180 OFFCURVE",
"66 1180 CURVE SMOOTH",
"129 1180 OFFCURVE",
"175 1227 OFFCURVE",
"175 1304 CURVE SMOOTH",
"175 1347 OFFCURVE",
"159 1383 OFFCURVE",
"132 1410 CURVE",
"72 1387 LINE",
"88 1368 OFFCURVE",
"110 1341 OFFCURVE",
"110 1305 CURVE SMOOTH",
"110 1274 OFFCURVE",
"97 1250 OFFCURVE",
"62 1250 CURVE SMOOTH",
"46 1250 OFFCURVE",
"32 1257 OFFCURVE",
"20 1270 CURVE SMOOTH",
"8 1283 OFFCURVE",
"-3 1308 OFFCURVE",
"-14 1345 CURVE",
"-77 1321 LINE",
"-70 1302 OFFCURVE",
"-65 1277 OFFCURVE",
"-65 1254 CURVE SMOOTH",
"-65 1218 OFFCURVE",
"-79 1183 OFFCURVE",
"-120 1183 CURVE SMOOTH",
"-161 1183 OFFCURVE",
"-182 1225 OFFCURVE",
"-182 1288 CURVE",
"-241 1270 LINE",
"-241 1261 LINE SMOOTH",
"-241 1176 OFFCURVE",
"-196 1113 OFFCURVE",
"-124 1113 CURVE SMOOTH"
);
},
{
closed = 1;
nodes = (
"144 1525 LINE",
"141 1596 LINE",
"-236 1454 LINE",
"-233 1383 LINE"
);
},
{
closed = 1;
nodes = (
"133 1680 LINE",
"130 1752 LINE",
"-247 1610 LINE",
"-244 1538 LINE"
);
}
);
width = 0;
}
);
note = g193;
},
{
glyphname = g194;
lastChange = "2016-11-30 01:18:20 +0000";
layers = (
{
layerId = "1C6E6581-F718-4B48-B828-7898AD953AFB";
paths = (
{
closed = 1;
nodes = (
"-60 1113 OFFCURVE",
"-23 1154 OFFCURVE",
"-15 1222 CURVE",
"2 1194 OFFCURVE",
"33 1180 OFFCURVE",
"66 1180 CURVE SMOOTH",
"129 1180 OFFCURVE",
"175 1227 OFFCURVE",
"175 1304 CURVE SMOOTH",
"175 1347 OFFCURVE",
"159 1383 OFFCURVE",
"132 1410 CURVE",
"72 1387 LINE",
"88 1368 OFFCURVE",
"110 1341 OFFCURVE",
"110 1305 CURVE SMOOTH",
"110 1274 OFFCURVE",
"97 1250 OFFCURVE",
"62 1250 CURVE SMOOTH",
"46 1250 OFFCURVE",
"32 1257 OFFCURVE",
"20 1270 CURVE SMOOTH",
"8 1283 OFFCURVE",
"-3 1308 OFFCURVE",
"-14 1345 CURVE",
"-77 1321 LINE",
"-70 1302 OFFCURVE",
"-65 1277 OFFCURVE",
"-65 1254 CURVE SMOOTH",
"-65 1218 OFFCURVE",
"-79 1183 OFFCURVE",
"-120 1183 CURVE SMOOTH",
"-161 1183 OFFCURVE",
"-182 1225 OFFCURVE",
"-182 1288 CURVE",
"-241 1270 LINE",
"-241 1261 LINE SMOOTH",
"-241 1176 OFFCURVE",
"-196 1113 OFFCURVE",
"-124 1113 CURVE SMOOTH"
);
},
{
closed = 1;
nodes = (
"144 1525 LINE",
"141 1596 LINE",
"-236 1454 LINE",
"-233 1383 LINE"
);
}
);
width = 0;
}
);
note = g194;
},
{
glyphname = g195;
lastChange = "2016-11-30 01:18:20 +0000";
layers = (
{
layerId = "1C6E6581-F718-4B48-B828-7898AD953AFB";
paths = (
{
closed = 1;
nodes = (
"-80 1446 OFFCURVE",
"22 1488 OFFCURVE",
"68 1518 CURVE SMOOTH",
"114 1548 OFFCURVE",
"137 1589 OFFCURVE",
"137 1641 CURVE SMOOTH",
"137 1708 OFFCURVE",
"81 1754 OFFCURVE",
"17 1754 CURVE SMOOTH",
"-55 1754 OFFCURVE",
"-116 1697 OFFCURVE",
"-116 1625 CURVE SMOOTH",
"-116 1580 OFFCURVE",
"-94 1551 OFFCURVE",
"-67 1530 CURVE",
"-81 1524 OFFCURVE",
"-96 1518 OFFCURVE",
"-112 1512 CURVE SMOOTH",
"-205 1477 LINE",
"-220 1472 OFFCURVE",
"-232 1467 OFFCURVE",
"-242 1464 CURVE",
"-239 1391 LINE"
);
},
{
closed = 1;
nodes = (
"-60 1113 OFFCURVE",
"-23 1154 OFFCURVE",
"-15 1222 CURVE",
"2 1194 OFFCURVE",
"33 1180 OFFCURVE",
"66 1180 CURVE SMOOTH",
"129 1180 OFFCURVE",
"175 1227 OFFCURVE",
"175 1304 CURVE SMOOTH",
"175 1347 OFFCURVE",
"159 1383 OFFCURVE",
"132 1410 CURVE",
"72 1387 LINE",
"88 1368 OFFCURVE",
"110 1341 OFFCURVE",
"110 1305 CURVE SMOOTH",
"110 1274 OFFCURVE",
"97 1250 OFFCURVE",
"62 1250 CURVE SMOOTH",
"46 1250 OFFCURVE",
"32 1257 OFFCURVE",
"20 1270 CURVE SMOOTH",
"8 1283 OFFCURVE",
"-3 1308 OFFCURVE",
"-14 1345 CURVE",
"-77 1321 LINE",
"-70 1302 OFFCURVE",
"-65 1277 OFFCURVE",
"-65 1254 CURVE SMOOTH",
"-65 1218 OFFCURVE",
"-79 1183 OFFCURVE",
"-120 1183 CURVE SMOOTH",
"-161 1183 OFFCURVE",
"-182 1225 OFFCURVE",
"-182 1288 CURVE",
"-241 1270 LINE",
"-241 1261 LINE SMOOTH",
"-241 1176 OFFCURVE",
"-196 1113 OFFCURVE",
"-124 1113 CURVE SMOOTH"
);
},
{
closed = 1;
nodes = (
"-29 1572 OFFCURVE",
"-47 1596 OFFCURVE",
"-47 1625 CURVE SMOOTH",
"-47 1660 OFFCURVE",
"-20 1681 OFFCURVE",
"12 1681 CURVE SMOOTH",
"51 1681 OFFCURVE",
"69 1659 OFFCURVE",
"69 1632 CURVE SMOOTH",
"69 1601 OFFCURVE",
"48 1579 OFFCURVE",
"5 1559 CURVE",
"-2 1557 LINE"
);
}
);
width = 0;
}
);
note = g195;
},
{
glyphname = g196;
lastChange = "2016-11-30 01:18:20 +0000";
layers = (
{
layerId = "1C6E6581-F718-4B48-B828-7898AD953AFB";
paths = (
{
closed = 1;
nodes = (
"-52 1321 OFFCURVE",
"-15 1362 OFFCURVE",
"-7 1430 CURVE",
"10 1402 OFFCURVE",
"41 1388 OFFCURVE",
"74 1388 CURVE SMOOTH",
"137 1388 OFFCURVE",
"183 1435 OFFCURVE",
"183 1512 CURVE SMOOTH",
"183 1555 OFFCURVE",
"167 1591 OFFCURVE",
"140 1618 CURVE",
"80 1595 LINE",
"96 1576 OFFCURVE",
"118 1549 OFFCURVE",
"118 1513 CURVE SMOOTH",
"118 1482 OFFCURVE",
"105 1458 OFFCURVE",
"70 1458 CURVE SMOOTH",
"54 1458 OFFCURVE",
"40 1465 OFFCURVE",
"28 1478 CURVE SMOOTH",
"16 1491 OFFCURVE",
"5 1516 OFFCURVE",
"-6 1553 CURVE",
"-69 1529 LINE",
"-62 1510 OFFCURVE",
"-57 1485 OFFCURVE",
"-57 1462 CURVE SMOOTH",
"-57 1426 OFFCURVE",
"-71 1391 OFFCURVE",
"-112 1391 CURVE SMOOTH",
"-153 1391 OFFCURVE",
"-174 1433 OFFCURVE",
"-174 1496 CURVE",
"-233 1478 LINE",
"-233 1469 LINE SMOOTH",
"-233 1384 OFFCURVE",
"-188 1321 OFFCURVE",
"-116 1321 CURVE SMOOTH"
);
},
{
closed = 1;
nodes = (
"191 1243 LINE",
"188 1314 LINE",
"-189 1172 LINE",
"-186 1101 LINE"
);
}
);
width = 0;
}
);
note = g196;
},
{
glyphname = g197;
lastChange = "2016-11-30 01:18:20 +0000";
layers = (
{
layerId = "1C6E6581-F718-4B48-B828-7898AD953AFB";
paths = (
{
closed = 1;
nodes = (
"-60 1113 OFFCURVE",
"-23 1154 OFFCURVE",
"-15 1222 CURVE",
"2 1194 OFFCURVE",
"33 1180 OFFCURVE",
"66 1180 CURVE SMOOTH",
"129 1180 OFFCURVE",
"175 1227 OFFCURVE",
"175 1304 CURVE SMOOTH",
"175 1347 OFFCURVE",
"159 1383 OFFCURVE",
"132 1410 CURVE",
"72 1387 LINE",
"88 1368 OFFCURVE",
"110 1341 OFFCURVE",
"110 1305 CURVE SMOOTH",
"110 1274 OFFCURVE",
"97 1250 OFFCURVE",
"62 1250 CURVE SMOOTH",
"46 1250 OFFCURVE",
"32 1257 OFFCURVE",
"20 1270 CURVE SMOOTH",
"8 1283 OFFCURVE",
"-3 1308 OFFCURVE",
"-14 1345 CURVE",
"-77 1321 LINE",
"-70 1302 OFFCURVE",
"-65 1277 OFFCURVE",
"-65 1254 CURVE SMOOTH",
"-65 1218 OFFCURVE",
"-79 1183 OFFCURVE",
"-120 1183 CURVE SMOOTH",
"-161 1183 OFFCURVE",
"-182 1225 OFFCURVE",
"-182 1288 CURVE",
"-241 1270 LINE",
"-241 1261 LINE SMOOTH",
"-241 1176 OFFCURVE",
"-196 1113 OFFCURVE",
"-124 1113 CURVE SMOOTH"
);
},
{
closed = 1;
nodes = (
"-6 1444 LINE",
"-6 1755 LINE",
"-90 1755 LINE",
"-90 1444 LINE"
);
}
);
width = 0;
}
);
note = g197;
},
{
glyphname = g198;
lastChange = "2016-11-30 01:18:20 +0000";
layers = (
{
layerId = "1C6E6581-F718-4B48-B828-7898AD953AFB";
paths = (
{
closed = 1;
nodes = (
"138 1144 LINE",
"138 1220 LINE",
"46 1210 LINE",
"43 1209 OFFCURVE",
"39 1209 OFFCURVE",
"34 1209 CURVE",
"19 1208 LINE",
"-28 1208 OFFCURVE",
"-56 1244 OFFCURVE",
"-56 1281 CURVE SMOOTH",
"-56 1328 OFFCURVE",
"-23 1355 OFFCURVE",
"28 1355 CURVE SMOOTH",
"49 1355 OFFCURVE",
"72 1353 OFFCURVE",
"97 1344 CURVE",
"120 1410 LINE",
"89 1426 OFFCURVE",
"48 1432 OFFCURVE",
"21 1432 CURVE SMOOTH",
"-64 1432 OFFCURVE",
"-135 1369 OFFCURVE",
"-135 1280 CURVE SMOOTH",
"-135 1253 OFFCURVE",
"-126 1218 OFFCURVE",
"-97 1191 CURVE",
"-159 1184 LINE",
"-159 1109 LINE"
);
},
{
closed = 1;
nodes = (
"173 1600 LINE",
"170 1671 LINE",
"-207 1529 LINE",
"-204 1458 LINE"
);
},
{
closed = 1;
nodes = (
"162 1755 LINE",
"159 1827 LINE",
"-218 1685 LINE",
"-215 1613 LINE"
);
}
);
width = 0;
}
);
note = g198;
},
{
glyphname = g199;
lastChange = "2016-11-30 01:18:20 +0000";
layers = (
{
layerId = "1C6E6581-F718-4B48-B828-7898AD953AFB";
paths = (
{
closed = 1;
nodes = (
"138 1144 LINE",
"138 1220 LINE",
"46 1210 LINE",
"43 1209 OFFCURVE",
"39 1209 OFFCURVE",
"34 1209 CURVE",
"19 1208 LINE",
"-28 1208 OFFCURVE",
"-56 1244 OFFCURVE",
"-56 1281 CURVE SMOOTH",
"-56 1328 OFFCURVE",
"-23 1355 OFFCURVE",
"28 1355 CURVE SMOOTH",
"49 1355 OFFCURVE",
"72 1353 OFFCURVE",
"97 1344 CURVE",
"120 1410 LINE",
"89 1426 OFFCURVE",
"48 1432 OFFCURVE",
"21 1432 CURVE SMOOTH",
"-64 1432 OFFCURVE",
"-135 1369 OFFCURVE",
"-135 1280 CURVE SMOOTH",
"-135 1253 OFFCURVE",
"-126 1218 OFFCURVE",
"-97 1191 CURVE",
"-159 1184 LINE",
"-159 1109 LINE"
);
},
{
closed = 1;
nodes = (
"173 1610 LINE",
"170 1681 LINE",
"-207 1539 LINE",
"-204 1468 LINE"
);
}
);
width = 0;
}
);
note = g199;
},
{
glyphname = g200;
lastChange = "2016-11-30 01:18:20 +0000";
layers = (
{
layerId = "1C6E6581-F718-4B48-B828-7898AD953AFB";
paths = (
{
closed = 1;
nodes = (
"-100 1499 LINE SMOOTH",
"5 1538 OFFCURVE",
"77 1572 OFFCURVE",
"115 1600 CURVE SMOOTH",
"152 1627 OFFCURVE",
"171 1665 OFFCURVE",
"171 1712 CURVE SMOOTH",
"171 1779 OFFCURVE",
"119 1825 OFFCURVE",
"55 1825 CURVE SMOOTH",
"-16 1825 OFFCURVE",
"-73 1769 OFFCURVE",
"-73 1698 CURVE SMOOTH",
"-73 1657 OFFCURVE",
"-55 1621 OFFCURVE",
"-28 1600 CURVE",
"-45 1592 OFFCURVE",
"-65 1584 OFFCURVE",
"-86 1575 CURVE SMOOTH",
"-150 1548 LINE",
"-139 1565 OFFCURVE",
"-138 1585 OFFCURVE",
"-138 1601 CURVE SMOOTH",
"-138 1669 OFFCURVE",
"-188 1706 OFFCURVE",
"-256 1706 CURVE",
"-253 1638 LINE",
"-217 1635 OFFCURVE",
"-201 1609 OFFCURVE",
"-201 1582 CURVE SMOOTH",
"-201 1561 OFFCURVE",
"-206 1543 OFFCURVE",
"-219 1524 CURVE",
"-213 1457 LINE"
);
},
{
closed = 1;
nodes = (
"138 1144 LINE",
"138 1220 LINE",
"46 1210 LINE",
"43 1209 OFFCURVE",
"39 1209 OFFCURVE",
"34 1209 CURVE",
"19 1208 LINE",
"-28 1208 OFFCURVE",
"-56 1244 OFFCURVE",
"-56 1281 CURVE SMOOTH",
"-56 1328 OFFCURVE",
"-23 1355 OFFCURVE",
"28 1355 CURVE SMOOTH",
"49 1355 OFFCURVE",
"72 1353 OFFCURVE",
"97 1344 CURVE",
"120 1410 LINE",
"89 1426 OFFCURVE",
"48 1432 OFFCURVE",
"21 1432 CURVE SMOOTH",
"-64 1432 OFFCURVE",
"-135 1369 OFFCURVE",
"-135 1280 CURVE SMOOTH",
"-135 1253 OFFCURVE",
"-126 1218 OFFCURVE",
"-97 1191 CURVE",
"-159 1184 LINE",
"-159 1109 LINE"
);
},
{
closed = 1;
nodes = (
"9 1644 OFFCURVE",
"-7 1669 OFFCURVE",
"-7 1698 CURVE SMOOTH",
"-7 1733 OFFCURVE",
"19 1754 OFFCURVE",
"50 1754 CURVE SMOOTH",
"81 1754 OFFCURVE",
"102 1734 OFFCURVE",
"102 1703 CURVE SMOOTH",
"102 1668 OFFCURVE",
"75 1645 OFFCURVE",
"43 1632 CURVE SMOOTH",
"36 1629 LINE"
);
}
);
width = 0;
}
);
note = g200;
},
{
glyphname = g201;
lastChange = "2016-11-30 01:18:20 +0000";
layers = (
{
layerId = "1C6E6581-F718-4B48-B828-7898AD953AFB";
paths = (
{
closed = 1;
nodes = (
"-51 1513 OFFCURVE",
"51 1555 OFFCURVE",
"97 1585 CURVE SMOOTH",
"143 1615 OFFCURVE",
"166 1656 OFFCURVE",
"166 1708 CURVE SMOOTH",
"166 1775 OFFCURVE",
"110 1821 OFFCURVE",
"46 1821 CURVE SMOOTH",
"-26 1821 OFFCURVE",
"-87 1764 OFFCURVE",
"-87 1692 CURVE SMOOTH",
"-87 1647 OFFCURVE",
"-65 1618 OFFCURVE",
"-38 1597 CURVE",
"-52 1591 OFFCURVE",
"-67 1585 OFFCURVE",
"-83 1579 CURVE SMOOTH",
"-176 1544 LINE",
"-191 1539 OFFCURVE",
"-203 1534 OFFCURVE",
"-213 1531 CURVE",
"-210 1458 LINE"
);
},
{
closed = 1;
nodes = (
"138 1144 LINE",
"138 1220 LINE",
"46 1210 LINE",
"43 1209 OFFCURVE",
"39 1209 OFFCURVE",
"34 1209 CURVE",
"19 1208 LINE",
"-28 1208 OFFCURVE",
"-56 1244 OFFCURVE",
"-56 1281 CURVE SMOOTH",
"-56 1328 OFFCURVE",
"-23 1355 OFFCURVE",
"28 1355 CURVE SMOOTH",
"49 1355 OFFCURVE",
"72 1353 OFFCURVE",
"97 1344 CURVE",
"120 1410 LINE",
"89 1426 OFFCURVE",
"48 1432 OFFCURVE",
"21 1432 CURVE SMOOTH",
"-64 1432 OFFCURVE",
"-135 1369 OFFCURVE",
"-135 1280 CURVE SMOOTH",
"-135 1253 OFFCURVE",
"-126 1218 OFFCURVE",
"-97 1191 CURVE",
"-159 1184 LINE",
"-159 1109 LINE"
);
},
{
closed = 1;
nodes = (
"0 1639 OFFCURVE",
"-18 1663 OFFCURVE",
"-18 1692 CURVE SMOOTH",
"-18 1727 OFFCURVE",
"9 1748 OFFCURVE",
"41 1748 CURVE SMOOTH",
"80 1748 OFFCURVE",
"98 1726 OFFCURVE",
"98 1699 CURVE SMOOTH",
"98 1668 OFFCURVE",
"77 1646 OFFCURVE",
"34 1626 CURVE",
"27 1624 LINE"
);
}
);
width = 0;
}
);
note = g201;
},
{
glyphname = g202;
lastChange = "2016-11-30 01:18:20 +0000";
layers = (
{
layerId = "1C6E6581-F718-4B48-B828-7898AD953AFB";
paths = (
{
closed = 1;
nodes = (
"138 1144 LINE",
"138 1220 LINE",
"46 1210 LINE",
"43 1209 OFFCURVE",
"39 1209 OFFCURVE",
"34 1209 CURVE",
"19 1208 LINE",
"-28 1208 OFFCURVE",
"-56 1244 OFFCURVE",
"-56 1281 CURVE SMOOTH",
"-56 1328 OFFCURVE",
"-23 1355 OFFCURVE",
"28 1355 CURVE SMOOTH",
"49 1355 OFFCURVE",
"72 1353 OFFCURVE",
"97 1344 CURVE",
"120 1410 LINE",
"89 1426 OFFCURVE",
"48 1432 OFFCURVE",
"21 1432 CURVE SMOOTH",
"-64 1432 OFFCURVE",
"-135 1369 OFFCURVE",
"-135 1280 CURVE SMOOTH",
"-135 1253 OFFCURVE",
"-126 1218 OFFCURVE",
"-97 1191 CURVE",
"-159 1184 LINE",
"-159 1109 LINE"
);
},
{
closed = 1;
nodes = (
"69 1523 OFFCURVE",
"129 1581 OFFCURVE",
"129 1652 CURVE SMOOTH",
"129 1735 OFFCURVE",
"68 1795 OFFCURVE",
"-11 1795 CURVE SMOOTH",
"-80 1795 OFFCURVE",
"-145 1731 OFFCURVE",
"-145 1656 CURVE SMOOTH",
"-145 1577 OFFCURVE",
"-88 1523 OFFCURVE",
"-8 1523 CURVE SMOOTH"
);
},
{
closed = 1;
nodes = (
"-53 1588 OFFCURVE",
"-81 1619 OFFCURVE",
"-81 1658 CURVE SMOOTH",
"-81 1697 OFFCURVE",
"-51 1729 OFFCURVE",
"-8 1729 CURVE SMOOTH",
"35 1729 OFFCURVE",
"65 1702 OFFCURVE",
"65 1659 CURVE SMOOTH",
"65 1620 OFFCURVE",
"39 1588 OFFCURVE",
"-10 1588 CURVE SMOOTH"
);
}
);
width = 0;
}
);
note = g202;
},
{
glyphname = g203;
lastChange = "2016-11-30 01:18:20 +0000";
layers = (
{
layerId = "1C6E6581-F718-4B48-B828-7898AD953AFB";
paths = (
{
closed = 1;
nodes = (
"138 -288 LINE",
"138 -212 LINE",
"29 -223 LINE",
"26 -224 OFFCURVE",
"22 -224 OFFCURVE",
"19 -224 CURVE SMOOTH",
"-24 -224 OFFCURVE",
"-56 -192 OFFCURVE",
"-56 -151 CURVE SMOOTH",
"-56 -104 OFFCURVE",
"-23 -75 OFFCURVE",
"28 -75 CURVE SMOOTH",
"50 -75 OFFCURVE",
"73 -79 OFFCURVE",
"97 -88 CURVE",
"120 -20 LINE",
"89 -5 OFFCURVE",
"48 0 OFFCURVE",
"21 0 CURVE SMOOTH",
"-63 0 OFFCURVE",
"-135 -62 OFFCURVE",
"-135 -151 CURVE SMOOTH",
"-135 -178 OFFCURVE",
"-126 -214 OFFCURVE",
"-97 -241 CURVE",
"-159 -248 LINE",
"-159 -322 LINE"
);
},
{
closed = 1;
nodes = (
"180 -441 LINE",
"177 -369 LINE",
"-200 -511 LINE",
"-197 -583 LINE"
);
}
);
width = 0;
}
);
note = g203;
},
{
glyphname = g204;
lastChange = "2016-11-30 01:18:20 +0000";
layers = (
{
layerId = "1C6E6581-F718-4B48-B828-7898AD953AFB";
paths = (
{
closed = 1;
nodes = (
"138 -288 LINE",
"138 -212 LINE",
"29 -223 LINE",
"26 -224 OFFCURVE",
"22 -224 OFFCURVE",
"19 -224 CURVE SMOOTH",
"-24 -224 OFFCURVE",
"-56 -192 OFFCURVE",
"-56 -151 CURVE SMOOTH",
"-56 -104 OFFCURVE",
"-23 -75 OFFCURVE",
"28 -75 CURVE SMOOTH",
"50 -75 OFFCURVE",
"73 -79 OFFCURVE",
"97 -88 CURVE",
"120 -20 LINE",
"89 -5 OFFCURVE",
"48 0 OFFCURVE",
"21 0 CURVE SMOOTH",
"-63 0 OFFCURVE",
"-135 -62 OFFCURVE",
"-135 -151 CURVE SMOOTH",
"-135 -178 OFFCURVE",
"-126 -214 OFFCURVE",
"-97 -241 CURVE",
"-159 -248 LINE",
"-159 -322 LINE"
);
},
{
closed = 1;
nodes = (
"191 -586 LINE",
"188 -515 LINE",
"-189 -657 LINE",
"-186 -728 LINE"
);
},
{
closed = 1;
nodes = (
"180 -431 LINE",
"177 -359 LINE",
"-200 -501 LINE",
"-197 -573 LINE"
);
}
);
width = 0;
}
);
note = g204;
},
{
glyphname = afii57392;
lastChange = "2016-11-30 01:15:49 +0000";
layers = (
{
layerId = "1C6E6581-F718-4B48-B828-7898AD953AFB";
paths = (
{
closed = 1;
nodes = (
"267 359 OFFCURVE",
"329 416 OFFCURVE",
"329 493 CURVE SMOOTH",
"329 565 OFFCURVE",
"260 623 OFFCURVE",
"193 623 CURVE SMOOTH",
"129 623 OFFCURVE",
"60 564 OFFCURVE",
"60 493 CURVE SMOOTH",
"60 414 OFFCURVE",
"124 359 OFFCURVE",
"199 359 CURVE SMOOTH"
);
}
);
width = 389;
}
);
note = afii57392;
unicode = 0660;
},
{
glyphname = afii57393;
lastChange = "2016-11-30 01:18:20 +0000";
layers = (
{
layerId = "1C6E6581-F718-4B48-B828-7898AD953AFB";
paths = (
{
closed = 1;
nodes = (
"384 0 LINE",
"334 1200 LINE",
"191 1200 LINE",
"241 0 LINE"
);
}
);
width = 574;
}
);
note = afii57393;
unicode = 0661;
},
{
glyphname = afii57394;
lastChange = "2016-11-30 01:18:20 +0000";
layers = (
{
layerId = "1C6E6581-F718-4B48-B828-7898AD953AFB";
paths = (
{
closed = 1;
nodes = (
"390 0 LINE",
"243 938 LINE",
"244 938 LINE",
"295 905 OFFCURVE",
"359 896 OFFCURVE",
"418 896 CURVE SMOOTH",
"625 896 OFFCURVE",
"760 1003 OFFCURVE",
"803 1200 CURVE",
"665 1200 LINE",
"625 1088 OFFCURVE",
"553 1039 OFFCURVE",
"400 1039 CURVE SMOOTH",
"324 1039 OFFCURVE",
"250 1064 OFFCURVE",
"213 1108 CURVE",
"198 1200 LINE",
"50 1200 LINE",
"77 1052 OFFCURVE",
"112 834 OFFCURVE",
"143 641 CURVE SMOOTH",
"244 0 LINE"
);
}
);
width = 833;
}
);
note = afii57394;
unicode = 0662;
},
{
glyphname = afii57395;
lastChange = "2016-11-30 01:18:20 +0000";
layers = (
{
layerId = "1C6E6581-F718-4B48-B828-7898AD953AFB";
paths = (
{
closed = 1;
nodes = (
"390 0 LINE",
"249 897 LINE",
"251 898 LINE",
"279 877 OFFCURVE",
"315 872 OFFCURVE",
"346 872 CURVE SMOOTH",
"402 872 OFFCURVE",
"457 885 OFFCURVE",
"497 932 CURVE",
"537 896 OFFCURVE",
"587 873 OFFCURVE",
"666 873 CURVE SMOOTH",
"817 873 OFFCURVE",
"919 995 OFFCURVE",
"919 1200 CURVE",
"787 1200 LINE",
"783 1073 OFFCURVE",
"745 1008 OFFCURVE",
"656 1008 CURVE SMOOTH",
"617 1008 OFFCURVE",
"580 1020 OFFCURVE",
"560 1047 CURVE",
"571 1080 OFFCURVE",
"581 1135 OFFCURVE",
"581 1200 CURVE",
"449 1200 LINE",
"442 1069 OFFCURVE",
"409 1006 OFFCURVE",
"329 1006 CURVE SMOOTH",
"288 1006 OFFCURVE",
"244 1026 OFFCURVE",
"221 1061 CURVE",
"198 1200 LINE",
"50 1200 LINE",
"77 1052 OFFCURVE",
"112 834 OFFCURVE",
"143 641 CURVE SMOOTH",
"244 0 LINE"
);
}
);
width = 949;
}
);
note = afii57395;
unicode = 0663;
},
{
glyphname = afii57396;
lastChange = "2016-11-30 01:18:20 +0000";
layers = (
{
layerId = "1C6E6581-F718-4B48-B828-7898AD953AFB";
paths = (
{
closed = 1;
nodes = (
"588 -5 OFFCURVE",
"670 11 OFFCURVE",
"758 34 CURVE",
"758 176 LINE",
"667 155 OFFCURVE",
"573 141 OFFCURVE",
"489 141 CURVE SMOOTH",
"408 141 OFFCURVE",
"346 148 OFFCURVE",
"302 162 CURVE SMOOTH",
"258 176 OFFCURVE",
"236 196 OFFCURVE",
"236 223 CURVE SMOOTH",
"236 246 OFFCURVE",
"246 271 OFFCURVE",
"265 297 CURVE SMOOTH",
"284 322 OFFCURVE",
"317 355 OFFCURVE",
"363 396 CURVE SMOOTH",
"506 521 LINE SMOOTH",
"543 554 OFFCURVE",
"566 580 OFFCURVE",
"573 597 CURVE SMOOTH",
"580 614 OFFCURVE",
"583 628 OFFCURVE",
"583 641 CURVE SMOOTH",
"583 696 OFFCURVE",
"560 725 OFFCURVE",
"463 750 CURVE SMOOTH",
"407 764 LINE SMOOTH",
"339 781 OFFCURVE",
"287 798 OFFCURVE",
"252 816 CURVE SMOOTH",
"217 833 OFFCURVE",
"199 854 OFFCURVE",
"199 878 CURVE SMOOTH",
"199 917 OFFCURVE",
"231 955 OFFCURVE",
"295 990 CURVE SMOOTH",
"358 1025 OFFCURVE",
"451 1060 OFFCURVE",
"574 1093 CURVE",
"574 1228 LINE",
"230 1156 OFFCURVE",
"60 1031 OFFCURVE",
"60 864 CURVE SMOOTH",
"60 764 OFFCURVE",
"127 694 OFFCURVE",
"282 651 CURVE SMOOTH",
"419 615 LINE",
"369 576 LINE SMOOTH",
"161 413 OFFCURVE",
"96 317 OFFCURVE",
"96 201 CURVE SMOOTH",
"96 66 OFFCURVE",
"208 -5 OFFCURVE",
"480 -5 CURVE SMOOTH"
);
}
);
width = 798;
}
);
note = afii57396;
unicode = 0664;
},
{
glyphname = afii57397;
lastChange = "2016-11-30 01:18:20 +0000";
layers = (
{
layerId = "1C6E6581-F718-4B48-B828-7898AD953AFB";
paths = (
{
closed = 1;
nodes = (
"713 80 OFFCURVE",
"860 249 OFFCURVE",
"860 557 CURVE SMOOTH",
"860 866 OFFCURVE",
"715 1084 OFFCURVE",
"474 1084 CURVE SMOOTH",
"237 1084 OFFCURVE",
"70 843 OFFCURVE",
"70 535 CURVE SMOOTH",
"70 243 OFFCURVE",
"221 80 OFFCURVE",
"461 80 CURVE SMOOTH"
);
},
{
closed = 1;
nodes = (
"305 230 OFFCURVE",
"220 342 OFFCURVE",
"220 534 CURVE SMOOTH",
"220 781 OFFCURVE",
"319 932 OFFCURVE",
"474 932 CURVE SMOOTH",
"618 932 OFFCURVE",
"710 780 OFFCURVE",
"710 552 CURVE SMOOTH",
"710 335 OFFCURVE",
"629 230 OFFCURVE",
"461 230 CURVE SMOOTH"
);
}
);
width = 930;
}
);
note = afii57397;
unicode = 0665;
},
{
glyphname = afii57398;
lastChange = "2016-11-30 01:18:20 +0000";
layers = (
{
layerId = "1C6E6581-F718-4B48-B828-7898AD953AFB";
paths = (
{
closed = 1;
nodes = (
"737 0 LINE",
"724 162 LINE SMOOTH",
"719 222 OFFCURVE",
"714 285 OFFCURVE",
"709 352 CURVE SMOOTH",
"695 557 LINE SMOOTH",
"682 732 OFFCURVE",
"670 985 OFFCURVE",
"670 1104 CURVE SMOOTH",
"670 1200 LINE",
"397 1200 LINE",
"325 1201 LINE SMOOTH",
"232 1201 OFFCURVE",
"109 1206 OFFCURVE",
"37 1213 CURVE",
"20 1075 LINE",
"144 1060 OFFCURVE",
"276 1056 OFFCURVE",
"397 1056 CURVE SMOOTH",
"528 1056 LINE",
"531 801 OFFCURVE",
"563 305 OFFCURVE",
"590 0 CURVE"
);
}
);
width = 837;
}
);
note = afii57398;
unicode = 0666;
},
{
glyphname = afii57399;
lastChange = "2016-11-30 01:18:20 +0000";
layers = (
{
layerId = "1C6E6581-F718-4B48-B828-7898AD953AFB";
paths = (
{
closed = 1;
nodes = (
"511 0 LINE",
"572 169 LINE SMOOTH",
"595 233 OFFCURVE",
"621 301 OFFCURVE",
"648 374 CURVE SMOOTH",
"731 598 LINE SMOOTH",
"759 675 OFFCURVE",
"787 749 OFFCURVE",
"814 822 CURVE SMOOTH",
"956 1200 LINE",
"797 1200 LINE",
"742 1055 OFFCURVE",
"690 908 OFFCURVE",
"631 736 CURVE SMOOTH",
"550 500 LINE SMOOTH",
"523 421 OFFCURVE",
"494 340 OFFCURVE",
"465 257 CURVE",
"460 257 LINE",
"418 399 LINE",
"317 729 LINE",
"214 1058 LINE SMOOTH",
"198 1109 OFFCURVE",
"183 1157 OFFCURVE",
"169 1200 CURVE",
"0 1200 LINE",
"79 972 OFFCURVE",
"140 784 OFFCURVE",
"211 568 CURVE SMOOTH",
"279 355 LINE",
"389 0 LINE"
);
}
);
width = 956;
}
);
note = afii57399;
unicode = 0667;
},
{
glyphname = afii57400;
lastChange = "2016-11-30 01:18:20 +0000";
layers = (
{
layerId = "1C6E6581-F718-4B48-B828-7898AD953AFB";
paths = (
{
closed = 1;
nodes = (
"169 0 LINE",
"221 145 OFFCURVE",
"271 292 OFFCURVE",
"327 465 CURVE SMOOTH",
"404 700 LINE SMOOTH",
"430 779 OFFCURVE",
"457 860 OFFCURVE",
"485 943 CURVE",
"490 943 LINE",
"503 900 OFFCURVE",
"518 852 OFFCURVE",
"535 801 CURVE SMOOTH",
"586 641 LINE",
"641 471 LINE",
"797 0 LINE",
"966 0 LINE",
"943 61 OFFCURVE",
"920 127 OFFCURVE",
"895 198 CURVE SMOOTH",
"820 413 LINE SMOOTH",
"771 554 OFFCURVE",
"720 705 OFFCURVE",
"673 846 CURVE SMOOTH",
"609 1039 LINE SMOOTH",
"589 1099 OFFCURVE",
"571 1153 OFFCURVE",
"556 1200 CURVE",
"434 1200 LINE",
"418 1152 OFFCURVE",
"399 1096 OFFCURVE",
"376 1032 CURVE SMOOTH",
"304 826 LINE SMOOTH",
"279 753 OFFCURVE",
"252 679 OFFCURVE",
"225 602 CURVE SMOOTH",
"71 172 LINE",
"10 0 LINE"
);
}
);
width = 966;
}
);
note = afii57400;
unicode = 0668;
},
{
glyphname = afii57401;
lastChange = "2016-11-30 01:18:20 +0000";
layers = (
{
layerId = "1C6E6581-F718-4B48-B828-7898AD953AFB";
paths = (
{
closed = 1;
nodes = (
"772 0 LINE",
"700 822 LINE SMOOTH",
"677 1101 OFFCURVE",
"565 1227 OFFCURVE",
"366 1227 CURVE SMOOTH",
"186 1227 OFFCURVE",
"30 1034 OFFCURVE",
"30 835 CURVE SMOOTH",
"30 648 OFFCURVE",
"152 533 OFFCURVE",
"363 533 CURVE SMOOTH",
"431 533 OFFCURVE",
"512 552 OFFCURVE",
"575 585 CURVE",
"624 0 LINE"
);
},
{
closed = 1;
nodes = (
"236 680 OFFCURVE",
"172 744 OFFCURVE",
"172 849 CURVE SMOOTH",
"172 984 OFFCURVE",
"266 1084 OFFCURVE",
"367 1084 CURVE SMOOTH",
"500 1084 OFFCURVE",
"545 997 OFFCURVE",
"557 816 CURVE SMOOTH",
"563 720 LINE",
"498 692 OFFCURVE",
"445 680 OFFCURVE",
"377 680 CURVE SMOOTH"
);
}
);
width = 860;
}
);
note = afii57401;
unicode = 0669;
},
{
glyphname = afii57381;
lastChange = "2016-11-30 01:18:20 +0000";
layers = (
{
layerId = "1C6E6581-F718-4B48-B828-7898AD953AFB";
paths = (
{
closed = 1;
nodes = (
"281 0 LINE",
"899 1200 LINE",
"750 1200 LINE",
"130 0 LINE"
);
},
{
closed = 1;
nodes = (
"825 -20 OFFCURVE",
"878 33 OFFCURVE",
"878 101 CURVE SMOOTH",
"878 164 OFFCURVE",
"816 218 OFFCURVE",
"755 218 CURVE SMOOTH",
"698 218 OFFCURVE",
"635 165 OFFCURVE",
"635 101 CURVE SMOOTH",
"635 29 OFFCURVE",
"696 -20 OFFCURVE",
"761 -20 CURVE SMOOTH"
);
},
{
closed = 1;
nodes = (
"329 962 OFFCURVE",
"382 1015 OFFCURVE",
"382 1083 CURVE SMOOTH",
"382 1146 OFFCURVE",
"320 1200 OFFCURVE",
"259 1200 CURVE SMOOTH",
"202 1200 OFFCURVE",
"139 1147 OFFCURVE",
"139 1083 CURVE SMOOTH",
"139 1011 OFFCURVE",
"200 962 OFFCURVE",
"265 962 CURVE SMOOTH"
);
}
);
width = 979;
}
);
note = afii57381;
unicode = 066A;
},
{
glyphname = uni066B;
lastChange = "2016-11-30 01:18:20 +0000";
layers = (
{
layerId = "1C6E6581-F718-4B48-B828-7898AD953AFB";
paths = (
{
closed = 1;
nodes = (
"237 -264 LINE",
"280 -145 OFFCURVE",
"349 74 OFFCURVE",
"389 215 CURVE",
"374 238 LINE",
"227 238 LINE",
"172 -9 LINE",
"141 -145 LINE SMOOTH",
"130 -190 OFFCURVE",
"121 -229 OFFCURVE",
"112 -264 CURVE"
);
}
);
width = 536;
}
);
note = uni066B;
unicode = 066B;
},
{
glyphname = uni066C;
lastChange = "2016-11-30 01:18:20 +0000";
layers = (
{
layerId = "1C6E6581-F718-4B48-B828-7898AD953AFB";
paths = (
{
closed = 1;
nodes = (
"234 698 LINE",
"277 817 OFFCURVE",
"346 1036 OFFCURVE",
"386 1177 CURVE",
"371 1200 LINE",
"224 1200 LINE",
"169 953 LINE",
"138 817 LINE SMOOTH",
"127 772 OFFCURVE",
"118 733 OFFCURVE",
"109 698 CURVE"
);
}
);
width = 536;
}
);
note = uni066C;
unicode = 066C;
},
{
glyphname = period;
lastChange = "2016-11-30 01:18:20 +0000";
layers = (
{
layerId = "1C6E6581-F718-4B48-B828-7898AD953AFB";
paths = (
{
closed = 1;
nodes = (
"346 -29 OFFCURVE",
"393 18 OFFCURVE",
"393 106 CURVE SMOOTH",
"393 195 OFFCURVE",
"347 242 OFFCURVE",
"270 242 CURVE SMOOTH",
"194 242 OFFCURVE",
"152 195 OFFCURVE",
"152 106 CURVE SMOOTH",
"152 10 OFFCURVE",
"202 -29 OFFCURVE",
"270 -29 CURVE SMOOTH"
);
}
);
width = 545;
}
);
note = period;
unicode = 002E;
},
{
glyphname = afii57388;
lastChange = "2016-11-30 01:18:20 +0000";
layers = (
{
layerId = "1C6E6581-F718-4B48-B828-7898AD953AFB";
paths = (
{
closed = 1;
nodes = (
"292 0 LINE",
"307 69 OFFCURVE",
"327 163 OFFCURVE",
"347 247 CURVE SMOOTH",
"379 383 LINE SMOOTH",
"389 428 OFFCURVE",
"398 467 OFFCURVE",
"407 502 CURVE",
"282 502 LINE",
"239 383 OFFCURVE",
"170 164 OFFCURVE",
"130 23 CURVE",
"145 0 LINE"
);
}
);
width = 567;
}
);
note = afii57388;
unicode = 060C;
},
{
glyphname = afii57403;
lastChange = "2016-11-30 01:18:20 +0000";
layers = (
{
layerId = "1C6E6581-F718-4B48-B828-7898AD953AFB";
paths = (
{
closed = 1;
nodes = (
"384 637 LINE",
"412 816 OFFCURVE",
"446 978 OFFCURVE",
"489 1139 CURVE",
"364 1139 LINE",
"289 972 OFFCURVE",
"243 817 OFFCURVE",
"202 660 CURVE",
"217 637 LINE"
);
},
{
closed = 1;
nodes = (
"364 -29 OFFCURVE",
"411 18 OFFCURVE",
"411 106 CURVE SMOOTH",
"411 195 OFFCURVE",
"365 242 OFFCURVE",
"288 242 CURVE SMOOTH",
"212 242 OFFCURVE",
"170 195 OFFCURVE",
"170 106 CURVE SMOOTH",
"170 10 OFFCURVE",
"220 -29 OFFCURVE",
"288 -29 CURVE SMOOTH"
);
}
);
width = 581;
}
);
note = afii57403;
unicode = 061B;
},
{
glyphname = colon;
lastChange = "2016-11-30 01:18:20 +0000";
layers = (
{
layerId = "1C6E6581-F718-4B48-B828-7898AD953AFB";
paths = (
{
closed = 1;
nodes = (
"364 -29 OFFCURVE",
"411 18 OFFCURVE",
"411 106 CURVE SMOOTH",
"411 195 OFFCURVE",
"365 242 OFFCURVE",
"288 242 CURVE SMOOTH",
"212 242 OFFCURVE",
"170 195 OFFCURVE",
"170 106 CURVE SMOOTH",
"170 10 OFFCURVE",
"220 -29 OFFCURVE",
"288 -29 CURVE SMOOTH"
);
},
{
closed = 1;
nodes = (
"364 614 OFFCURVE",
"411 661 OFFCURVE",
"411 749 CURVE SMOOTH",
"411 839 OFFCURVE",
"370 884 OFFCURVE",
"288 884 CURVE SMOOTH",
"209 884 OFFCURVE",
"170 839 OFFCURVE",
"170 749 CURVE SMOOTH",
"170 653 OFFCURVE",
"220 614 OFFCURVE",
"288 614 CURVE SMOOTH"
);
}
);
width = 581;
}
);
note = colon;
unicode = 003A;
},
{
glyphname = ellipsis;
lastChange = "2016-11-30 01:18:20 +0000";
layers = (
{
layerId = "1C6E6581-F718-4B48-B828-7898AD953AFB";
paths = (
{
closed = 1;
nodes = (
"1287 -29 OFFCURVE",
"1334 18 OFFCURVE",
"1334 106 CURVE SMOOTH",
"1334 195 OFFCURVE",
"1288 242 OFFCURVE",
"1211 242 CURVE SMOOTH",
"1135 242 OFFCURVE",
"1093 195 OFFCURVE",
"1093 106 CURVE SMOOTH",
"1093 10 OFFCURVE",
"1143 -29 OFFCURVE",
"1211 -29 CURVE SMOOTH"
);
},
{
closed = 1;
nodes = (
"346 -29 OFFCURVE",
"393 18 OFFCURVE",
"393 106 CURVE SMOOTH",
"393 195 OFFCURVE",
"347 242 OFFCURVE",
"270 242 CURVE SMOOTH",
"194 242 OFFCURVE",
"152 195 OFFCURVE",
"152 106 CURVE SMOOTH",
"152 10 OFFCURVE",
"202 -29 OFFCURVE",
"270 -29 CURVE SMOOTH"
);
},
{
closed = 1;
nodes = (
"816 -29 OFFCURVE",
"863 18 OFFCURVE",
"863 106 CURVE SMOOTH",
"863 195 OFFCURVE",
"817 242 OFFCURVE",
"740 242 CURVE SMOOTH",
"664 242 OFFCURVE",
"622 195 OFFCURVE",
"622 106 CURVE SMOOTH",
"622 10 OFFCURVE",
"672 -29 OFFCURVE",
"740 -29 CURVE SMOOTH"
);
}
);
width = 1486;
}
);
note = ellipsis;
unicode = 2026;
},
{
glyphname = afii57407;
lastChange = "2016-11-30 01:18:20 +0000";
layers = (
{
layerId = "1C6E6581-F718-4B48-B828-7898AD953AFB";
paths = (
{
closed = 1;
nodes = (
"537 403 LINE",
"537 457 LINE SMOOTH",
"537 568 OFFCURVE",
"488 651 OFFCURVE",
"376 735 CURVE SMOOTH",
"264 818 OFFCURVE",
"222 875 OFFCURVE",
"222 951 CURVE SMOOTH",
"222 1050 OFFCURVE",
"304 1119 OFFCURVE",
"435 1119 CURVE SMOOTH",
"526 1119 OFFCURVE",
"608 1096 OFFCURVE",
"688 1057 CURVE",
"748 1181 LINE",
"639 1237 OFFCURVE",
"537 1264 OFFCURVE",
"428 1264 CURVE SMOOTH",
"216 1264 OFFCURVE",
"66 1131 OFFCURVE",
"66 944 CURVE SMOOTH",
"66 811 OFFCURVE",
"136 732 OFFCURVE",
"289 624 CURVE SMOOTH",
"365 569 OFFCURVE",
"403 507 OFFCURVE",
"403 436 CURVE SMOOTH",
"403 403 LINE"
);
},
{
closed = 1;
nodes = (
"529 -16 OFFCURVE",
"573 19 OFFCURVE",
"573 106 CURVE SMOOTH",
"573 188 OFFCURVE",
"537 229 OFFCURVE",
"465 229 CURVE SMOOTH",
"396 229 OFFCURVE",
"356 186 OFFCURVE",
"356 106 CURVE SMOOTH",
"356 29 OFFCURVE",
"397 -16 OFFCURVE",
"465 -16 CURVE SMOOTH"
);
}
);
width = 776;
}
);
note = afii57407;
unicode = 061F;
},
{
glyphname = exclam;
lastChange = "2016-11-30 01:18:20 +0000";
layers = (
{
layerId = "1C6E6581-F718-4B48-B828-7898AD953AFB";
paths = (
{
closed = 1;
nodes = (
"345 403 LINE",
"390 1244 LINE",
"195 1244 LINE",
"240 403 LINE"
);
},
{
closed = 1;
nodes = (
"359 -16 OFFCURVE",
"400 29 OFFCURVE",
"400 106 CURVE SMOOTH",
"400 186 OFFCURVE",
"360 229 OFFCURVE",
"291 229 CURVE SMOOTH",
"219 229 OFFCURVE",
"183 188 OFFCURVE",
"183 106 CURVE SMOOTH",
"183 19 OFFCURVE",
"227 -16 OFFCURVE",
"291 -16 CURVE SMOOTH"
);
}
);
width = 582;
}
);
note = exclam;
unicode = 0021;
},
{
glyphname = parenleft;
lastChange = "2016-11-30 01:18:20 +0000";
layers = (
{
layerId = "1C6E6581-F718-4B48-B828-7898AD953AFB";
paths = (
{
closed = 1;
nodes = (
"543 -374 LINE",
"356 -122 OFFCURVE",
"256 197 OFFCURVE",
"256 513 CURVE SMOOTH",
"256 840 OFFCURVE",
"352 1153 OFFCURVE",
"545 1412 CURVE",
"383 1412 LINE",
"187 1179 OFFCURVE",
"82 866 OFFCURVE",
"82 511 CURVE SMOOTH",
"82 160 OFFCURVE",
"186 -146 OFFCURVE",
"383 -374 CURVE"
);
}
);
width = 606;
}
);
note = parenleft;
unicode = 0028;
},
{
glyphname = parenright;
lastChange = "2016-11-30 01:18:20 +0000";
layers = (
{
layerId = "1C6E6581-F718-4B48-B828-7898AD953AFB";
paths = (
{
closed = 1;
nodes = (
"223 -374 LINE",
"419 -149 OFFCURVE",
"524 158 OFFCURVE",
"524 511 CURVE SMOOTH",
"524 856 OFFCURVE",
"422 1175 OFFCURVE",
"223 1412 CURVE",
"61 1412 LINE",
"254 1153 OFFCURVE",
"350 840 OFFCURVE",
"350 513 CURVE SMOOTH",
"350 194 OFFCURVE",
"248 -123 OFFCURVE",
"63 -374 CURVE"
);
}
);
width = 606;
}
);
note = parenright;
unicode = 0029;
},
{
glyphname = bracketleft;
lastChange = "2016-11-30 01:18:20 +0000";
layers = (
{
layerId = "1C6E6581-F718-4B48-B828-7898AD953AFB";
paths = (
{
closed = 1;
nodes = (
"617 -324 LINE",
"617 -187 LINE",
"318 -187 LINE",
"318 1284 LINE",
"617 1284 LINE",
"617 1420 LINE",
"160 1420 LINE",
"160 -324 LINE"
);
}
);
width = 667;
}
);
note = bracketleft;
unicode = 005B;
},
{
glyphname = bracketright;
lastChange = "2016-11-30 01:15:49 +0000";
layers = (
{
layerId = "1C6E6581-F718-4B48-B828-7898AD953AFB";
paths = (
{
closed = 1;
nodes = (
"507 -324 LINE",
"507 1420 LINE",
"50 1420 LINE",
"50 1284 LINE",
"349 1284 LINE",
"349 -187 LINE",
"50 -187 LINE",
"50 -324 LINE"
);
}
);
width = 667;
}
);
note = bracketright;
unicode = 005D;
},
{
glyphname = g229;
lastChange = "2016-11-30 01:18:20 +0000";
layers = (
{
layerId = "1C6E6581-F718-4B48-B828-7898AD953AFB";
paths = (
{
closed = 1;
nodes = (
"264 852 LINE",
"264 1803 LINE",
"1154 1803 LINE",
"1154 1907 LINE",
"160 1907 LINE",
"160 852 LINE"
);
}
);
width = 1104;
}
);
note = g229;
},
